<svg id="Layer_1" data-name="Layer 1" xmlns="http://www.w3.org/2000/svg" xmlns:xlink="http://www.w3.org/1999/xlink" width="18.69" height="19.54" viewBox="0 0 18.69 19.54"><defs><style>.cls-1{fill:none;}.cls-2{clip-path:url(#clip-path);}.cls-3{fill:#d96d00;}.cls-4{fill:url(#linear-gradient);}.cls-5{fill:#f5c491;}.cls-6{fill:url(#linear-gradient-2);}.cls-7{opacity:0.3;}.cls-8,.cls-9{fill:#fff;}.cls-9{isolation:isolate;opacity:0.6;}.cls-10{fill:#f28500;}.cls-11{fill:url(#linear-gradient-3);}</style><clipPath id="clip-path" transform="translate(0 0)"><path class="cls-1" d="M10.22,19.54H8.47C4.34,19.66.8,16.19,0,11.07V8.47A8.47,8.47,0,0,1,8.47,0h1.75c4.35-.15,7.74,3.72,8.4,8.46l.07,2.61C17.76,16.23,14.9,19.54,10.22,19.54Z"/></clipPath><linearGradient id="linear-gradient" x1="-64.6" y1="47.71" x2="-65.01" y2="48.49" gradientTransform="matrix(10.56, 0, 0, -19.54, 695.99, 948.95)" gradientUnits="userSpaceOnUse"><stop offset="0" stop-color="#f28500"/><stop offset="1" stop-color="#fba905"/></linearGradient><linearGradient id="linear-gradient-2" x1="-67.34" y1="48.52" x2="-66.98" y2="47.7" gradientTransform="matrix(16.52, 0, 0, -19.54, 1117.73, 949)" gradientUnits="userSpaceOnUse"><stop offset="0" stop-color="#fbcf0a"/><stop offset="1" stop-color="#fba505"/></linearGradient><linearGradient id="linear-gradient-3" x1="-55.93" y1="46.61" x2="-54.59" y2="44.21" gradientTransform="matrix(4.4, 0, 0, -6.66, 250.98, 311.31)" xlink:href="#linear-gradient-2"/></defs><g class="cls-2"><g id="Group_11746" data-name="Group 11746"><g id="Group_11743" data-name="Group 11743"><path id="Path_13652" data-name="Path 13652" class="cls-3" d="M8.14,0h2.29C15,0,18.69,4.38,18.69,9.77s-3.7,9.77-8.26,9.77H8.14c4.56,0,8.26-4.37,8.26-9.77S12.7,0,8.14,0Z" transform="translate(0 0)"/><path id="Path_13653" data-name="Path 13653" class="cls-4" d="M8,0h2.3c4.56,0,8.26,4.38,8.26,9.77s-3.7,9.77-8.26,9.77H8c4.57,0,8.26-4.37,8.26-9.77S12.6,0,8,0Z" transform="translate(0 0)"/><g id="Group_11741" data-name="Group 11741"><path id="Path_13654" data-name="Path 13654" class="cls-5" d="M16.21,8.4H18.5c0-.05,0-.1,0-.15h-2.3A.77.77,0,0,1,16.21,8.4Z" transform="translate(0 0)"/><path id="Path_13655" data-name="Path 13655" class="cls-5" d="M18.2,6.8H15.9a.75.75,0,0,1,0,.16h2.3A1.24,1.24,0,0,1,18.2,6.8Z" transform="translate(0 0)"/><path id="Path_13656" data-name="Path 13656" class="cls-5" d="M16.29,9.77v.08h2.3V9.7h-2.3Z" transform="translate(0 0)"/><path id="Path_13657" data-name="Path 13657" class="cls-5" d="M18,6.23,18,6.08H15.68l.05.15Z" transform="translate(0 0)"/><path id="Path_13658" data-name="Path 13658" class="cls-5" d="M15.47,5.51h2.29l-.07-.15H15.4A1,1,0,0,0,15.47,5.51Z" transform="translate(0 0)"/><path id="Path_13659" data-name="Path 13659" class="cls-5" d="M18.57,9.13c0-.06,0-.1,0-.16h-2.3a1,1,0,0,0,0,.16Z" transform="translate(0 0)"/><path id="Path_13660" data-name="Path 13660" class="cls-5" d="M15.14,14.76a1.09,1.09,0,0,0-.08.15h2.29l.08-.15Z" transform="translate(0 0)"/><path id="Path_13661" data-name="Path 13661" class="cls-5" d="M17,15.48H14.74c0,.06-.07.1-.1.16h2.3C17,15.59,17,15.54,17,15.48Z" transform="translate(0 0)"/><path id="Path_13662" data-name="Path 13662" class="cls-5" d="M18.5,11.14H16.21a.88.88,0,0,1,0,.16h2.3C18.49,11.25,18.5,11.19,18.5,11.14Z" transform="translate(0 0)"/><path id="Path_13663" data-name="Path 13663" class="cls-5" d="M18.36,12a.8.8,0,0,0,0-.15H16.1l0,.15Z" transform="translate(0 0)"/><path id="Path_13664" data-name="Path 13664" class="cls-5" d="M13.51,17.08H15.8l.15-.15h-2.3Z" transform="translate(0 0)"/><path id="Path_13665" data-name="Path 13665" class="cls-5" d="M18,13.32H15.73l-.05.15H18A.88.88,0,0,0,18,13.32Z" transform="translate(0 0)"/><path id="Path_13666" data-name="Path 13666" class="cls-5" d="M15.94,12.59a.83.83,0,0,1,0,.15h2.3a.83.83,0,0,1,0-.15Z" transform="translate(0 0)"/><path id="Path_13667" data-name="Path 13667" class="cls-5" d="M16.26,10.57h2.3a.76.76,0,0,1,0-.15h-2.3A.76.76,0,0,1,16.26,10.57Z" transform="translate(0 0)"/><path id="Path_13668" data-name="Path 13668" class="cls-5" d="M15.8,2.46H13.51a1.07,1.07,0,0,1,.14.16H16Z" transform="translate(0 0)"/><path id="Path_13669" data-name="Path 13669" class="cls-5" d="M14.13,3.19l.12.15h2.29l-.11-.15Z" transform="translate(0 0)"/><path id="Path_13670" data-name="Path 13670" class="cls-5" d="M12.79.45,12.33.29H10l.47.16Z" transform="translate(0 0)"/><path id="Path_13671" data-name="Path 13671" class="cls-5" d="M17.69,14.19a1,1,0,0,0,.07-.15H15.47a1,1,0,0,0-.07.15Z" transform="translate(0 0)"/><path id="Path_13672" data-name="Path 13672" class="cls-5" d="M15.21,1.89,15,1.74H12.73l.18.15Z" transform="translate(0 0)"/><path id="Path_13673" data-name="Path 13673" class="cls-5" d="M14.64,3.91l.09.15H17l-.09-.15Z" transform="translate(0 0)"/><path id="Path_13674" data-name="Path 13674" class="cls-5" d="M14.24,1.17,14,1H11.7l.25.15Z" transform="translate(0 0)"/><path id="Path_13675" data-name="Path 13675" class="cls-5" d="M12,18.38l-.26.15H14l.25-.15Z" transform="translate(0 0)"/><path id="Path_13676" data-name="Path 13676" class="cls-5" d="M10.49,19.1a4.11,4.11,0,0,1-.46.15h2.29c.16,0,.31-.1.47-.15Z" transform="translate(0 0)"/><path id="Path_13677" data-name="Path 13677" class="cls-5" d="M12.91,17.65l-.18.16H15l.18-.16Z" transform="translate(0 0)"/><path id="Path_13678" data-name="Path 13678" class="cls-5" d="M15.06,4.63a1.19,1.19,0,0,0,.08.16h2.29s-.05-.1-.08-.16Z" transform="translate(0 0)"/><path id="Path_13679" data-name="Path 13679" class="cls-5" d="M16.07,7.53l0,.15h2.29l0-.15Z" transform="translate(0 0)"/><path id="Path_13680" data-name="Path 13680" class="cls-5" d="M14.25,16.21l-.12.15h2.29l.12-.15Z" transform="translate(0 0)"/></g><ellipse id="Ellipse_142" data-name="Ellipse 142" class="cls-6" cx="8.26" cy="9.77" rx="8.26" ry="9.77"/><g id="Group_11742" data-name="Group 11742" class="cls-7"><path id="Path_13681" data-name="Path 13681" class="cls-8" d="M8.26,0A7.34,7.34,0,0,0,3.81,1.54l10.39,15a10.73,10.73,0,0,0,2.32-6.79V9.63L10,.23A7.39,7.39,0,0,0,8.26,0Z" transform="translate(0 0)"/><path id="Path_13682" data-name="Path 13682" class="cls-8" d="M1.34,4.44A11.06,11.06,0,0,0,0,9.1L7.19,19.46a7.59,7.59,0,0,0,1.07.08,7.11,7.11,0,0,0,3-.69Z" transform="translate(0 0)"/></g><path id="Path_13683" data-name="Path 13683" class="cls-9" d="M16.72,9.77C16.72,4.37,13,0,8.46,0h-.1c4.52.07,8.16,4.41,8.16,9.77s-3.64,9.7-8.16,9.77h.1C13,19.54,16.72,15.17,16.72,9.77Z" transform="translate(0 0)"/><path id="Path_13684" data-name="Path 13684" class="cls-9" d="M8.14,2.51C4.75,2.51,2,5.76,2,9.77S4.75,17,8.14,17s6.14-3.26,6.14-7.27S11.53,2.51,8.14,2.51Z" transform="translate(0 0)"/><path id="Path_13685" data-name="Path 13685" class="cls-10" d="M8.26,2.51c-3.39,0-6.14,3.25-6.14,7.26S4.87,17,8.26,17s6.14-3.26,6.14-7.27S11.65,2.51,8.26,2.51Z" transform="translate(0 0)"/><path id="Path_13686" data-name="Path 13686" class="cls-3" d="M11.24,7.48a1.78,1.78,0,0,0-.67-.77,1.86,1.86,0,0,0-1-.27H7.21a.1.1,0,0,0-.09,0,.1.1,0,0,0,0,.1V13a.1.1,0,0,0,0,.1.13.13,0,0,0,.09,0H8.48a.18.18,0,0,0,.09,0,.19.19,0,0,0,0-.1V10.82s0-.05,0-.05h.85a2,2,0,0,0,1-.26,1.77,1.77,0,0,0,.7-.76,2.39,2.39,0,0,0,.25-1.12A2.56,2.56,0,0,0,11.24,7.48ZM9.79,9.16a.64.64,0,0,1-.47.19H8.64s0,0,0,0V8s0,0,0,0h.68a.68.68,0,0,1,.47.19.77.77,0,0,1,0,1Z" transform="translate(0 0)"/><path id="Path_13687" data-name="Path 13687" class="cls-3" d="M2.94,9.77c0-3.85,2.53-7,5.73-7.24l-.41,0c-3.39,0-6.14,3.25-6.14,7.26S4.87,17,8.26,17h.41C5.47,16.77,2.94,13.62,2.94,9.77Z" transform="translate(0 0)"/><path id="Path_13688" data-name="Path 13688" class="cls-9" d="M10.62,7.48A1.78,1.78,0,0,0,10,6.71a1.87,1.87,0,0,0-1-.27H6.58a.09.09,0,0,0-.08,0,.13.13,0,0,0,0,.1V13a.14.14,0,0,0,0,.1.12.12,0,0,0,.08,0H7.86a.18.18,0,0,0,.09,0A.19.19,0,0,0,8,13V10.82s0-.05,0-.05h.85a2,2,0,0,0,1-.26,1.84,1.84,0,0,0,.7-.76,2.39,2.39,0,0,0,.25-1.12A2.56,2.56,0,0,0,10.62,7.48ZM9.17,9.16a.65.65,0,0,1-.48.19H8s0,0,0,0V8S8,8,8,8h.67a.69.69,0,0,1,.48.19.68.68,0,0,1,.18.5.65.65,0,0,1-.18.5Z" transform="translate(0 0)"/><path id="Path_13689" data-name="Path 13689" class="cls-11" d="M10.51,7.48a1.85,1.85,0,0,0-.67-.77,1.87,1.87,0,0,0-1-.27H6.47a.12.12,0,0,0-.09,0,.17.17,0,0,0,0,.1V13a.19.19,0,0,0,0,.1.18.18,0,0,0,.09,0H7.75a.12.12,0,0,0,.08,0,.14.14,0,0,0,0-.1V10.82s0-.05,0-.05h.85a2,2,0,0,0,1-.26,1.84,1.84,0,0,0,.7-.76,2.39,2.39,0,0,0,.25-1.12A2.7,2.7,0,0,0,10.51,7.48ZM9.06,9.16a.66.66,0,0,1-.48.19H7.91a0,0,0,0,1,0,0V8a0,0,0,0,1,0,0h.67a.69.69,0,0,1,.48.19.72.72,0,0,1,.18.5.65.65,0,0,1-.18.5Z" transform="translate(0 0)"/></g></g></g></svg>