<?xml version="1.0" encoding="utf-8"?><svg version="1.1" id="Layer_1" xmlns="http://www.w3.org/2000/svg" xmlns:xlink="http://www.w3.org/1999/xlink" x="0px" y="0px" viewBox="0 0 500 500" style="enable-background:new 0 0 500 500;" xml:space="preserve"><style type="text/css">.st0{fill:#fff;}</style><g><g><path class="st0" d="M119.7,81.9c-5.2-9.9-13.6-31.7-19.9-42.9C89.1,54.5,79.3,68.8,69.4,83.1c-1.8,2.6-1.3,5.4-0.4,8.2c11.2,34.9,22.4,69.7,33.3,104.5c1.6,5,3.6,5.6,8.2,4.3c9.4-2.7,19-4.9,28.5-7.1c2.2-0.5,4.2-1.6,5.8,1.8c4.8,10.9,13.8,14.2,25.2,14.1c22.5-0.3,45,0.2,67.5-0.2c6.3-0.1,9.3,1.4,10.7,8c3.2,15.2,7.3,30.2,11.2,45.2c1.1,3.9,0.7,7.2-1.1,10.9c-12.1,25.3-23.7,50.7-35.7,76c-4.1,8.6-4.3,16.7-0.5,25.5c10.1,23.3,19.7,46.7,29.6,70.1c6,14.3,19,20,31.9,14.4c12.9-5.5,17.2-17.8,11.1-32.3c-7.4-17.9-14.7-35.8-22.7-53.5c-3.4-7.4-3.3-13.4,0.3-20.7c9.5-18.9,18.2-38.4,27.3-57.8c2.4,1.3,3,3,3.6,4.8c8.5,24.2,17,48.3,25.4,72.4c3.6,10.4,10.4,16.7,21.4,17.4c11.2,0.7,19-4.7,24-14.8c12.3-25.2,24.8-50.1,37.2-75.3c1.6-3.2,3.3-6.3,3.7-10c1.2-11.3-4.9-21-15.4-24.6c-11-3.7-22.5,0.5-28.3,10.9c-5.4,9.5-10.5,19.2-16.1,29.7c-1.4-3.4-2.4-5.8-3.2-8.2c-9.8-32.6-16.8-65.7-24.5-98.8c-3.5-15.1-8.6-28.6-20.4-39.2c-4.5-4.1-8.2-9.3-12.4-14c-15.3-17.4-30.7-34.9-46.1-52.2c-9.1-10.1-22.1-11.9-32.2-5c-12.1,8.4-13.3,23.4-3,34.9c11.9,13.2,23.9,26.4,36,39.9c-2.7,2-5,1.3-7,1.3c-20.1,0.1-40.3-0.2-60.4,0.2c-5.6,0.1-7.7-1.5-9-7.1c-6.3-27.7-13.3-57.6-19.9-85.4L119.7,81.9z"/><path class="st0" d="M325,150.8c-23.8,0-43.2-18.6-43.4-41.6c-0.2-23.3,19.2-42.4,43.3-42.6c24-0.2,43.8,18.8,43.8,42.1C368.6,132.2,349.4,150.8,325,150.8z"/></g></g></svg>