<?xml version="1.0" encoding="UTF-8"?><svg id="a" xmlns="http://www.w3.org/2000/svg" width="306.95" height="47.47" xmlns:xlink="http://www.w3.org/1999/xlink" viewBox="0 0 306.95 47.47"><defs><linearGradient id="b" x1="27.59" y1="32.09" x2="99.01" y2="106.06" gradientTransform="matrix(1, 0, 0, 1, 0, 0)" gradientUnits="userSpaceOnUse"><stop offset="0" stop-color="#00e09a" stop-opacity="0"/><stop offset=".83" stop-color="#00a69a"/></linearGradient><linearGradient id="c" x1="44.91" y1="4.22" x2="43.47" y2="47.57" gradientTransform="matrix(1, 0, 0, 1, 0, 0)" gradientUnits="userSpaceOnUse"><stop offset="0" stop-color="#00e09a"/><stop offset="1" stop-color="#00a69a"/></linearGradient><linearGradient id="d" x1="8.8" y1="32.8" x2="33.5" y2="32.8" xlink:href="#c"/><linearGradient id="e" x1="21.97" y1="9.75" x2="32.18" y2="9.75" gradientTransform="matrix(1, 0, 0, 1, 0, 0)" gradientUnits="userSpaceOnUse"><stop offset="0" stop-color="#ff7100"/><stop offset="1" stop-color="#fab41c"/></linearGradient><linearGradient id="f" y1="9.31" x2="36.39" y2="9.31" xlink:href="#e"/><linearGradient id="g" y1="9.49" x2="40.5" y2="9.49" xlink:href="#e"/></defs><g><g><path d="M77.28,.79c1.57,0,2.55,.68,2.55,1.79,0,.78-.47,1.38-1.24,1.57,.92,.17,1.49,.87,1.49,1.81,0,1.22-1.03,1.98-2.7,1.98h-3.4V.79h3.29Zm-1.67,2.88h1.59c.6,0,.98-.3,.98-.8s-.38-.77-.98-.77h-1.59v1.56Zm0,2.95h1.59c.77,0,1.23-.32,1.23-.87,0-.52-.46-.84-1.23-.84h-1.59v1.7Z" fill="#1d1843"/><path d="M86.29,5.67h-3.94c.18,.69,.71,1.1,1.42,1.1,.52,0,1.01-.2,1.39-.58l.83,.84c-.55,.61-1.36,.97-2.35,.97-1.76,0-2.87-1.12-2.87-2.79s1.15-2.82,2.83-2.82c1.93,0,2.83,1.28,2.7,3.28Zm-1.47-.93c-.02-.72-.49-1.19-1.22-1.19s-1.16,.47-1.29,1.19h2.5Z" fill="#1d1843"/><path d="M92.04,6.52v1.41h-4.68V.79h1.61V6.52h3.06Z" fill="#1d1843"/><path d="M94.61,.88c0,.51-.35,.88-.85,.88s-.85-.37-.85-.88,.35-.88,.85-.88,.85,.37,.85,.88Zm-1.63,7.05V2.44h1.57V7.93h-1.57Z" fill="#1d1843"/><path d="M102,5.22c0,1.66-1.01,2.78-2.55,2.78-.77,0-1.37-.31-1.77-.86v.8h-1.57V.36h1.57V3.25c.39-.55,.99-.86,1.74-.86,1.54,0,2.58,1.13,2.58,2.83Zm-1.59-.05c0-.88-.55-1.51-1.36-1.51s-1.37,.62-1.37,1.51,.56,1.52,1.37,1.52,1.36-.62,1.36-1.52Z" fill="#1d1843"/></g><polygon points="36.5 46.78 0 31.46 39.21 16.19 36.5 46.78" fill="url(#b)" opacity=".9"/><polygon points="64.16 29.76 42.75 46.4 24.3 19.93 45.71 3.29 64.16 29.76" fill="url(#c)" opacity=".9"/><path d="M24.3,19.93s-1.94,1.07-3.85,.5c-1.91-.57-1.2-2.3-1.2-2.3l-1.21,1.23,18.46,27.42s2.51,1.78,6.24-.38L24.3,19.93Z" fill="url(#d)"/><path d="M20.88,21.22c-.4,0-.81-.05-1.2-.16-2.04-.59-2.3-2.53-1.98-3.7,.02-.09,.06-.17,.1-.24L26.37,1.44c.3-.55,.99-.76,1.55-.45,.55,.3,.75,.99,.45,1.55l-8.5,15.54c-.11,.64,.3,.76,.44,.8,.96,.28,2.49-.33,3.06-.61L44.06,2.46c.5-.38,1.21-.28,1.6,.21,.38,.5,.29,1.22-.21,1.6l-20.77,15.87s-.1,.07-.15,.1c-.22,.12-1.91,.99-3.64,.99Z" fill="#00a69a"/><rect x="32.17" y="19.87" width="24.11" height="11.45" rx="1.36" ry="1.36" transform="translate(-6.64 30.48) rotate(-35.54)" fill="#fff"/><g><polygon points="21.97 17.41 30.4 2.09 32.18 3.5 21.97 17.41" fill="url(#e)"/><polygon points="21.97 17.41 34.9 1.21 36.39 2.65 21.97 17.41" fill="url(#f)"/><polygon points="21.97 17.41 39.06 1.57 40.5 3.5 21.97 17.41" fill="url(#g)"/></g><g><path d="M36.39,28.09c1.18-.81,2.54-.6,3.32,.53,.77,1.12,.48,2.48-.73,3.31l-1.59,1.09-2.63-3.82,1.62-1.11Zm1.37,3.61l.78-.54c.64-.44,.78-1.24,.3-1.94-.48-.7-1.31-.85-1.96-.4l-.74,.51,1.63,2.37Z" fill="#00a69a"/><path d="M40.32,26.44l.57,.83,1.84-1.27,.49,.71-1.84,1.27,.58,.84,2.11-1.45,.49,.71-2.97,2.04-2.63-3.82,2.91-2,.49,.71-2.05,1.41Z" fill="#00a69a"/><path d="M48.62,25.31l-1.77-2.58,.49,2.89-.56,.38-2.52-1.49,1.77,2.58-.78,.54-2.62-3.82,.97-.66,2.72,1.57-.5-3.1,.96-.66,2.63,3.82-.78,.53Z" fill="#00a69a"/><path d="M52.76,19.65c.76,1.1,.46,2.56-.71,3.36-1.17,.8-2.63,.57-3.39-.54-.76-1.11-.45-2.55,.72-3.35,1.17-.8,2.62-.58,3.38,.53Zm-3.22,2.21c.46,.67,1.36,.83,2,.38,.64-.44,.8-1.32,.34-1.99-.46-.67-1.33-.83-1.97-.39-.64,.44-.83,1.32-.36,1.99Z" fill="#00a69a"/></g></g><g><path d="M81.16,19.05v6.54h14.53v5.63h-14.53v6.67h16.6v5.63h-23.39V13.41h22.92v5.63h-16.12Z" fill="#00a69a"/><path d="M102.23,32.55v-4.39h11.09v4.39h-11.09Z" fill="#00a69a"/><path d="M138.78,37.58v5.93h-19.69V13.41h6.79v24.17h12.9Z" fill="#00a69a"/><path d="M142.82,43.51V13.41h6.79v30.1h-6.79Z" fill="#00a69a"/><path d="M170.12,13.41c6.62,0,10.75,2.88,10.75,7.53,0,3.27-1.98,5.8-5.2,6.62,3.87,.73,6.28,3.66,6.28,7.61,0,5.16-4.34,8.34-11.35,8.34h-14.32V13.41h13.85Zm-7.05,12.13h6.71c2.54,0,4.13-1.25,4.13-3.35s-1.59-3.23-4.13-3.23h-6.71v6.58Zm0,12.43h6.71c3.23,0,5.16-1.33,5.16-3.66,0-2.19-1.93-3.53-5.16-3.53h-6.71v7.18Z" fill="#00a69a"/><path d="M200.61,34.91h-6.92v8.6h-6.79V13.41h13.07c7.87,0,12.34,3.78,12.34,10.45,0,4.64-1.98,8-5.63,9.72l6.41,9.93h-7.7l-4.77-8.6Zm-.64-5.68c3.74,0,5.89-1.72,5.89-5.16s-2.15-5.03-5.89-5.03h-6.28v10.19h6.28Z" fill="#00a69a"/><path d="M223.96,37.67l-2.37,5.85h-7.01l13.07-30.1h7.01l12.86,30.1h-7.27l-2.37-5.85h-13.93Zm7.01-17.16l-4.77,11.7h9.5l-4.73-11.7Z" fill="#00a69a"/><path d="M264.38,34.91h-6.92v8.6h-6.79V13.41h13.07c7.87,0,12.34,3.78,12.34,10.45,0,4.64-1.98,8-5.63,9.72l6.41,9.93h-7.7l-4.77-8.6Zm-.64-5.68c3.74,0,5.89-1.72,5.89-5.16s-2.15-5.03-5.89-5.03h-6.28v10.19h6.28Z" fill="#00a69a"/><path d="M295.98,43.51h-6.79v-9.55l-11.14-20.55h6.84l7.7,13.5,7.53-13.5h6.84l-10.96,20.38v9.72Z" fill="#00a69a"/></g></svg>