<?xml version="1.0" encoding="UTF-8"?><svg id="a" xmlns="http://www.w3.org/2000/svg" width="247.21" height="101.1" xmlns:xlink="http://www.w3.org/1999/xlink" viewBox="0 0 247.21 101.1"><defs><linearGradient id="c" x1="197.09" y1="110.34" x2="191.85" y2="61.72" gradientTransform="matrix(1, 0, 0, 1, 0, 0)" gradientUnits="userSpaceOnUse"><stop offset="0" stop-color="#ff7100"/><stop offset="1" stop-color="#fab41c"/></linearGradient><linearGradient id="d" x1="195.59" y1="110.5" x2="190.35" y2="61.88" xlink:href="#c"/><linearGradient id="e" x1="198.44" y1="110.2" x2="193.2" y2="61.58" xlink:href="#c"/><linearGradient id="f" x1="192.31" y1="110.86" x2="187.08" y2="62.24" xlink:href="#c"/><linearGradient id="g" x1="204.26" y1="109.57" x2="199.02" y2="60.95" xlink:href="#c"/><linearGradient id="h" x1="187.39" y1="111.39" x2="182.15" y2="62.77" xlink:href="#c"/><linearGradient id="i" x1="208.23" y1="109.14" x2="202.99" y2="60.52" xlink:href="#c"/><linearGradient id="j" x1="185.94" y1="111.54" x2="180.7" y2="62.92" xlink:href="#c"/><linearGradient id="k" x1="207.08" y1="109.27" x2="201.85" y2="60.65" xlink:href="#c"/><linearGradient id="l" x1="184.97" y1="111.65" x2="179.74" y2="63.03" xlink:href="#c"/><linearGradient id="m" x1="210.32" y1="108.92" x2="205.09" y2="60.3" xlink:href="#c"/><linearGradient id="n" x1="211.09" y1="108.84" x2="205.85" y2="60.22" xlink:href="#c"/><linearGradient id="o" x1="211.45" y1="108.8" x2="206.22" y2="60.18" xlink:href="#c"/><linearGradient id="p" x1="194.31" y1="110.64" x2="189.07" y2="62.02" xlink:href="#c"/><linearGradient id="q" x1="197.37" y1="110.31" x2="192.14" y2="61.69" xlink:href="#c"/><linearGradient id="r" x1="199.5" y1="110.08" x2="194.26" y2="61.46" xlink:href="#c"/><linearGradient id="s" x1="210.34" y1="108.92" x2="205.1" y2="60.3" xlink:href="#c"/><linearGradient id="t" x1="210.68" y1="108.88" x2="205.44" y2="60.26" xlink:href="#c"/><linearGradient id="u" x1="210" y1="108.95" x2="204.76" y2="60.33" xlink:href="#c"/><linearGradient id="v" x1="209.17" y1="109.04" x2="203.94" y2="60.42" xlink:href="#c"/><linearGradient id="w" x1="11.44" y1="87.17" x2="49.13" y2="126.21" gradientTransform="matrix(1, 0, 0, 1, 0, 0)" gradientUnits="userSpaceOnUse"><stop offset="0" stop-color="#00e09a" stop-opacity="0"/><stop offset=".83" stop-color="#00a69a"/></linearGradient><linearGradient id="x" x1="23.7" y1="75.69" x2="22.95" y2="98.57" gradientTransform="matrix(1, 0, 0, 1, 0, 0)" gradientUnits="userSpaceOnUse"><stop offset="0" stop-color="#00e09a"/><stop offset="1" stop-color="#00a69a"/></linearGradient><linearGradient id="y" x1="4.64" y1="90.77" x2="17.68" y2="90.77" xlink:href="#x"/><linearGradient id="z" x1="11.6" y1="78.61" x2="16.99" y2="78.61" gradientTransform="matrix(1, 0, 0, 1, 0, 0)" gradientUnits="userSpaceOnUse"><stop offset="0" stop-color="#ff7100"/><stop offset="1" stop-color="#fab41c"/></linearGradient><linearGradient id="aa" y1="78.38" x2="19.21" y2="78.38" xlink:href="#z"/><linearGradient id="ab" y1="78.47" x2="21.37" y2="78.47" xlink:href="#z"/></defs><rect x="33.57" y="0" width="181.71" height="59.52" fill="#00a69a"/><rect id="b" x="171.05" y="70.12" width="1.41" height="30.99" fill="#d0eeec"/><g><path d="M60.56,12.13c11.44,0,19.41,7.54,19.41,18.46s-8.07,18.46-19.72,18.46h-15.35V12.13h15.66Zm-7.33,29.9h7.54c6.17,0,10.71-4.64,10.71-11.39s-4.75-11.5-11.07-11.5h-7.17v22.89Z" fill="#fff"/><path d="M93.79,19.04v8.02h17.82v6.91h-17.82v8.17h20.36v6.91h-28.69V12.13h28.11v6.91h-19.78Z" fill="#fff"/><path d="M153.27,49.04V24.15l-9.81,21.15h-5.43l-9.81-21.15v24.89h-7.54V12.13h9.33l10.76,22.57,10.71-22.57h9.28V49.04h-7.49Z" fill="#fff"/><path d="M205.96,30.58c0,10.65-8.54,18.83-19.83,18.83s-19.83-8.12-19.83-18.83,8.54-18.72,19.83-18.72,19.83,8.02,19.83,18.72Zm-31.11,0c0,6.49,5.22,11.55,11.39,11.55s11.18-5.06,11.18-11.55-5.01-11.44-11.18-11.44-11.39,4.96-11.39,11.44Z" fill="#fff"/></g><g><g><path d="M247.21,80.69c0-.56-.22-.65-.7-.63-1.04,.03-2.08,.03-3.12,0-.47-.02-.77,.15-1.06,.51-1.37,1.71-2.79,3.38-4.14,5.11-.38,.49-.56,.42-.91-.01-1.34-1.7-2.73-3.36-4.08-5.05-.3-.38-.63-.57-1.13-.55-.98,.04-1.97,.06-2.95,0-.7-.05-.82,.22-.82,.85,.03,4.55,.01,9.11,.01,13.66,0,1.85,0,1.86,1.89,1.84,.92,0,2.15,.39,2.68-.14,.58-.58,.16-1.81,.17-2.75,.02-2.09,0-4.18,0-6.33,.4,.16,.53,.45,.72,.68,1.1,1.35,2.22,2.69,3.28,4.07,.49,.64,.79,.59,1.26-.02,1.23-1.6,2.53-3.15,3.8-4.73l.18,.05c0,.27,0,.54,0,.81,0,2.56,.01,5.12-.01,7.67,0,.54,.13,.73,.7,.71,1.18-.04,2.36-.03,3.54,0,.48,.01,.69-.08,.69-.63-.02-5.03-.02-10.06,0-15.09Z" fill="#00a69a"/><path d="M224.7,81.3c.67-1.16,.6-1.26-.77-1.27-1.1,0-2.2,.04-3.29-.01-.6-.03-.91,.21-1.19,.71-1.2,2.13-2.44,4.23-3.68,6.34-.12,.2-.15,.48-.47,.56-.01-.16-.03-.29-.03-.43,0-2.08-.02-4.16,0-6.24,0-.69-.23-.97-.94-.93-.93,.04-1.86,.04-2.78,0-.7-.03-1.03,.24-.92,.93,.14,.87-.2,1.19-1.05,1.04-.14-.02-.28,0-.42,0-.35,0-.74,0-.75,.47,0,.47,.39,.47,.74,.47,1.1,0,2.19,0,3.29,0,.36,0,.74,.03,.75,.48,.01,.45-.36,.5-.72,.5-.84,0-1.69,0-2.53,0-.32,0-.56,.12-.57,.47-.01,.36,.23,.49,.54,.51,.37,.01,.73,0,1.1,0,.3,0,.59,.06,.61,.43,.02,.43-.3,.48-.63,.49-.34,0-.67,0-1.01,0-.35,0-.72,.02-.73,.49,0,.49,.37,.48,.72,.48,1.15,0,2.31,0,3.46,0,.38,0,.81,0,.8,.5-.01,.5-.46,.47-.83,.47-.67,0-1.35,0-2.02,0-.34,0-.67,.05-.69,.44-.03,.45,.33,.53,.7,.54,.51,0,1.01,0,1.52,0,.29,0,.59,.04,.61,.42,.02,.42-.28,.5-.62,.5-.73,0-1.46,0-2.19,0-.38,0-.79,0-.78,.53,.01,.47,.4,.47,.74,.47,.65,0,1.29,0,1.94,0,.29,0,.5,.14,.52,.44,.02,.3-.19,.46-.47,.5-.28,.04-.56,.02-.84,.03-.32,0-.57,.12-.56,.48,0,.36,.27,.45,.58,.46,.45,0,.9,0,1.35,0,.36,0,.81-.05,.83,.48,.02,.54-.43,.49-.8,.49-1.18,0-2.36,0-3.54,0-.35,0-.73-.02-.75,.46-.02,.47,.33,.58,.69,.52,.94-.16,1.16,.28,1.05,1.11-.07,.56,.18,.82,.78,.8,.9-.03,1.8,0,2.7,0q1.16,0,1.16-1.18c0-2.15,0-4.31,0-6.46l.18-.02c1.34,2.34,2.69,4.66,4.01,7.01,.27,.48,.57,.68,1.12,.66,1.24-.04,2.47,0,3.71-.01,.9,0,1-.18,.54-.98-1.26-2.22-2.52-4.44-3.82-6.65-.24-.42-.24-.72,0-1.13,1.24-2.1,2.45-4.22,3.67-6.34Z" fill="#00a69a"/></g><g><path d="M192.6,75.21c-4.04,.84-6.87,4.14-6.89,8.32-.02,3.45,1.59,6.06,4.64,7.75,.45,.25,.63,.2,.62-.37-.03-1.18-.02-2.36,0-3.54,0-.37-.12-.6-.41-.85-.73-.64-.74-1.62-.09-2.31,.63-.67,1.61-.67,2.24,0,.67,.7,.66,1.68-.09,2.3-.33,.28-.4,.55-.4,.93,0,2.64,0,5.28,0,7.92,0,.5,.01,1.03,.68,1.04,.69,0,.66-.55,.66-1.04,0-2.05,0-4.1,0-6.15,0-2.02,0-4.05,0-6.07,0-.41-.06-.71-.41-1.01-.7-.6-.69-1.61-.08-2.25,.64-.67,1.6-.69,2.25-.05,.63,.62,.66,1.64,0,2.26-.36,.33-.44,.66-.44,1.1,0,4.05,0,8.09,0,12.14,0,.2,0,.39,.02,.59,.04,.33,.26,.49,.58,.51,.31,.02,.57-.11,.64-.43,.06-.27,.09-.55,.09-.83,0-2.5,0-5,0-7.5,0-.49-.05-.87-.5-1.23-.69-.55-.63-1.58,.02-2.25,.59-.6,1.5-.63,2.12-.07,.65,.59,.84,1.67,.2,2.17-.67,.52-.6,1.13-.6,1.78,0,.93,.03,1.86,0,2.78-.02,.57,.1,.69,.64,.42,3.66-1.79,5.52-6.4,4.18-10.42-1.34-4.01-5.6-6.5-9.68-5.65Z" fill="url(#c)"/><path d="M195.65,97.29c-.58-.2-1.03-.94-1.78-.57-.41,.2-.82,.41-1.26,.62l1.6,2.74c.43-.73,.82-1.33,1.15-1.96,.14-.27,.56-.73,.3-.82Z" fill="url(#d)"/><path d="M194.26,72.26c.83-.03,.55-.81,.63-1.33-.06-.51,.17-1.29-.63-1.32-.91-.04-.68,.78-.68,1.33,0,.54-.24,1.35,.68,1.33Z" fill="url(#e)"/><path d="M188.91,73.88c.22-.12,.32-.34,.27-.57-.16-.66-.53-1.22-.96-1.74-.16-.18-.4-.19-.62-.08-.25,.12-.36,.34-.36,.68,.24,.56,.53,1.17,.98,1.67,.18,.2,.46,.17,.7,.04Z" fill="url(#f)"/><path d="M199.61,73.88c.2,.13,.47,.16,.64,0,.52-.49,.76-1.16,1.05-1.71,0-.36-.14-.55-.39-.68-.22-.11-.46-.1-.62,.08-.43,.49-.73,1.06-.97,1.66-.1,.26,.06,.49,.29,.64Z" fill="url(#g)"/><path d="M184.68,76.95c-.44-.24-.89-.48-1.34-.69-.38-.18-.66-.03-.83,.31-.17,.33-.04,.62,.25,.79,.46,.27,.92,.54,1.42,.72,.47,.18,.73-.11,.8-.5,.01-.32-.09-.52-.3-.64Z" fill="url(#h)"/><path d="M204.22,78.12c.6-.22,1.2-.48,1.69-.9,.21-.18,.2-.46,.08-.7-.11-.21-.3-.32-.6-.35-.59,.27-1.26,.49-1.76,.99-.17,.17-.15,.42-.03,.63,.14,.23,.36,.42,.62,.32Z" fill="url(#i)"/><path d="M184.07,88.4c-.58,.19-1.14,.49-1.58,.92-.35,.34-.24,.74,.18,.97,.47,.26,2.11-.72,2.14-1.3-.04-.41-.27-.74-.75-.59Z" fill="url(#j)"/><path d="M204.32,88.37c-.24-.07-.48,.12-.59,.38-.1,.26-.08,.53,.16,.68,.49,.32,.98,.66,1.52,.87,.44,.17,.74-.1,.81-.61-.03-.08-.04-.21-.11-.28-.51-.49-1.11-.84-1.78-1.04Z" fill="url(#k)"/><path d="M183.27,83.35c0-.46-.27-.64-.69-.64-.39,0-.78,0-1.17,0-.43,0-.81,.11-.83,.61-.01,.56,.41,.65,.87,.64,.14,0,.28,0,.42,0h0c.25,0,.5,0,.75,0,.38-.01,.65-.18,.65-.6Z" fill="url(#l)"/><path d="M207.7,84.89c.44-.04,1.13,.19,1.15-.48,.02-.79-.74-.4-1.1-.51-.18,0-.29,0-.4,0-.36,0-.8-.07-.82,.46-.02,.58,.45,.52,.84,.53,.11,0,.22,0,.33,0Z" fill="url(#m)"/><path d="M207.73,88.22c-.01,.41,.3,.5,.62,.52,.31,.02,.61,.01,.92,0,.35-.01,.74-.05,.74-.49,0-.51-.41-.5-.79-.5-.11,0-.22,0-.33,0-.17,0-.33,0-.5,0-.33,0-.64,.05-.66,.46Z" fill="url(#n)"/><path d="M210.13,91.62c-.36,0-.72,0-1.09,0-.29,.01-.49,.15-.48,.46,0,.31,.21,.44,.49,.45,.19,.01,.39,0,.58,0h0c.17,0,.33,0,.5,0,.3,0,.59-.07,.61-.43,.02-.41-.28-.5-.62-.5Z" fill="url(#o)"/><path d="M191.58,84.63c-.38,0-.65,.25-.66,.63-.01,.41,.22,.68,.65,.7,.41-.01,.64-.22,.65-.62,.01-.43-.23-.71-.65-.71Z" fill="url(#p)"/><path d="M194.88,80.96c-.01-.38-.26-.62-.66-.62-.4,0-.64,.21-.67,.6-.03,.45,.24,.65,.65,.73,.41-.06,.69-.29,.67-.71Z" fill="url(#q)"/><path d="M196.8,84.64c-.38,.02-.62,.28-.62,.66,0,.43,.25,.67,.69,.66,.4-.01,.59-.25,.61-.67-.03-.41-.26-.67-.68-.65Z" fill="url(#r)"/><path d="M208.58,86.28c-.01-.41-.34-.48-.66-.48-.36,0-.71,.07-.7,.53,0,.41,.33,.46,.66,.46,.36,0,.71-.03,.69-.51Z" fill="url(#s)"/><path d="M209.35,90.15c0-.42-.35-.51-.71-.51-.34,0-.65,.11-.67,.47-.02,.42,.29,.55,.73,.54,.32,.03,.66-.09,.66-.5Z" fill="url(#t)"/><path d="M207.09,82.93c.39,0,.76-.03,.75-.49-.01-.4-.35-.45-.68-.44-.35,0-.73,.02-.71,.49,.02,.39,.34,.46,.64,.45Z" fill="url(#u)"/><path d="M207.36,91.62c-.35,0-.71,.02-.7,.49,.01,.41,.34,.45,.67,.44,.35,0,.72-.03,.7-.49-.01-.4-.35-.44-.68-.44Z" fill="url(#v)"/></g><g><path d="M212.26,73.54c.87,0,1.41,.38,1.41,.99,0,.43-.26,.76-.68,.87,.51,.1,.83,.48,.83,1,0,.68-.57,1.1-1.49,1.1h-1.88v-3.96h1.82Zm-.93,1.6h.88c.33,0,.54-.16,.54-.44s-.21-.42-.54-.42h-.88v.87Zm0,1.64h.88c.42,0,.68-.18,.68-.48,0-.29-.25-.46-.68-.46h-.88v.94Z" fill="#1d1843"/><path d="M217.25,76.24h-2.19c.1,.39,.4,.61,.79,.61,.29,0,.56-.11,.77-.32l.46,.46c-.31,.34-.75,.54-1.3,.54-.97,0-1.59-.62-1.59-1.54s.64-1.56,1.57-1.56c1.07,0,1.57,.71,1.49,1.82Zm-.81-.51c-.01-.4-.27-.66-.67-.66s-.64,.26-.71,.66h1.39Z" fill="#1d1843"/><path d="M220.44,76.72v.78h-2.59v-3.96h.89v3.18h1.7Z" fill="#1d1843"/><path d="M221.86,73.59c0,.28-.19,.49-.47,.49s-.47-.2-.47-.49,.19-.49,.47-.49,.47,.2,.47,.49Zm-.91,3.91v-3.04h.87v3.04h-.87Z" fill="#1d1843"/><path d="M225.96,75.99c0,.92-.56,1.54-1.42,1.54-.42,0-.76-.17-.98-.48v.44h-.87v-4.2h.87v1.6c.21-.31,.55-.48,.96-.48,.85,0,1.43,.63,1.43,1.57Zm-.88-.03c0-.49-.31-.84-.75-.84s-.76,.35-.76,.84,.31,.84,.76,.84,.75-.34,.75-.84Z" fill="#1d1843"/></g><g><path d="M211.03,98.35c.57,0,.96,.37,.96,.91s-.4,.91-.98,.91h-.76v-1.83h.77Zm-.36,1.48h.37c.31,0,.53-.23,.53-.56s-.23-.57-.55-.57h-.35v1.13Z" fill="#00a69a"/><path d="M212.81,98.37c0,.13-.09,.22-.22,.22s-.22-.09-.22-.22,.09-.22,.22-.22,.22,.09,.22,.22Zm-.42,1.8v-1.4h.4v1.4h-.4Z" fill="#00a69a"/><path d="M214.63,100.04c0,.4-.3,.65-.75,.65-.24,0-.45-.08-.61-.18l.15-.28c.13,.09,.28,.14,.44,.14,.23,0,.38-.12,.38-.31v-.16c-.09,.13-.24,.2-.42,.2-.36,0-.61-.27-.61-.68s.25-.67,.6-.67c.19,0,.34,.07,.43,.2v-.19h.4v1.27Zm-.4-.61c0-.22-.13-.37-.33-.37s-.33,.15-.33,.37c0,.21,.13,.36,.33,.36s.33-.15,.33-.36Z" fill="#00a69a"/><path d="M215.55,98.37c0,.13-.09,.22-.22,.22s-.22-.09-.22-.22,.09-.22,.22-.22,.22,.09,.22,.22Zm-.42,1.8v-1.4h.4v1.4h-.4Z" fill="#00a69a"/><path d="M216.92,100.1c-.1,.06-.23,.1-.37,.1-.25,0-.44-.14-.44-.43v-.65h-.2v-.28h.2v-.39h.4v.39h.38v.28h-.38v.58c0,.12,.05,.16,.14,.16,.05,0,.11-.02,.19-.05l.08,.29Z" fill="#00a69a"/><path d="M218.11,100.01c-.09,.12-.25,.18-.44,.18-.3,0-.48-.18-.48-.44s.19-.42,.54-.42h.39v-.03c0-.15-.1-.23-.29-.23-.12,0-.27,.04-.42,.12l-.12-.28c.21-.1,.39-.16,.63-.16,.38,0,.59,.19,.59,.5v.92h-.39v-.16Zm0-.32v-.12h-.32c-.15,0-.23,.05-.23,.16s.08,.18,.22,.18c.17,0,.3-.09,.33-.21Z" fill="#00a69a"/><path d="M219,100.18v-1.94h.4v1.94h-.4Z" fill="#00a69a"/><path d="M221.38,99.43l-.26,.29v.45h-.41v-1.83h.41v.83l.76-.83h.48l-.69,.76,.73,1.06h-.5l-.52-.74Z" fill="#00a69a"/><path d="M224.16,99.29v.88h-.4v-.76c0-.18-.1-.29-.28-.29-.2,0-.32,.15-.32,.36v.69h-.4v-1.4h.4v.25c.1-.17,.27-.26,.49-.26,.31,0,.51,.21,.51,.54Z" fill="#00a69a"/><path d="M226.02,99.47c0,.43-.3,.72-.75,.72s-.75-.29-.75-.72,.3-.71,.75-.71,.75,.28,.75,.71Zm-1.1,0c0,.23,.14,.39,.35,.39s.35-.16,.35-.39-.14-.39-.35-.39-.35,.16-.35,.39Z" fill="#00a69a"/><path d="M227.7,100.18l-.3-.93-.3,.93h-.4l-.51-1.4h.41l.31,1,.3-1h.39l.31,1,.31-1h.4l-.51,1.4h-.4Z" fill="#00a69a"/><path d="M228.94,100.18v-1.94h.4v1.94h-.4Z" fill="#00a69a"/><path d="M231.16,99.6h-1.01c.05,.18,.18,.28,.36,.28,.13,0,.26-.05,.36-.15l.21,.21c-.14,.16-.35,.25-.6,.25-.45,0-.73-.29-.73-.71s.29-.72,.72-.72c.49,0,.72,.33,.69,.84Zm-.38-.24c0-.19-.13-.31-.31-.31s-.3,.12-.33,.31h.64Z" fill="#00a69a"/><path d="M232.95,100.18h-.4v-.21c-.1,.14-.25,.22-.44,.22-.4,0-.66-.29-.66-.72s.26-.71,.65-.71c.2,0,.35,.08,.45,.22v-.74h.4v1.94Zm-.4-.7c0-.23-.14-.39-.35-.39s-.35,.16-.36,.39c0,.23,.14,.39,.36,.39s.35-.16,.35-.39Z" fill="#00a69a"/><path d="M234.8,100.04c0,.4-.3,.65-.75,.65-.24,0-.45-.08-.61-.18l.15-.28c.13,.09,.28,.14,.44,.14,.23,0,.38-.12,.38-.31v-.16c-.09,.13-.24,.2-.42,.2-.36,0-.61-.27-.61-.68s.25-.67,.6-.67c.19,0,.34,.07,.43,.2v-.19h.4v1.27Zm-.4-.61c0-.22-.13-.37-.33-.37s-.33,.15-.33,.37c0,.21,.13,.36,.33,.36s.33-.15,.33-.36Z" fill="#00a69a"/><path d="M236.6,99.6h-1.01c.05,.18,.18,.28,.36,.28,.13,0,.26-.05,.36-.15l.21,.21c-.14,.16-.35,.25-.6,.25-.45,0-.73-.29-.73-.71s.29-.72,.72-.72c.49,0,.72,.33,.69,.84Zm-.38-.24c0-.19-.13-.31-.31-.31s-.3,.12-.33,.31h.64Z" fill="#00a69a"/><path d="M239.33,98.64l-.24,.29c-.12-.14-.3-.24-.47-.24-.31,0-.56,.24-.56,.56s.24,.56,.56,.56c.16,0,.34-.08,.47-.21l.24,.26c-.19,.2-.47,.33-.74,.33-.55,0-.96-.4-.96-.93s.42-.92,.97-.92c.26,0,.54,.12,.72,.3Z" fill="#00a69a"/><path d="M240.96,99.6h-1.01c.05,.18,.18,.28,.36,.28,.13,0,.26-.05,.36-.15l.21,.21c-.14,.16-.35,.25-.6,.25-.45,0-.73-.29-.73-.71s.29-.72,.72-.72c.49,0,.72,.33,.69,.84Zm-.38-.24c0-.19-.13-.31-.31-.31s-.3,.12-.33,.31h.64Z" fill="#00a69a"/><path d="M242.76,99.29v.88h-.4v-.76c0-.18-.1-.29-.28-.29-.2,0-.32,.15-.32,.36v.69h-.4v-1.4h.4v.25c.1-.17,.27-.26,.49-.26,.31,0,.51,.21,.51,.54Z" fill="#00a69a"/><path d="M244.11,100.1c-.1,.06-.23,.1-.37,.1-.25,0-.44-.14-.44-.43v-.65h-.2v-.28h.2v-.39h.4v.39h.38v.28h-.38v.58c0,.12,.05,.16,.14,.16,.05,0,.11-.02,.19-.05l.08,.29Z" fill="#00a69a"/><path d="M245.77,99.6h-1.01c.05,.18,.18,.28,.36,.28,.13,0,.26-.05,.36-.15l.21,.21c-.14,.16-.35,.25-.6,.25-.45,0-.73-.29-.73-.71s.29-.72,.72-.72c.49,0,.72,.33,.69,.84Zm-.38-.24c0-.19-.13-.31-.31-.31s-.3,.12-.33,.31h.64Z" fill="#00a69a"/><path d="M246.58,99.02c.1-.17,.26-.27,.46-.27v.38c-.29-.03-.46,.13-.46,.37v.68h-.4v-1.4h.4v.25Z" fill="#00a69a"/></g></g><g><g><g><path d="M40.79,73.88c.83,0,1.35,.36,1.35,.94,0,.41-.25,.73-.65,.83,.48,.09,.79,.46,.79,.95,0,.65-.54,1.05-1.42,1.05h-1.79v-3.77h1.73Zm-.88,1.52h.84c.32,0,.52-.16,.52-.42s-.2-.4-.52-.4h-.84v.82Zm0,1.56h.84c.4,0,.65-.17,.65-.46,0-.28-.24-.44-.65-.44h-.84v.9Z" fill="#1d1843"/><path d="M45.54,76.45h-2.08c.1,.37,.38,.58,.75,.58,.28,0,.53-.11,.73-.31l.44,.44c-.29,.32-.72,.51-1.24,.51-.93,0-1.51-.59-1.51-1.47s.61-1.49,1.49-1.49c1.02,0,1.49,.67,1.42,1.73Zm-.78-.49c-.01-.38-.26-.63-.64-.63s-.61,.25-.68,.63h1.32Z" fill="#1d1843"/><path d="M48.58,76.91v.74h-2.47v-3.77h.85v3.03h1.62Z" fill="#1d1843"/><path d="M49.93,73.93c0,.27-.18,.46-.45,.46s-.45-.19-.45-.46,.18-.46,.45-.46,.45,.19,.45,.46Zm-.86,3.72v-2.9h.83v2.9h-.83Z" fill="#1d1843"/><path d="M53.83,76.22c0,.88-.53,1.47-1.35,1.47-.4,0-.72-.16-.93-.45v.42h-.83v-4h.83v1.52c.2-.29,.52-.45,.92-.45,.81,0,1.36,.6,1.36,1.49Zm-.84-.03c0-.46-.29-.8-.72-.8s-.72,.33-.72,.8,.3,.8,.72,.8,.72-.33,.72-.8Z" fill="#1d1843"/></g><g><path d="M43.62,84.15v2.47h7.44v3.6h-7.44v2.5h8.43v3.6h-13.11v-15.76h12.88v3.6h-8.21Z" fill="#00a69a"/><path d="M54.14,90.81v-2.83h6.14v2.83h-6.14Z" fill="#00a69a"/><path d="M74.05,92.4v3.91h-11.29v-15.76h4.68v11.85h6.61Z" fill="#00a69a"/><path d="M75.67,96.31v-15.76h4.68v15.76h-4.68Z" fill="#00a69a"/><path d="M90.73,80.56c3.69,0,6.05,1.55,6.05,3.98,0,1.6-1.03,2.92-2.68,3.39,1.93,.4,3.17,1.98,3.17,3.98,0,2.7-2.43,4.41-6.2,4.41h-8.07v-15.76h7.73Zm-3.08,6.18h2.83c.92,0,1.51-.54,1.51-1.37s-.59-1.3-1.51-1.3h-2.83v2.67Zm0,6.09h2.83c1.19,0,1.93-.58,1.93-1.51,0-.85-.74-1.39-1.93-1.39h-2.83v2.9Z" fill="#00a69a"/><path d="M106.33,92.07h-2.47v4.25h-4.68v-15.76h7.35c4.23,0,6.65,2.02,6.65,5.6,0,2.34-.94,4.05-2.65,5.01l3.19,5.15h-5.31l-2.09-4.25Zm.2-3.6c1.39,0,2.2-.77,2.2-2.18s-.81-2.14-2.2-2.14h-2.67v4.32h2.67Z" fill="#00a69a"/><path d="M119.73,93.8l-.94,2.52h-4.81l6.72-15.76h4.81l6.5,15.76h-4.99l-.92-2.52h-6.36Zm3.24-8.56l-1.93,5.15h3.82l-1.89-5.15Z" fill="#00a69a"/><path d="M140.3,92.07h-2.47v4.25h-4.68v-15.76h7.35c4.23,0,6.65,2.02,6.65,5.6,0,2.34-.94,4.05-2.65,5.01l3.19,5.15h-5.31l-2.09-4.25Zm.2-3.6c1.39,0,2.2-.77,2.2-2.18s-.81-2.14-2.2-2.14h-2.67v4.32h2.67Z" fill="#00a69a"/><path d="M158.26,96.31h-4.68v-4.9l-5.78-10.86h4.68l3.44,6.43,3.35-6.43h4.65l-5.67,10.77v4.99Z" fill="#00a69a"/></g></g><polygon points="19.27 98.15 0 90.06 20.69 82.01 19.27 98.15" fill="url(#w)" opacity=".9"/><polygon points="33.86 89.17 22.56 97.95 12.82 83.98 24.12 75.2 33.86 89.17" fill="url(#x)" opacity=".9"/><path d="M12.82,83.98s-1.02,.56-2.03,.26c-1.01-.3-.63-1.21-.63-1.21l-.64,.65,9.74,14.47s1.33,.94,3.3-.2l-9.74-13.97Z" fill="url(#y)"/><path d="M11.02,84.66c-.21,0-.43-.02-.64-.09-1.07-.31-1.21-1.34-1.04-1.95,.01-.05,.03-.09,.05-.13l4.53-8.28c.16-.29,.52-.4,.82-.24,.29,.16,.4,.52,.24,.82l-4.49,8.2c-.06,.34,.16,.4,.23,.42,.51,.15,1.32-.17,1.61-.32l10.92-8.34c.26-.2,.64-.15,.84,.11,.2,.26,.15,.64-.11,.84l-10.96,8.37s-.05,.04-.08,.05c-.12,.06-1.01,.52-1.92,.52Z" fill="#00a69a"/><rect x="16.98" y="83.95" width="12.72" height="6.04" rx=".72" ry=".72" transform="translate(-46.21 29.77) rotate(-35.54)" fill="#fff"/><g><polygon points="11.6 82.65 16.04 74.57 16.99 75.31 11.6 82.65" fill="url(#z)"/><polygon points="11.6 82.65 18.42 74.1 19.21 74.86 11.6 82.65" fill="url(#aa)"/><polygon points="11.6 82.65 20.62 74.29 21.37 75.31 11.6 82.65" fill="url(#ab)"/></g><g><path d="M19.2,88.29c.62-.43,1.34-.32,1.75,.28,.41,.59,.25,1.31-.38,1.75l-.84,.58-1.39-2.02,.86-.59Zm.72,1.91l.41-.28c.34-.23,.41-.66,.16-1.02-.25-.37-.69-.45-1.04-.21l-.39,.27,.86,1.25Z" fill="#00a69a"/><path d="M21.28,87.42l.3,.44,.97-.67,.26,.38-.97,.67,.31,.45,1.11-.76,.26,.38-1.57,1.08-1.39-2.02,1.54-1.05,.26,.38-1.08,.74Z" fill="#00a69a"/><path d="M25.66,86.82l-.93-1.36,.26,1.52-.3,.2-1.33-.79,.93,1.36-.41,.28-1.38-2.02,.51-.35,1.43,.83-.26-1.63,.51-.35,1.39,2.02-.41,.28Z" fill="#00a69a"/><path d="M27.85,83.83c.4,.58,.24,1.35-.38,1.77-.62,.42-1.39,.3-1.79-.28-.4-.59-.24-1.34,.38-1.77,.62-.42,1.38-.31,1.79,.28Zm-1.7,1.17c.24,.36,.72,.44,1.05,.2,.34-.23,.42-.7,.18-1.05-.24-.35-.7-.44-1.04-.21-.34,.23-.44,.7-.19,1.05Z" fill="#00a69a"/></g></g></svg>