<svg id="Layer_1" data-name="Layer 1" xmlns="http://www.w3.org/2000/svg" width="51.85" height="31" viewBox="0 0 51.85 31"><defs><style>.cls-1{fill:#00a89c;}</style></defs><path class="cls-1" d="M6.27,21.15a1.21,1.21,0,0,0-2.42,0,7.24,7.24,0,0,0,7.24,7.24,1.21,1.21,0,0,0,0-2.42A4.82,4.82,0,0,1,6.27,21.15Z" transform="translate(-0.72 -0.52)"/><path class="cls-1" d="M20.3,11.82H10.48A9.77,9.77,0,0,0,.72,21.58v.18a9.77,9.77,0,0,0,9.76,9.76H26.22a9.78,9.78,0,0,0,7-3l-9.77-9.77A10.87,10.87,0,0,1,20.3,11.82ZM17.14,29.1H10.48a7.35,7.35,0,0,1-7.34-7.34v-.18a7.35,7.35,0,0,1,7.34-7.34h6.66Z" transform="translate(-0.72 -0.52)"/><path class="cls-1" d="M49.69,14.55,38.54,3.4a9.84,9.84,0,0,0-13.91,0h0a10.61,10.61,0,0,0-.72.8,9.84,9.84,0,0,0,.72,13.12L35.77,28.47A9.84,9.84,0,0,0,49.69,14.55ZM30.94,20.33l-4.71-4.71h0c-.2-.2-.38-.42-.56-.64l-.12-.17c-.14-.18-.26-.36-.38-.55l-.1-.17a6.89,6.89,0,0,1-.34-.66l-.05-.1c-.11-.27-.21-.54-.3-.83a7.51,7.51,0,0,1-.3-2.07,7.31,7.31,0,0,1,2.15-5.19l.13-.12a7.34,7.34,0,0,1,10.38,0l4.7,4.7Z" transform="translate(-0.72 -0.52)"/><path class="cls-1" d="M28.87,5.31a1.21,1.21,0,0,0-1.71,0,7.25,7.25,0,0,0,0,10.24,1.24,1.24,0,0,0,.86.35,1.21,1.21,0,0,0,.85-2.07,4.83,4.83,0,0,1,0-6.81A1.2,1.2,0,0,0,28.87,5.31Z" transform="translate(-0.72 -0.52)"/></svg>