<svg id="Layer_1" data-name="Layer 1" xmlns="http://www.w3.org/2000/svg" xmlns:xlink="http://www.w3.org/1999/xlink" width="78.42" height="81.97" viewBox="0 0 78.42 81.97"><defs><style>.cls-1{fill:none;}.cls-2{clip-path:url(#clip-path);}.cls-3{fill:#d96d00;}.cls-4{fill:url(#linear-gradient);}.cls-5{fill:#f5c491;}.cls-6{fill:url(#linear-gradient-2);}.cls-7{opacity:0.3;}.cls-8,.cls-9{fill:#fff;}.cls-9{isolation:isolate;opacity:0.6;}.cls-10{fill:#f28500;}.cls-11{fill:url(#linear-gradient-3);}</style><clipPath id="clip-path" transform="translate(-2.08 -1.47)"><path class="cls-1" d="M45,83.44H37.61C20.29,83.94,5.45,69.38,2.08,47.9V37A35.53,35.53,0,0,1,37.61,1.47H45C63.19.84,77.42,17.08,80.21,36.93l.28,11C76.57,69.52,64.59,83.44,45,83.44Z"/></clipPath><linearGradient id="linear-gradient" x1="-30.25" y1="78.54" x2="-31.98" y2="81.81" gradientTransform="matrix(10.56, 0, 0, -19.54, 380.68, 1606.2)" gradientUnits="userSpaceOnUse"><stop offset="0" stop-color="#f28500"/><stop offset="1" stop-color="#fba905"/></linearGradient><linearGradient id="linear-gradient-2" x1="-35.24" y1="81.92" x2="-33.75" y2="78.49" gradientTransform="matrix(16.52, 0, 0, -19.54, 603.36, 1604.81)" gradientUnits="userSpaceOnUse"><stop offset="0" stop-color="#fbcf0a"/><stop offset="1" stop-color="#fba505"/></linearGradient><linearGradient id="linear-gradient-3" x1="-26.3" y1="82.72" x2="-20.69" y2="72.64" gradientTransform="matrix(4.4, 0, 0, -6.66, 138.86, 556.35)" xlink:href="#linear-gradient-2"/></defs><g class="cls-2"><g id="Group_11746" data-name="Group 11746"><g id="Group_11743" data-name="Group 11743"><path id="Path_13652" data-name="Path 13652" class="cls-3" d="M36.22,1.47h9.62c19.14,0,34.66,18.35,34.66,41s-15.52,41-34.66,41H36.22c19.14,0,34.66-18.35,34.66-41S55.36,1.47,36.22,1.47Z" transform="translate(-2.08 -1.47)"/><path id="Path_13653" data-name="Path 13653" class="cls-4" d="M35.77,1.47h9.62c19.14,0,34.66,18.35,34.66,41s-15.52,41-34.66,41H35.77c19.14,0,34.66-18.35,34.66-41S54.92,1.47,35.77,1.47Z" transform="translate(-2.08 -1.47)"/><g id="Group_11741" data-name="Group 11741"><path id="Path_13654" data-name="Path 13654" class="cls-5" d="M70.08,36.71H79.7c0-.21,0-.42-.07-.64H70C70,36.28,70.06,36.5,70.08,36.71Z" transform="translate(-2.08 -1.47)"/><path id="Path_13655" data-name="Path 13655" class="cls-5" d="M78.41,30H68.79c.06.21.12.42.17.64h9.62C78.51,30.42,78.47,30.2,78.41,30Z" transform="translate(-2.08 -1.47)"/><path id="Path_13656" data-name="Path 13656" class="cls-5" d="M70.43,42.46v.32h9.62v-.64H70.43C70.42,42.25,70.43,42.35,70.43,42.46Z" transform="translate(-2.08 -1.47)"/><path id="Path_13657" data-name="Path 13657" class="cls-5" d="M77.69,27.61c-.07-.22-.14-.42-.21-.65H67.86c.07.22.14.42.22.65Z" transform="translate(-2.08 -1.47)"/><path id="Path_13658" data-name="Path 13658" class="cls-5" d="M67,24.59h9.62c-.09-.22-.19-.42-.28-.64H66.68A6.45,6.45,0,0,1,67,24.59Z" transform="translate(-2.08 -1.47)"/><path id="Path_13659" data-name="Path 13659" class="cls-5" d="M80,39.74c0-.21,0-.42,0-.64H70.31c0,.21,0,.42,0,.64Z" transform="translate(-2.08 -1.47)"/><path id="Path_13660" data-name="Path 13660" class="cls-5" d="M65.57,63.38c-.1.21-.21.43-.33.64h9.62l.33-.64Z" transform="translate(-2.08 -1.47)"/><path id="Path_13661" data-name="Path 13661" class="cls-5" d="M73.51,66.41H63.9c-.13.22-.27.42-.4.64h9.62Z" transform="translate(-2.08 -1.47)"/><path id="Path_13662" data-name="Path 13662" class="cls-5" d="M79.71,48.2H70.09c0,.22,0,.42-.08.64h9.62C79.66,48.63,79.68,48.42,79.71,48.2Z" transform="translate(-2.08 -1.47)"/><path id="Path_13663" data-name="Path 13663" class="cls-5" d="M79.11,51.88c0-.21.09-.42.13-.64H69.63c0,.21-.09.42-.13.64Z" transform="translate(-2.08 -1.47)"/><path id="Path_13664" data-name="Path 13664" class="cls-5" d="M58.75,73.12h9.62c.2-.21.42-.42.6-.64H59.35C59.15,72.7,59,72.91,58.75,73.12Z" transform="translate(-2.08 -1.47)"/><path id="Path_13665" data-name="Path 13665" class="cls-5" d="M77.69,57.32H68.07l-.21.64h9.62C77.55,57.74,77.62,57.52,77.69,57.32Z" transform="translate(-2.08 -1.47)"/><path id="Path_13666" data-name="Path 13666" class="cls-5" d="M69,54.28c0,.21-.11.42-.17.64h9.62l.17-.64Z" transform="translate(-2.08 -1.47)"/><path id="Path_13667" data-name="Path 13667" class="cls-5" d="M70.3,45.82h9.62c0-.22,0-.42,0-.65H70.34C70.33,45.39,70.32,45.6,70.3,45.82Z" transform="translate(-2.08 -1.47)"/><path id="Path_13668" data-name="Path 13668" class="cls-5" d="M68.37,11.79H58.75c.21.21.42.42.6.64H69Z" transform="translate(-2.08 -1.47)"/><path id="Path_13669" data-name="Path 13669" class="cls-5" d="M61.37,14.82l.47.64h9.62L71,14.82Z" transform="translate(-2.08 -1.47)"/><path id="Path_13670" data-name="Path 13670" class="cls-5" d="M55.75,3.33c-.65-.24-1.31-.45-2-.64H44.17c.66.19,1.31.42,2,.64Z" transform="translate(-2.08 -1.47)"/><path id="Path_13671" data-name="Path 13671" class="cls-5" d="M76.3,61c.09-.21.19-.42.28-.64H67c-.09.22-.19.42-.28.64Z" transform="translate(-2.08 -1.47)"/><path id="Path_13672" data-name="Path 13672" class="cls-5" d="M65.87,9.4l-.77-.64H55.48c.26.21.52.42.77.64Z" transform="translate(-2.08 -1.47)"/><path id="Path_13673" data-name="Path 13673" class="cls-5" d="M63.48,17.86l.39.64h9.62l-.4-.64Z" transform="translate(-2.08 -1.47)"/><path id="Path_13674" data-name="Path 13674" class="cls-5" d="M61.82,6.36l-1.06-.64H51.14l1.06.64Z" transform="translate(-2.08 -1.47)"/><path id="Path_13675" data-name="Path 13675" class="cls-5" d="M52.2,78.55c-.35.23-.71.42-1.06.64h9.61c.36-.21.72-.41,1.06-.64Z" transform="translate(-2.08 -1.47)"/><path id="Path_13676" data-name="Path 13676" class="cls-5" d="M46.1,81.59c-.65.23-1.3.44-2,.64h9.62c.65-.2,1.31-.42,2-.64Z" transform="translate(-2.08 -1.47)"/><path id="Path_13677" data-name="Path 13677" class="cls-5" d="M56.26,75.52l-.77.64h9.62l.77-.64Z" transform="translate(-2.08 -1.47)"/><path id="Path_13678" data-name="Path 13678" class="cls-5" d="M65.24,20.89c.12.22.23.43.33.64H75.2c-.11-.21-.22-.41-.33-.64Z" transform="translate(-2.08 -1.47)"/><path id="Path_13679" data-name="Path 13679" class="cls-5" d="M69.5,33c0,.22.08.42.12.65h9.62c0-.22-.08-.42-.13-.65Z" transform="translate(-2.08 -1.47)"/><path id="Path_13680" data-name="Path 13680" class="cls-5" d="M61.84,69.45l-.48.64H71l.47-.64Z" transform="translate(-2.08 -1.47)"/></g><ellipse id="Ellipse_142" data-name="Ellipse 142" class="cls-6" cx="34.66" cy="40.98" rx="34.66" ry="40.98"/><g id="Group_11742" data-name="Group 11742" class="cls-7"><path id="Path_13681" data-name="Path 13681" class="cls-8" d="M36.73,1.47A30.82,30.82,0,0,0,18.08,7.92l43.58,63a45,45,0,0,0,9.73-28.46v-.6L44.12,2.43A29.67,29.67,0,0,0,36.73,1.47Z" transform="translate(-2.08 -1.47)"/><path id="Path_13682" data-name="Path 13682" class="cls-8" d="M7.69,20.1A45.89,45.89,0,0,0,2.17,39.61L32.23,83.07a30.91,30.91,0,0,0,4.5.36A30,30,0,0,0,49.5,80.55Z" transform="translate(-2.08 -1.47)"/></g><path id="Path_13683" data-name="Path 13683" class="cls-9" d="M72.22,42.46c0-22.66-15.52-41-34.66-41h-.42c19,.27,34.25,18.5,34.25,41s-15.29,40.69-34.25,41h.42C56.7,83.44,72.22,65.09,72.22,42.46Z" transform="translate(-2.08 -1.47)"/><path id="Path_13684" data-name="Path 13684" class="cls-9" d="M36.22,12C22,12,10.45,25.63,10.45,42.46S22,72.92,36.22,72.92,62,59.28,62,42.46,50.45,12,36.22,12Z" transform="translate(-2.08 -1.47)"/><path id="Path_13685" data-name="Path 13685" class="cls-10" d="M36.74,12C22.5,12,11,25.63,11,42.46S22.5,72.92,36.74,72.92,62.5,59.28,62.5,42.46,51,12,36.74,12Z" transform="translate(-2.08 -1.47)"/><path id="Path_13686" data-name="Path 13686" class="cls-3" d="M49.25,32.85a7.58,7.58,0,0,0-2.82-3.24,8,8,0,0,0-4.22-1.14H32.3a.51.51,0,0,0-.37.16.64.64,0,0,0-.13.42V55.82a.7.7,0,0,0,.13.42.47.47,0,0,0,.37.16h5.34a.46.46,0,0,0,.38-.16.64.64,0,0,0,.13-.42v-9c0-.14.06-.21.17-.21h3.59a8.22,8.22,0,0,0,4.35-1.12,7.69,7.69,0,0,0,2.94-3.15,10.13,10.13,0,0,0,1-4.71A11,11,0,0,0,49.25,32.85Zm-6.09,7a2.69,2.69,0,0,1-2,.78H38.32c-.11,0-.17-.07-.17-.2V35.11c0-.14.06-.2.17-.2h2.83a2.64,2.64,0,0,1,2,.8,2.91,2.91,0,0,1,.76,2.1,2.83,2.83,0,0,1-.75,2.07Z" transform="translate(-2.08 -1.47)"/><path id="Path_13687" data-name="Path 13687" class="cls-3" d="M14.4,42.46c0-16.15,10.62-29.37,24.05-30.4-.57,0-1.14-.07-1.72-.07C22.5,12,11,25.63,11,42.45S22.5,72.92,36.73,72.92c.58,0,1.15,0,1.72-.08C25,71.8,14.4,58.6,14.4,42.46Z" transform="translate(-2.08 -1.47)"/><path id="Path_13688" data-name="Path 13688" class="cls-9" d="M46.64,32.85a7.57,7.57,0,0,0-2.82-3.24,7.92,7.92,0,0,0-4.22-1.14H29.7a.55.55,0,0,0-.38.16.7.7,0,0,0-.13.42V55.82a.7.7,0,0,0,.13.42.47.47,0,0,0,.38.16H35a.47.47,0,0,0,.37-.16.64.64,0,0,0,.13-.42v-9c0-.14.06-.21.17-.21H39.3a8.22,8.22,0,0,0,4.35-1.12,7.69,7.69,0,0,0,2.94-3.15,10.27,10.27,0,0,0,1-4.71A11.12,11.12,0,0,0,46.64,32.85Zm-6.09,7a2.69,2.69,0,0,1-2,.78H35.71c-.11,0-.17-.07-.17-.2V35.11c0-.14.06-.2.17-.2h2.83a2.64,2.64,0,0,1,2,.8,2.91,2.91,0,0,1,.76,2.1,2.83,2.83,0,0,1-.75,2.07Z" transform="translate(-2.08 -1.47)"/><path id="Path_13689" data-name="Path 13689" class="cls-11" d="M46.17,32.85a7.5,7.5,0,0,0-2.82-3.24,7.92,7.92,0,0,0-4.22-1.14h-9.9a.55.55,0,0,0-.38.16.7.7,0,0,0-.13.42V55.82a.7.7,0,0,0,.13.42.47.47,0,0,0,.38.16h5.34a.47.47,0,0,0,.37-.16.64.64,0,0,0,.13-.42v-9c0-.14.06-.21.17-.21h3.59a8.31,8.31,0,0,0,4.35-1.12,7.69,7.69,0,0,0,2.94-3.15,10.27,10.27,0,0,0,1.05-4.71A11.12,11.12,0,0,0,46.17,32.85Zm-6.09,7a2.68,2.68,0,0,1-2,.78H35.24c-.11,0-.17-.07-.17-.2V35.11c0-.14.06-.2.17-.2h2.84a2.63,2.63,0,0,1,2,.8,2.91,2.91,0,0,1,.76,2.1,2.83,2.83,0,0,1-.75,2.07Z" transform="translate(-2.08 -1.47)"/></g></g></g></svg>