<svg id="Layer_1" data-name="Layer 1" xmlns="http://www.w3.org/2000/svg" width="18" height="18" viewBox="0 0 18 18"><defs><style>.cls-1{fill:#ffb81c;}</style></defs><path class="cls-1" d="M17.58,5.12c.48-.48-.13-1.87-1.37-3.11S13.62.19,13.13.64h0L6.27,6.77a3.21,3.21,0,0,0-4.38.14,1.12,1.12,0,0,0-.32.77,1.07,1.07,0,0,0,.32.76L5,11.55.9,16.14A.6.6,0,0,0,.9,17a.61.61,0,0,0,.86.05l4.91-3.77.31.3,1.6,1.6h0l1.19,1.2a1.11,1.11,0,0,0,.77.31,1.08,1.08,0,0,0,.76-.31,3.21,3.21,0,0,0,.14-4.39l6.12-6.8Z"/></svg>