<svg id="Layer_1" data-name="Layer 1" xmlns="http://www.w3.org/2000/svg" width="134.9632" height="40" viewBox="0 0 134.9632 40"><defs><style>.cls-1{fill:#a6a6a6;}.cls-2{fill:#fff;}</style></defs><path class="cls-1" d="M33.8878,15.9288c-.0934-.1264-.1674-.2374-.2521-.3394a5.991,5.991,0,0,0-5.0941-2.1752,6.3465,6.3465,0,0,0-2.5786.7114,3.5707,3.5707,0,0,1-3.3151-.0326,5.5366,5.5366,0,0,0-6.4349.9615,7.2467,7.2467,0,0,0-2.349,5.194,14.5265,14.5265,0,0,0,1.3813,6.9868,14.8423,14.8423,0,0,0,3.0053,4.43A2.8561,2.8561,0,0,0,20.84,32.6759a8.0882,8.0882,0,0,0,1.5988-.4956,5.869,5.869,0,0,1,2.5535-.4934,6.6754,6.6754,0,0,1,2.1871.6251,3.3287,3.3287,0,0,0,4.1974-.9133,15.42,15.42,0,0,0,2.5818-3.9171c.2266-.4945.412-1.0078.6148-1.5093A5.6519,5.6519,0,0,1,33.8878,15.9288Z" transform="translate(-1.1332 -1)"/><path class="cls-1" d="M27.9088,11.3569a5.4267,5.4267,0,0,0,1.34-4.0855c-2.7859.0825-5.6856,3.4522-5.0478,5.8571A4.5932,4.5932,0,0,0,27.9088,11.3569Z" transform="translate(-1.1332 -1)"/><path class="cls-1" d="M119.4836,14.43a6.8058,6.8058,0,0,0,1.7.0091c.6686-.073.6952-.1653.5052-.8072-.0057-.0192-.0278-.0335-.0592-.07a1.4174,1.4174,0,0,1-.2408.0574,8.037,8.037,0,0,1-1.3984.0726,1.181,1.181,0,0,1-1.0346-1.3277h3.0885c.02-.14.0392-.2387.0469-.3387a2.1571,2.1571,0,0,0-1.2324-2.2595,2.0976,2.0976,0,0,0-2.473.7851,2.8175,2.8175,0,0,0-.1981,2.8512A1.6844,1.6844,0,0,0,119.4836,14.43Z" transform="translate(-1.1332 -1)"/><path class="cls-1" d="M120.1141,22.8269a4.245,4.245,0,0,0-5.0617,2.4578,6.2475,6.2475,0,0,0-.4828,3.3529,4.282,4.282,0,0,0,3.401,3.8985,7.5687,7.5687,0,0,0,3.0774-.0266c.497-.0969.9807-.2618,1.4719-.3963l-.3214-1.402c-.8507.119-1.6642.2752-2.4847.3353a3.0005,3.0005,0,0,1-2.1248-.6,2.68,2.68,0,0,1-.9962-2.2378h6.3636a5.4238,5.4238,0,0,0-.0361-2.2026A3.6623,3.6623,0,0,0,120.1141,22.8269Z" transform="translate(-1.1332 -1)"/><path class="cls-1" d="M113.1914,22.7227a2.7191,2.7191,0,0,0-2.6668,1.69c-.0472.1006-.0963.2-.1446.3l-.0493-.0262-.0907-1.75h-1.7872v9.5281h2.1329c0-1.62-.0037-3.2127.0032-4.8048a5.9105,5.9105,0,0,1,.0709-.97,2.1587,2.1587,0,0,1,2.3991-1.949c.1417.0046.2836.0006.46.0006,0-.5752-.0123-1.1339.0054-1.6917C113.5322,22.79,113.4294,22.7306,113.1914,22.7227Z" transform="translate(-1.1332 -1)"/><path class="cls-1" d="M108.6555,11.0015c.014.8062.01,1.6134.0515,2.4181a1.0061,1.0061,0,0,0,.7325,1.0217,4.9171,4.9171,0,0,0,1.1905.0335c.0536-.0008.1476-.1068.1507-.1678.0106-.2084-.0109-.4185-.021-.6452-.1414.0119-.2508.0254-.3606.03-.3922.0148-.66-.162-.6731-.5435-.0295-.858-.0093-1.7176-.0093-2.606h1.0992V9.7381h-1.1318V8.59a4.8681,4.8681,0,0,1-.5565.1547c-.3716.0559-.5546.231-.476.6262a2.2244,2.2244,0,0,1,.0035.3926h-.6576v.7842h.6576C108.6551,10.716,108.653,10.8588,108.6555,11.0015Z" transform="translate(-1.1332 -1)"/><path class="cls-1" d="M115.3108,11.5453c.0234.8405.0122,1.6819.0157,2.5229.0005.1194,0,.2388,0,.3582h1.0289a.4537.4537,0,0,0,.0234-.0881c.0021-.8523.0083-1.7046.0015-2.5568a4.4652,4.4652,0,0,0-.066-.7688,1.5467,1.5467,0,0,0-2.11-1.2582,4.77,4.77,0,0,0-.871.5586v-2.7h-1.0272v6.8219h1.0365c0-.1515,0-.2727,0-.3938.0008-.8187-.0072-1.6375.0054-2.456a.9966.9966,0,0,1,1.0173-1.0619C114.95,10.5143,115.2918,10.8613,115.3108,11.5453Z" transform="translate(-1.1332 -1)"/><path class="cls-2" d="M120.1141,22.8269a4.245,4.245,0,0,0-5.0617,2.4578,6.2475,6.2475,0,0,0-.4828,3.3529,4.282,4.282,0,0,0,3.401,3.8985,7.5687,7.5687,0,0,0,3.0774-.0266c.497-.0969.9807-.2618,1.4719-.3963l-.3214-1.402c-.8507.119-1.6642.2752-2.4847.3353a3.0005,3.0005,0,0,1-2.1248-.6,2.68,2.68,0,0,1-.9962-2.2378h6.3636a5.4238,5.4238,0,0,0-.0361-2.2026A3.6623,3.6623,0,0,0,120.1141,22.8269Zm.8791,3.8585H116.612a2.4625,2.4625,0,0,1,2.3349-2.5023A2.1459,2.1459,0,0,1,120.9932,26.6854Z" transform="translate(-1.1332 -1)"/><path class="cls-2" d="M113.1914,22.7227a2.7191,2.7191,0,0,0-2.6668,1.69c-.0472.1006-.0963.2-.1446.3l-.0493-.0262-.0907-1.75h-1.7872v9.5281h2.1329c0-1.62-.0037-3.2127.0032-4.8048a5.9105,5.9105,0,0,1,.0709-.97,2.1587,2.1587,0,0,1,2.3991-1.949c.1417.0046.2836.0006.46.0006,0-.5752-.0123-1.1339.0054-1.6917C113.5322,22.79,113.4294,22.7306,113.1914,22.7227Z" transform="translate(-1.1332 -1)"/><path class="cls-2" d="M115.3108,11.5453c.0234.8405.0122,1.6819.0157,2.5229.0005.1194,0,.2388,0,.3582h1.0289a.4537.4537,0,0,0,.0234-.0881c.0021-.8523.0083-1.7046.0015-2.5568a4.4652,4.4652,0,0,0-.066-.7688,1.5467,1.5467,0,0,0-2.11-1.2582,4.77,4.77,0,0,0-.871.5586v-2.7h-1.0272v6.8219h1.0365c0-.1515,0-.2727,0-.3938.0008-.8187-.0072-1.6375.0054-2.456a.9966.9966,0,0,1,1.0173-1.0619C114.95,10.5143,115.2918,10.8613,115.3108,11.5453Z" transform="translate(-1.1332 -1)"/><path class="cls-2" d="M119.4836,14.43a6.8058,6.8058,0,0,0,1.7.0091c.6686-.073.6952-.1653.5052-.8072-.0057-.0192-.0278-.0335-.0592-.07a1.4174,1.4174,0,0,1-.2408.0574,8.037,8.037,0,0,1-1.3984.0726,1.181,1.181,0,0,1-1.0346-1.3277h3.0885c.02-.14.0392-.2387.0469-.3387a2.1571,2.1571,0,0,0-1.2324-2.2595,2.0976,2.0976,0,0,0-2.473.7851,2.8175,2.8175,0,0,0-.1981,2.8512A1.6844,1.6844,0,0,0,119.4836,14.43Zm.5068-4.0522c.6611-.0469,1.0953.4247,1.0906,1.2219h-2.0961A1.1265,1.1265,0,0,1,119.99,10.3773Z" transform="translate(-1.1332 -1)"/><path class="cls-2" d="M108.6555,11.0015c.014.8062.01,1.6134.0515,2.4181a1.0061,1.0061,0,0,0,.7325,1.0217,4.9171,4.9171,0,0,0,1.1905.0335c.0536-.0008.1476-.1068.1507-.1678.0106-.2084-.0109-.4185-.021-.6452-.1414.0119-.2508.0254-.3606.03-.3922.0148-.66-.162-.6731-.5435-.0295-.858-.0093-1.7176-.0093-2.606h1.0992V9.7381h-1.1318V8.59a4.8681,4.8681,0,0,1-.5565.1547c-.3716.0559-.5546.231-.476.6262a2.2244,2.2244,0,0,1,.0035.3926h-.6576v.7842h.6576C108.6551,10.716,108.653,10.8588,108.6555,11.0015Z" transform="translate(-1.1332 -1)"/><path d="M118.9469,24.1831a2.4625,2.4625,0,0,0-2.3349,2.5023h4.3812A2.1459,2.1459,0,0,0,118.9469,24.1831Z" transform="translate(-1.1332 -1)"/><path class="cls-2" d="M33.8878,15.9288c-.0934-.1264-.1674-.2374-.2521-.3394a5.991,5.991,0,0,0-5.0941-2.1752,6.3465,6.3465,0,0,0-2.5786.7114,3.5707,3.5707,0,0,1-3.3151-.0326,5.5366,5.5366,0,0,0-6.4349.9615,7.2467,7.2467,0,0,0-2.349,5.194,14.5265,14.5265,0,0,0,1.3813,6.9868,14.8423,14.8423,0,0,0,3.0053,4.43A2.8561,2.8561,0,0,0,20.84,32.6759a8.0882,8.0882,0,0,0,1.5988-.4956,5.869,5.869,0,0,1,2.5535-.4934,6.6754,6.6754,0,0,1,2.1871.6251,3.3287,3.3287,0,0,0,4.1974-.9133,15.42,15.42,0,0,0,2.5818-3.9171c.2266-.4945.412-1.0078.6148-1.5093A5.6519,5.6519,0,0,1,33.8878,15.9288Z" transform="translate(-1.1332 -1)"/><path class="cls-2" d="M27.9088,11.3569a5.4267,5.4267,0,0,0,1.34-4.0855c-2.7859.0825-5.6856,3.4522-5.0478,5.8571A4.5932,4.5932,0,0,0,27.9088,11.3569Z" transform="translate(-1.1332 -1)"/><path class="cls-1" d="M54.2593,9.7334a2.3071,2.3071,0,0,0-2.98,2.2513,2.3121,2.3121,0,1,0,4.6028.1253A2.2361,2.2361,0,0,0,54.2593,9.7334Z" transform="translate(-1.1332 -1)"/><path class="cls-1" d="M50.413,19.467A.3072.3072,0,0,0,50.06,19.21c-.685.0114-1.37.0144-2.0552-.0011a.3654.3654,0,0,0-.4261.3026q-2.0252,6.3366-4.0677,12.6676c-.03.0926-.0527.1874-.0878.3134.6164,0,1.2-.019,1.7811.0077a.44.44,0,0,0,.5356-.3807c.2989-1.0675.6447-2.1218.9452-3.1888.08-.2848.2117-.355.4888-.35.8757.0172,1.752.0064,2.6281.0064h1.3111l1.2443,3.895h2.2468c-.0236-.1007-.0341-.1667-.0545-.23Q52.4794,25.8607,50.413,19.467Z" transform="translate(-1.1332 -1)"/><path class="cls-1" d="M68.0674,11.3864c.0563.8821.0372,1.769.0494,2.6539.0018.13,0,.2594,0,.3908h1.01c0-1.1054.0441-2.1927-.0159-3.2743a1.471,1.471,0,0,0-1.13-1.4336,1.67,1.67,0,0,0-1.8369.5922c-.0322.04-.0278.1087-.04.1641L66,10.3949l-.057-.6335h-.862V14.43h1.0311c0-.86-.0038-1.6988.0028-2.5376a2.4354,2.4354,0,0,1,.0636-.5985.9924.9924,0,0,1,1.0791-.7678A.8009.8009,0,0,1,68.0674,11.3864Z" transform="translate(-1.1332 -1)"/><path class="cls-1" d="M58.51,24.3079a1.2363,1.2363,0,0,1-.1114.1023l-.1339-1.4641H56.4629V36.37h2.1465V31.4364a3.2429,3.2429,0,0,0,1.65,1.13,4.0008,4.0008,0,0,0,4.7463-2.1344,6.2151,6.2151,0,0,0,.16-5.251A3.78,3.78,0,0,0,58.51,24.3079Z" transform="translate(-1.1332 -1)"/><path class="cls-1" d="M69.5687,24.2611a.9611.9611,0,0,0-.0687.18l-.0853-.0767-.1257-1.4162H67.4974V36.3851h2.1271V31.347a2.8283,2.8283,0,0,0,1.7337,1.2346,3.93,3.93,0,0,0,4.167-1.3686,5.4781,5.4781,0,0,0,1.1182-3.6515,5.5534,5.5534,0,0,0-.9419-3.2718A3.7879,3.7879,0,0,0,69.5687,24.2611Z" transform="translate(-1.1332 -1)"/><path class="cls-1" d="M95.8114,14.5669a2.3129,2.3129,0,0,0,2.3614-2.4985,2.214,2.214,0,0,0-2.2723-2.4069,2.2844,2.2844,0,0,0-2.3459,2.4651A2.2544,2.2544,0,0,0,95.8114,14.5669Z" transform="translate(-1.1332 -1)"/><path class="cls-1" d="M44.6688,14.0485v.3828a8.1243,8.1243,0,0,0,3.098-.12,2.8154,2.8154,0,0,0,2.1158-2.0909,5.1574,5.1574,0,0,0,.1509-1.1289A2.7855,2.7855,0,0,0,47.48,7.9834a19.9091,19.9091,0,0,0-2.38-.0246c-.3728-.0064-.4439.1548-.44.5051C44.6794,10.3253,44.6688,12.187,44.6688,14.0485Z" transform="translate(-1.1332 -1)"/><path class="cls-1" d="M100.7559,11.8646a2.2281,2.2281,0,0,1,.07-.5969.9854.9854,0,0,1,1.0985-.7388.82.82,0,0,1,.7875.8865c.0471.8723.033,1.748.0443,2.6222.0017.13,0,.26,0,.394H103.77c0-1.094.0421-2.17-.015-3.2412a1.4882,1.4882,0,0,0-1.1363-1.4668,1.6787,1.6787,0,0,0-1.8808.644c-.0163.0212-.0514.028-.1.0532l-.0522-.6608h-.8659v4.6727h1.0335C100.7528,13.5642,100.7487,12.7143,100.7559,11.8646Z" transform="translate(-1.1332 -1)"/><path class="cls-1" d="M72.02,7.6061h-.9942v6.8291H72.02Z" transform="translate(-1.1332 -1)"/><path class="cls-1" d="M59.0751,14.4427a.3471.3471,0,0,0,.2479-.1864c.312-1.0049.6076-2.0148.9081-3.0233.0186-.0624.0433-.1229.0747-.2112.2588.9039.5016,1.765.752,2.6239.2544.8725.2577.8715,1.2111.7832l1.4631-4.683a5.5922,5.5922,0,0,1-.6688-.005c-.2818-.037-.39.0792-.4532.3445-.26,1.0944-.5408,2.1838-.82,3.3009a1.3934,1.3934,0,0,1-.0632-.1535q-.4445-1.6194-.8843-3.24c-.0466-.173-.1161-.28-.3193-.25a1.2323,1.2323,0,0,1-.3361,0c-.2053-.0268-.2962.0618-.3507.2559-.2728.97-.5579,1.9368-.8374,2.905-.0457.1585-.0848.319-.1439.5426-.299-1.2793-.5809-2.4847-.86-3.68H56.9184l1.3783,4.6845A7.6482,7.6482,0,0,0,59.0751,14.4427Z" transform="translate(-1.1332 -1)"/><path class="cls-1" d="M76.5586,9.73a2.3087,2.3087,0,0,0-2.9642,2.3078,2.2774,2.2774,0,0,0,1.7979,2.4812,2.3131,2.3131,0,0,0,2.8143-2.4619A2.2315,2.2315,0,0,0,76.5586,9.73Z" transform="translate(-1.1332 -1)"/><path class="cls-1" d="M131.3661,1H5.8635a4.7345,4.7345,0,0,0-4.73,4.7273v30.55A4.7315,4.7315,0,0,0,5.8635,41H131.3671a4.7307,4.7307,0,0,0,4.7293-4.7223V5.7273A4.7364,4.7364,0,0,0,131.3661,1Zm3.5658,35.2386a3.865,3.865,0,0,1-3.8866,3.8664c-1.09.0054-2.1795.001-3.2692.001q-60.9024,0-121.8047-.0011a3.8425,3.8425,0,0,1-3.6918-2.24,3.9191,3.9191,0,0,1-.3657-1.794q.0059-10.2673.0025-20.5348,0-4.8643.0018-9.7288A3.8212,3.8212,0,0,1,4.9043,2.0231,5.1449,5.1449,0,0,1,6.0719,1.914Q37.2476,1.9065,68.4235,1.91q31.2262,0,62.4526,0a3.76,3.76,0,0,1,3.69,2.2747,3.9118,3.9118,0,0,1,.3534,1.5892Q134.95,21.0058,134.9319,36.2386Z" transform="translate(-1.1332 -1)"/><path class="cls-1" d="M101.3061,22.7524a4.41,4.41,0,0,0-3.8372,3.2166,6.1386,6.1386,0,0,0-.2282,2.3636,4.438,4.438,0,0,0,4.5155,4.3724,4.4985,4.4985,0,0,0,4.5721-3.2088,6.2279,6.2279,0,0,0,.0576-3.5187A4.4411,4.4411,0,0,0,101.3061,22.7524Z" transform="translate(-1.1332 -1)"/><path class="cls-1" d="M79.9354,10.67l-.0046-.0082-.01-.0291-.02.0034A.3919.3919,0,0,1,79.9354,10.67Z" transform="translate(-1.1332 -1)"/><path class="cls-1" d="M82.2667,14.0445l.0741.39h.8683c0-.452.0056-.8866-.0013-1.3211-.0107-.6724.0055-1.3478-.0548-2.0161a1.4507,1.4507,0,0,0-1.4167-1.4091,4.5844,4.5844,0,0,0-1.3318.1033c-.6926.1536-.7053.2035-.4838.8408A10.4622,10.4622,0,0,1,81.305,10.42c.5914-.0142.8733.3572.8191,1.003-.1175,0-.239-.0069-.3595.0012a3.3434,3.3434,0,0,0-1.6669.4629,1.509,1.509,0,0,0-.6007,1.8,1.3636,1.3636,0,0,0,1.6132.8423A6.65,6.65,0,0,0,82.2667,14.0445Z" transform="translate(-1.1332 -1)"/><path class="cls-1" d="M88.138,8.9216V10.168a4.5841,4.5841,0,0,0-.8032-.4331,1.8973,1.8973,0,0,0-2.2881,1.0128,3.0213,3.0213,0,0,0-.0748,2.6332,1.8584,1.8584,0,0,0,2.1932,1.1315,1.6774,1.6774,0,0,0,1.0707-.8135l.0611.735h.8779V7.6063H88.138Z" transform="translate(-1.1332 -1)"/><path class="cls-1" d="M93.6631,20.5353c-.6343.19-1.22.3754-1.8124.5363a.3121.3121,0,0,0-.2784.3691c.0171.4787.0053.9584.0053,1.4859h-1.384V24.513h1.384v.4007c0,1.4358-.0054,2.8715.0035,4.3072a8.8225,8.8225,0,0,0,.0773,1.2065,2.3285,2.3285,0,0,0,1.7464,2.1508,4.5793,4.5793,0,0,0,2.2967-.0645c.0765-.0188.1905-.116.1906-.1768,0-.4871-.023-.9743-.04-1.4817-.18.0236-.3017.0389-.4228.0555-1.1442.1571-1.7-.304-1.7556-1.4563q-.0048-.1008-.0047-.2018-.0009-2.2209-.0005-4.4418c0-.0869.0123-.1739.0226-.31h2.3039V22.9129H93.6631Z" transform="translate(-1.1332 -1)"/><path class="cls-1" d="M87.5512,25.9189a25.2727,25.2727,0,0,0-2.4249-1.2919,8.7917,8.7917,0,0,1-1.4431-.8454,1.594,1.594,0,0,1,.2854-2.6754,3.2469,3.2469,0,0,1,1.22-.318,5.071,5.071,0,0,1,2.7411.5866c.18-.591.3509-1.1542.54-1.7746-2.0116-.7175-3.9892-.9861-5.8662.1737a3.3506,3.3506,0,0,0-.2271,5.6425,15.192,15.192,0,0,0,2.1174,1.1492c.4853.254,1.0037.4543,1.4612.75a1.9172,1.9172,0,0,1-.6283,3.4924,4.1254,4.1254,0,0,1-2.1011.0227c-.68-.1644-1.3375-.4209-2.0282-.6445l-.4717,1.6817c.1967.1028.36.2023.5339.2766a7.5378,7.5378,0,0,0,4.2278.4305,4.2818,4.2818,0,0,0,2.7158-1.4792A3.6637,3.6637,0,0,0,87.5512,25.9189Z" transform="translate(-1.1332 -1)"/><path d="M134.5657,4.1838a3.76,3.76,0,0,0-3.69-2.2747Q99.65,1.91,68.4235,1.91q-31.1759,0-62.3516.0044a5.1449,5.1449,0,0,0-1.1676.1091A3.8212,3.8212,0,0,0,1.9182,5.8068q-.009,4.8644-.0018,9.7288,0,10.2674-.0025,20.5348a3.9191,3.9191,0,0,0,.3657,1.794,3.8425,3.8425,0,0,0,3.6918,2.24q60.9024.0021,121.8047.0011c1.09,0,2.18.0044,3.2692-.001a3.865,3.865,0,0,0,3.8866-3.8664q.009-15.2328-.0128-30.4656A3.9118,3.9118,0,0,0,134.5657,4.1838Zm-16.18,6.3671a2.0976,2.0976,0,0,1,2.473-.7851,2.1571,2.1571,0,0,1,1.2324,2.2595c-.0077.1-.0272.199-.0469.3387h-3.0885a1.181,1.181,0,0,0,1.0346,1.3277,8.037,8.037,0,0,0,1.3984-.0726,1.4174,1.4174,0,0,0,.2408-.0574c.0314.0362.0535.05.0592.07.19.6419.1634.7342-.5052.8072a6.8058,6.8058,0,0,1-1.7-.0091,1.6844,1.6844,0,0,1-1.2958-1.0274A2.8175,2.8175,0,0,1,118.3859,10.5509ZM99.7193,9.76h.8659l.0522.6608c.0488-.0252.0839-.032.1-.0532a1.6787,1.6787,0,0,1,1.8808-.644,1.4882,1.4882,0,0,1,1.1363,1.4668c.0571,1.0709.015,2.1472.015,3.2412H102.756c0-.1345.0015-.2643,0-.394-.0113-.8742.0028-1.75-.0443-2.6222a.82.82,0,0,0-.7875-.8865.9854.9854,0,0,0-1.0985.7388,2.2281,2.2281,0,0,0-.07.5969c-.0072.85-.0031,1.7-.0031,2.5681H99.7193Zm-3.8188-.0985a2.214,2.214,0,0,1,2.2723,2.4069,2.3129,2.3129,0,0,1-2.3614,2.4985,2.2544,2.2544,0,0,1-2.2568-2.44A2.2844,2.2844,0,0,1,95.9005,9.6615ZM71.0261,7.6061H72.02v6.8291h-.9942ZM57.9945,9.7671c.2794,1.1951.5613,2.4005.86,3.68.0591-.2236.0982-.3841.1439-.5426.2795-.9682.5646-1.9349.8374-2.905.0545-.1941.1454-.2827.3507-.2559a1.2323,1.2323,0,0,0,.3361,0c.2032-.03.2727.0767.3193.25q.4365,1.6215.8843,3.24a1.3934,1.3934,0,0,0,.0632.1535c.2795-1.1171.56-2.2065.82-3.3009.0631-.2653.1714-.3815.4532-.3445a5.5922,5.5922,0,0,0,.6688.005l-1.4631,4.683c-.9534.0883-.9567.0893-1.2111-.7832-.25-.8589-.4932-1.72-.752-2.6239-.0314.0883-.0561.1488-.0747.2112-.3,1.0085-.5961,2.0184-.9081,3.0233a.3471.3471,0,0,1-.2479.1864,7.6482,7.6482,0,0,1-.7784.0089L56.9184,9.7671ZM45.1,7.9588a19.9091,19.9091,0,0,1,2.38.0246,2.7855,2.7855,0,0,1,2.5538,3.1085,5.1574,5.1574,0,0,1-.1509,1.1289,2.8154,2.8154,0,0,1-2.1158,2.0909,8.1243,8.1243,0,0,1-3.098.12v-.3828c0-1.8615.0106-3.7232-.0094-5.5846C44.6556,8.1136,44.7267,7.9524,45.1,7.9588Zm-15.85-.6874a5.4267,5.4267,0,0,1-1.34,4.0855,4.5932,4.5932,0,0,1-3.7075,1.7716C23.5635,10.7236,26.4632,7.3539,29.2491,7.2714Zm4.7092,20.21a15.42,15.42,0,0,1-2.5818,3.9171,3.3287,3.3287,0,0,1-4.1974.9133,6.6754,6.6754,0,0,0-2.1871-.6251,5.869,5.869,0,0,0-2.5535.4934,8.0882,8.0882,0,0,1-1.5988.4956,2.8561,2.8561,0,0,1-2.5891-1.0107,14.8423,14.8423,0,0,1-3.0053-4.43,14.5265,14.5265,0,0,1-1.3813-6.9868,7.2467,7.2467,0,0,1,2.349-5.194,5.5366,5.5366,0,0,1,6.4349-.9615,3.5707,3.5707,0,0,0,3.3151.0326,6.3465,6.3465,0,0,1,2.5786-.7114,5.991,5.991,0,0,1,5.0941,2.1752c.0847.102.1587.213.2521.3394a5.6519,5.6519,0,0,0,.6853,10.0435C34.37,26.4738,34.1849,26.9871,33.9583,27.4816Zm18.3986,5.0012-1.2443-3.895H49.8015c-.8761,0-1.7524.0108-2.6281-.0064-.2771-.0054-.4086.0648-.4888.35-.3005,1.067-.6463,2.1213-.9452,3.1888a.44.44,0,0,1-.5356.3807c-.5813-.0267-1.1647-.0077-1.7811-.0077.0351-.126.058-.2208.0878-.3134q2.0361-6.3332,4.0677-12.6676a.3654.3654,0,0,1,.4261-.3026c.6848.0155,1.37.0125,2.0552.0011a.3072.3072,0,0,1,.3535.2567q2.0613,6.3953,4.1362,12.7862c.02.0629.0309.1289.0545.23Zm.7312-17.9622a2.2823,2.2823,0,0,1-1.8091-2.5359,2.3071,2.3071,0,0,1,2.98-2.2513A2.2361,2.2361,0,0,1,55.8818,12.11,2.296,2.296,0,0,1,53.0881,14.5206Zm11.9178,15.911A4.0008,4.0008,0,0,1,60.26,32.566a3.2429,3.2429,0,0,1-1.65-1.13V36.37H56.4629V22.9461h1.8013l.1339,1.4641a1.2363,1.2363,0,0,0,.1114-.1023,3.78,3.78,0,0,1,6.6561.8727A6.2151,6.2151,0,0,1,65.0059,30.4316Zm1.1722-19.1373a2.4354,2.4354,0,0,0-.0636.5985c-.0066.8388-.0028,1.6776-.0028,2.5376H65.0806V9.7614h.862l.057.6335.1048.0846c.0126-.0554.0082-.1245.04-.1641a1.67,1.67,0,0,1,1.8369-.5922,1.471,1.471,0,0,1,1.13,1.4336c.06,1.0816.0159,2.1689.0159,3.2743h-1.01c0-.1314.0015-.2611,0-.3908-.0122-.8849.0069-1.7718-.0494-2.6539a.8009.8009,0,0,0-.81-.86A.9924.9924,0,0,0,66.1781,11.2943ZM75.5252,31.213a3.93,3.93,0,0,1-4.167,1.3686,2.8283,2.8283,0,0,1-1.7337-1.2346v5.0381H67.4974V22.9479H69.289l.1257,1.4162.0853.0767a.9611.9611,0,0,1,.0687-.18,3.7879,3.7879,0,0,1,6.1328.0286,5.5534,5.5534,0,0,1,.9419,3.2718A5.4781,5.4781,0,0,1,75.5252,31.213Zm-.1329-16.6941a2.2774,2.2774,0,0,1-1.7979-2.4812A2.3087,2.3087,0,0,1,76.5586,9.73a2.2315,2.2315,0,0,1,1.648,2.3271A2.3131,2.3131,0,0,1,75.3923,14.5189Zm4.1047-.8318a1.509,1.509,0,0,1,.6007-1.8,3.3434,3.3434,0,0,1,1.6669-.4629c.12-.0081.242-.0012.3595-.0012.0542-.6458-.2277-1.0172-.8191-1.003a10.4622,10.4622,0,0,0-1.3843.2128l.01.0291.0046.0082.0035.0043-.0035-.0043a.3919.3919,0,0,0-.0344-.0339l.02-.0034c-.2215-.6373-.2088-.6872.4838-.8408a4.5844,4.5844,0,0,1,1.3318-.1033,1.4507,1.4507,0,0,1,1.4167,1.4091c.06.6683.0441,1.3437.0548,2.0161.0069.4345.0013.8691.0013,1.3211h-.8683l-.0741-.39a6.65,6.65,0,0,1-1.1565.4849A1.3636,1.3636,0,0,1,79.497,13.6871Zm8.7061,17.4086a4.2818,4.2818,0,0,1-2.7158,1.4792,7.5378,7.5378,0,0,1-4.2278-.4305c-.174-.0743-.3372-.1738-.5339-.2766l.4717-1.6817c.6907.2236,1.3483.48,2.0282.6445a4.1254,4.1254,0,0,0,2.1011-.0227,1.9172,1.9172,0,0,0,.6283-3.4924c-.4575-.2956-.9759-.4959-1.4612-.75a15.192,15.192,0,0,1-2.1174-1.1492,3.3506,3.3506,0,0,1,.2271-5.6425c1.877-1.16,3.8546-.8912,5.8662-.1737-.1887.62-.36,1.1836-.54,1.7746a5.071,5.071,0,0,0-2.7411-.5866,3.2469,3.2469,0,0,0-1.22.318,1.594,1.594,0,0,0-.2854,2.6754,8.7917,8.7917,0,0,0,1.4431.8454,25.2727,25.2727,0,0,1,2.4249,1.2919A3.6637,3.6637,0,0,1,88.2031,31.0957Zm.9717-16.6618h-.8779l-.0611-.735a1.6774,1.6774,0,0,1-1.0707.8135,1.8584,1.8584,0,0,1-2.1932-1.1315,3.0213,3.0213,0,0,1,.0748-2.6332,1.8973,1.8973,0,0,1,2.2881-1.0128,4.5841,4.5841,0,0,1,.8032.4331V7.6063h1.0368ZM95.9954,24.5H93.6915c-.01.1365-.0225.2235-.0226.31q-.0012,2.2209.0005,4.4418,0,.1009.0047.2018c.0552,1.1523.6114,1.6134,1.7556,1.4563.1211-.0166.2424-.0319.4228-.0555.0166.5074.04.9946.04,1.4817,0,.0608-.1141.158-.1906.1768a4.5793,4.5793,0,0,1-2.2967.0645,2.3285,2.3285,0,0,1-1.7464-2.1508,8.8225,8.8225,0,0,1-.0773-1.2065c-.0089-1.4357-.0035-2.8714-.0035-4.3072V24.513h-1.384V22.9266h1.384c0-.5275.0118-1.0072-.0053-1.4859a.3121.3121,0,0,1,.2784-.3691c.5924-.1609,1.1781-.3467,1.8124-.5363v2.3776h2.3323Zm10.3329,4.9958a4.4985,4.4985,0,0,1-4.5721,3.2088,4.438,4.438,0,0,1-4.5155-4.3724,6.1386,6.1386,0,0,1,.2282-2.3636,4.6779,4.6779,0,0,1,8.917.0085A6.2279,6.2279,0,0,1,106.3283,29.4962Zm1.6692-19.7328h.6576a2.2244,2.2244,0,0,0-.0035-.3926c-.0786-.3952.1044-.57.476-.6262a4.8681,4.8681,0,0,0,.5565-.1547V9.7381h1.1318v.8038h-1.0992c0,.8884-.02,1.748.0093,2.606.013.3815.2809.5583.6731.5435.11-.0042.2192-.0177.3606-.03.01.2267.0316.4368.021.6452-.0031.061-.0971.167-.1507.1678a4.9171,4.9171,0,0,1-1.19-.0335,1.0061,1.0061,0,0,1-.7325-1.0217c-.042-.8047-.0375-1.6119-.0515-2.4181-.0025-.1427,0-.2855,0-.4539h-.6576Zm5.5211,14.9778c-.1761,0-.318.004-.46-.0006A2.1587,2.1587,0,0,0,110.66,26.69a5.9105,5.9105,0,0,0-.0709.97c-.0069,1.5921-.0032,3.1844-.0032,4.8048h-2.1329V22.9365H110.24l.0907,1.75.0493.0262c.0483-.1.0974-.2.1446-.3a2.7191,2.7191,0,0,1,2.6668-1.69c.238.0079.3408.0673.3326.3268C113.5063,23.6073,113.5186,24.166,113.5186,24.7412Zm-.1705-13.1555c-.0126.8185-.0046,1.6373-.0054,2.456,0,.1211,0,.2423,0,.3938h-1.0365V7.6136h1.0272v2.7a4.77,4.77,0,0,1,.871-.5586,1.5467,1.5467,0,0,1,2.11,1.2582,4.4652,4.4652,0,0,1,.066.7688c.0068.8522.0006,1.7045-.0015,2.5568a.4537.4537,0,0,1-.0234.0881h-1.0289c0-.1194,0-.2388,0-.3582-.0035-.841.0077-1.6824-.0157-2.5229-.019-.684-.3607-1.031-.9454-1.0215A.9966.9966,0,0,0,113.3481,11.5857Zm9.6083,16.6235h-6.3636a2.68,2.68,0,0,0,.9962,2.2378,3.0005,3.0005,0,0,0,2.1248.6c.82-.06,1.634-.2163,2.4847-.3353l.3214,1.402c-.4912.1345-.9749.2994-1.4719.3963a7.5687,7.5687,0,0,1-3.0774.0266,4.282,4.282,0,0,1-3.401-3.8985,6.2475,6.2475,0,0,1,.4828-3.3529,4.245,4.245,0,0,1,5.0617-2.4578,3.6623,3.6623,0,0,1,2.8062,3.18A5.4238,5.4238,0,0,1,122.9564,28.2092Z" transform="translate(-1.1332 -1)"/><path class="cls-2" d="M58.51,24.3079a1.2363,1.2363,0,0,1-.1114.1023l-.1339-1.4641H56.4629V36.37h2.1465V31.4364a3.2429,3.2429,0,0,0,1.65,1.13,4.0008,4.0008,0,0,0,4.7463-2.1344,6.2151,6.2151,0,0,0,.16-5.251A3.78,3.78,0,0,0,58.51,24.3079Zm4.4749,5.4666A2.2443,2.2443,0,0,1,60.3823,30.98a2.3386,2.3386,0,0,1-1.761-2.2013c-.014-.3247-.0022-.6506-.0022-.976l-.0654-.0071a13.79,13.79,0,0,1,.2122-1.6572,2.3128,2.3128,0,0,1,2.0233-1.72,2.1954,2.1954,0,0,1,2.2564,1.3264A4.5452,4.5452,0,0,1,62.9844,29.7745Z" transform="translate(-1.1332 -1)"/><path class="cls-2" d="M69.5687,24.2611a.9611.9611,0,0,0-.0687.18l-.0853-.0767-.1257-1.4162H67.4974V36.3851h2.1271V31.347a2.8283,2.8283,0,0,0,1.7337,1.2346,3.93,3.93,0,0,0,4.167-1.3686,5.4781,5.4781,0,0,0,1.1182-3.6515,5.5534,5.5534,0,0,0-.9419-3.2718A3.7879,3.7879,0,0,0,69.5687,24.2611Zm4.4657,5.46a2.2442,2.2442,0,0,1-2.571,1.2732,2.2853,2.2853,0,0,1-1.7984-2.0561c-.0433-.3777-.0388-.7608-.0562-1.1414l-.0314-.0058a14.778,14.778,0,0,1,.1737-1.53A2.3428,2.3428,0,0,1,71.7834,24.42a2.1989,2.1989,0,0,1,2.3,1.3614A4.5638,4.5638,0,0,1,74.0344,29.721Z" transform="translate(-1.1332 -1)"/><path class="cls-2" d="M50.413,19.467A.3072.3072,0,0,0,50.06,19.21c-.685.0114-1.37.0144-2.0552-.0011a.3654.3654,0,0,0-.4261.3026q-2.0252,6.3366-4.0677,12.6676c-.03.0926-.0527.1874-.0878.3134.6164,0,1.2-.019,1.7811.0077a.44.44,0,0,0,.5356-.3807c.2989-1.0675.6447-2.1218.9452-3.1888.08-.2848.2117-.355.4888-.35.8757.0172,1.752.0064,2.6281.0064h1.3111l1.2443,3.895h2.2468c-.0236-.1007-.0341-.1667-.0545-.23Q52.4794,25.8607,50.413,19.467Zm-3.1986,7.4813c.5794-1.9683,1.1551-3.9243,1.7149-5.8262.58,1.8987,1.1766,3.8555,1.778,5.8262Z" transform="translate(-1.1332 -1)"/><path class="cls-2" d="M87.5512,25.9189a25.2727,25.2727,0,0,0-2.4249-1.2919,8.7917,8.7917,0,0,1-1.4431-.8454,1.594,1.594,0,0,1,.2854-2.6754,3.2469,3.2469,0,0,1,1.22-.318,5.071,5.071,0,0,1,2.7411.5866c.18-.591.3509-1.1542.54-1.7746-2.0116-.7175-3.9892-.9861-5.8662.1737a3.3506,3.3506,0,0,0-.2271,5.6425,15.192,15.192,0,0,0,2.1174,1.1492c.4853.254,1.0037.4543,1.4612.75a1.9172,1.9172,0,0,1-.6283,3.4924,4.1254,4.1254,0,0,1-2.1011.0227c-.68-.1644-1.3375-.4209-2.0282-.6445l-.4717,1.6817c.1967.1028.36.2023.5339.2766a7.5378,7.5378,0,0,0,4.2278.4305,4.2818,4.2818,0,0,0,2.7158-1.4792A3.6637,3.6637,0,0,0,87.5512,25.9189Z" transform="translate(-1.1332 -1)"/><path class="cls-2" d="M101.3061,22.7524a4.41,4.41,0,0,0-3.8372,3.2166,6.1386,6.1386,0,0,0-.2282,2.3636,4.438,4.438,0,0,0,4.5155,4.3724,4.4985,4.4985,0,0,0,4.5721-3.2088,6.2279,6.2279,0,0,0,.0576-3.5187A4.4411,4.4411,0,0,0,101.3061,22.7524Zm2.3282,7.4837a2.1412,2.1412,0,0,1-3.5435-.0316,3.6375,3.6375,0,0,1-.4538-.8749,4.5855,4.5855,0,0,1-.2454-1.604,4.74,4.74,0,0,1,.241-1.6044,3.7177,3.7177,0,0,1,.4436-.88,2.1743,2.1743,0,0,1,3.6143-.0177A4.6543,4.6543,0,0,1,103.6343,30.2361Z" transform="translate(-1.1332 -1)"/><path class="cls-2" d="M93.6631,20.5353c-.6343.19-1.22.3754-1.8124.5363a.3121.3121,0,0,0-.2784.3691c.0171.4787.0053.9584.0053,1.4859h-1.384V24.513h1.384v.4007c0,1.4358-.0054,2.8715.0035,4.3072a8.8225,8.8225,0,0,0,.0773,1.2065,2.3285,2.3285,0,0,0,1.7464,2.1508,4.5793,4.5793,0,0,0,2.2967-.0645c.0765-.0188.1905-.116.1906-.1768,0-.4871-.023-.9743-.04-1.4817-.18.0236-.3017.0389-.4228.0555-1.1442.1571-1.7-.304-1.7556-1.4563q-.0048-.1008-.0047-.2018-.0009-2.2209-.0005-4.4418c0-.0869.0123-.1739.0226-.31h2.3039V22.9129H93.6631Z" transform="translate(-1.1332 -1)"/><path class="cls-2" d="M44.6688,14.0485v.3828a8.1243,8.1243,0,0,0,3.098-.12,2.8154,2.8154,0,0,0,2.1158-2.0909,5.1574,5.1574,0,0,0,.1509-1.1289A2.7855,2.7855,0,0,0,47.48,7.9834a19.9091,19.9091,0,0,0-2.38-.0246c-.3728-.0064-.4439.1548-.44.5051C44.6794,10.3253,44.6688,12.187,44.6688,14.0485Zm1.3836-5.3236a8.6428,8.6428,0,0,1,1.1385.0443A1.8955,1.8955,0,0,1,48.8917,10.57a4.8038,4.8038,0,0,1-.07,1.4,2.055,2.055,0,0,1-1.87,1.6683c-.3.0334-.6036.0308-.9057.0358a2.05,2.05,0,0,1-.3054-.0412c-.0076-.1027-.02-.19-.02-.2774-.0012-1.4224.0054-2.8448-.0066-4.2671C45.7129,8.8279,45.7932,8.7147,46.0524,8.7249Z" transform="translate(-1.1332 -1)"/><path class="cls-2" d="M59.0751,14.4427a.3471.3471,0,0,0,.2479-.1864c.312-1.0049.6076-2.0148.9081-3.0233.0186-.0624.0433-.1229.0747-.2112.2588.9039.5016,1.765.752,2.6239.2544.8725.2577.8715,1.2111.7832l1.4631-4.683a5.5922,5.5922,0,0,1-.6688-.005c-.2818-.037-.39.0792-.4532.3445-.26,1.0944-.5408,2.1838-.82,3.3009a1.3934,1.3934,0,0,1-.0632-.1535q-.4445-1.6194-.8843-3.24c-.0466-.173-.1161-.28-.3193-.25a1.2323,1.2323,0,0,1-.3361,0c-.2053-.0268-.2962.0618-.3507.2559-.2728.97-.5579,1.9368-.8374,2.905-.0457.1585-.0848.319-.1439.5426-.299-1.2793-.5809-2.4847-.86-3.68H56.9184l1.3783,4.6845A7.6482,7.6482,0,0,0,59.0751,14.4427Z" transform="translate(-1.1332 -1)"/><path class="cls-2" d="M88.138,8.9216V10.168a4.5841,4.5841,0,0,0-.8032-.4331,1.8973,1.8973,0,0,0-2.2881,1.0128,3.0213,3.0213,0,0,0-.0748,2.6332,1.8584,1.8584,0,0,0,2.1932,1.1315,1.6774,1.6774,0,0,0,1.0707-.8135l.0611.735h.8779V7.6063H88.138Zm-.0634,3.9292a1.0488,1.0488,0,0,1-.8548.8456,1.085,1.085,0,0,1-1.1808-.52,2.2334,2.2334,0,0,1,.0619-2.2328,1.1077,1.1077,0,0,1,1.1817-.4452,1.1432,1.1432,0,0,1,.8437,1.0176,5.6967,5.6967,0,0,1,.0031.57l.03.0023A5.3305,5.3305,0,0,1,88.0746,12.8508Z" transform="translate(-1.1332 -1)"/><path class="cls-2" d="M54.2593,9.7334a2.3071,2.3071,0,0,0-2.98,2.2513,2.3121,2.3121,0,1,0,4.6028.1253A2.2361,2.2361,0,0,0,54.2593,9.7334Zm.1789,3.5743a1.0274,1.0274,0,0,1-1.7512.02,2.3389,2.3389,0,0,1,.0266-2.4786,1.04,1.04,0,0,1,1.7173.0256,6.7323,6.7323,0,0,1,.4648,1.2217A6.8216,6.8216,0,0,1,54.4382,13.3077Z" transform="translate(-1.1332 -1)"/><path class="cls-2" d="M76.5586,9.73a2.3087,2.3087,0,0,0-2.9642,2.3078,2.2774,2.2774,0,0,0,1.7979,2.4812,2.3131,2.3131,0,0,0,2.8143-2.4619A2.2315,2.2315,0,0,0,76.5586,9.73Zm.2246,3.5391a1.0335,1.0335,0,0,1-1.8075.0139,2.3475,2.3475,0,0,1,.0285-2.3945A1.0411,1.0411,0,0,1,76.76,10.89a6.51,6.51,0,0,1,.4461,1.1909A6.6638,6.6638,0,0,1,76.7832,13.269Z" transform="translate(-1.1332 -1)"/><path class="cls-2" d="M95.8114,14.5669a2.3129,2.3129,0,0,0,2.3614-2.4985,2.214,2.214,0,0,0-2.2723-2.4069,2.2844,2.2844,0,0,0-2.3459,2.4651A2.2544,2.2544,0,0,0,95.8114,14.5669Zm-.8532-3.64a1.0479,1.0479,0,0,1,1.796-.0208,2.3054,2.3054,0,0,1-.0511,2.4486,1.0215,1.0215,0,0,1-1.7114-.0205,6.5,6.5,0,0,1-.4632-1.2125A6.7575,6.7575,0,0,1,94.9582,10.9272Z" transform="translate(-1.1332 -1)"/><path class="cls-2" d="M79.9354,10.67c.0039.0055.0053.0061,0,0Z" transform="translate(-1.1332 -1)"/><path class="cls-2" d="M82.2667,14.0445l.0741.39h.8683c0-.452.0056-.8866-.0013-1.3211-.0107-.6724.0055-1.3478-.0548-2.0161a1.4507,1.4507,0,0,0-1.4167-1.4091,4.5844,4.5844,0,0,0-1.3318.1033c-.6926.1536-.7053.2035-.4838.8408A10.4622,10.4622,0,0,1,81.305,10.42c.5914-.0142.8733.3572.8191,1.003-.1175,0-.239-.0069-.3595.0012a3.3434,3.3434,0,0,0-1.6669.4629,1.509,1.509,0,0,0-.6007,1.8,1.3636,1.3636,0,0,0,1.6132.8423A6.65,6.65,0,0,0,82.2667,14.0445Zm-1.7953-.7861a.7326.7326,0,0,1,.3783-.8829,10.7559,10.7559,0,0,1,1.3288-.3459c0,.3822.0193.6275-.0039.8687a.9947.9947,0,0,1-1.1956.8739A.614.614,0,0,1,80.4714,13.2584Z" transform="translate(-1.1332 -1)"/><path class="cls-2" d="M79.9354,10.67l-.0046-.0082-.01-.0291-.02.0034A.3919.3919,0,0,1,79.9354,10.67Z" transform="translate(-1.1332 -1)"/><path class="cls-2" d="M100.7559,11.8646a2.2281,2.2281,0,0,1,.07-.5969.9854.9854,0,0,1,1.0985-.7388.82.82,0,0,1,.7875.8865c.0471.8723.033,1.748.0443,2.6222.0017.13,0,.26,0,.394H103.77c0-1.094.0421-2.17-.015-3.2412a1.4882,1.4882,0,0,0-1.1363-1.4668,1.6787,1.6787,0,0,0-1.8808.644c-.0163.0212-.0514.028-.1.0532l-.0522-.6608h-.8659v4.6727h1.0335C100.7528,13.5642,100.7487,12.7143,100.7559,11.8646Z" transform="translate(-1.1332 -1)"/><path class="cls-2" d="M68.0674,11.3864c.0563.8821.0372,1.769.0494,2.6539.0018.13,0,.2594,0,.3908h1.01c0-1.1054.0441-2.1927-.0159-3.2743a1.471,1.471,0,0,0-1.13-1.4336,1.67,1.67,0,0,0-1.8369.5922c-.0322.04-.0278.1087-.04.1641L66,10.3949l-.057-.6335h-.862V14.43h1.0311c0-.86-.0038-1.6988.0028-2.5376a2.4354,2.4354,0,0,1,.0636-.5985.9924.9924,0,0,1,1.0791-.7678A.8009.8009,0,0,1,68.0674,11.3864Z" transform="translate(-1.1332 -1)"/><path class="cls-2" d="M72.02,7.6061h-.9942v6.8291H72.02Z" transform="translate(-1.1332 -1)"/><path d="M60.7892,24.4181a2.3128,2.3128,0,0,0-2.0233,1.72,13.79,13.79,0,0,0-.2122,1.6572l.0654.0071c0,.3254-.0118.6513.0022.976a2.3386,2.3386,0,0,0,1.761,2.2013,2.2443,2.2443,0,0,0,2.6021-1.2054,4.5452,4.5452,0,0,0,.0612-4.03A2.1954,2.1954,0,0,0,60.7892,24.4181Z" transform="translate(-1.1332 -1)"/><path d="M71.7834,24.42a2.3428,2.3428,0,0,0-2.0323,1.8407,14.778,14.778,0,0,0-.1737,1.53l.0314.0058c.0174.3806.0129.7637.0562,1.1414a2.2853,2.2853,0,0,0,1.7984,2.0561,2.2442,2.2442,0,0,0,2.571-1.2732,4.5638,4.5638,0,0,0,.0489-3.94A2.1989,2.1989,0,0,0,71.7834,24.42Z" transform="translate(-1.1332 -1)"/><path d="M47.2144,26.9483h3.4929c-.6014-1.9707-1.1985-3.9275-1.778-5.8262C48.37,23.024,47.7938,24.98,47.2144,26.9483Z" transform="translate(-1.1332 -1)"/><path d="M100.0762,25.2408a3.7177,3.7177,0,0,0-.4436.88,4.74,4.74,0,0,0-.2409,1.6045A4.5849,4.5849,0,0,0,99.637,29.33a3.6375,3.6375,0,0,0,.4538.8749,2.1412,2.1412,0,0,0,3.5435.0316,4.6543,4.6543,0,0,0,.0562-5.013A2.1743,2.1743,0,0,0,100.0762,25.2408Z" transform="translate(-1.1332 -1)"/><path d="M99.6326,26.1212a4.74,4.74,0,0,0-.241,1.6044,4.5855,4.5855,0,0,0,.2454,1.604,4.5849,4.5849,0,0,1-.2453-1.6039A4.74,4.74,0,0,1,99.6326,26.1212Z" transform="translate(-1.1332 -1)"/><path d="M45.7217,13.3554c0,.0874.012.1747.02.2774a2.05,2.05,0,0,0,.3054.0412c.3021-.005.6061-.0024.9057-.0358a2.055,2.055,0,0,0,1.87-1.6683,4.8038,4.8038,0,0,0,.07-1.4,1.8955,1.8955,0,0,0-1.7008-1.8012,8.6428,8.6428,0,0,0-1.1385-.0443c-.2592-.01-.34.103-.3373.3634C45.7271,10.5106,45.7205,11.933,45.7217,13.3554Z" transform="translate(-1.1332 -1)"/><path d="M88.1263,11.5159a1.1432,1.1432,0,0,0-.8437-1.0176,1.1077,1.1077,0,0,0-1.1817.4452,2.2334,2.2334,0,0,0-.0619,2.2328,1.085,1.085,0,0,0,1.1808.52,1.0488,1.0488,0,0,0,.8548-.8456,5.3305,5.3305,0,0,0,.0853-.7628l-.03-.0023A5.6967,5.6967,0,0,0,88.1263,11.5159Z" transform="translate(-1.1332 -1)"/><path d="M52.7136,10.8489a2.3389,2.3389,0,0,0-.0266,2.4786,1.0274,1.0274,0,0,0,1.7512-.02,6.8216,6.8216,0,0,0,.4575-1.2115,6.7323,6.7323,0,0,0-.4648-1.2217A1.04,1.04,0,0,0,52.7136,10.8489Z" transform="translate(-1.1332 -1)"/><path d="M75.0042,10.8884a2.3475,2.3475,0,0,0-.0285,2.3945,1.0335,1.0335,0,0,0,1.8075-.0139,6.6638,6.6638,0,0,0,.4226-1.1878A6.51,6.51,0,0,0,76.76,10.89,1.0411,1.0411,0,0,0,75.0042,10.8884Z" transform="translate(-1.1332 -1)"/><path d="M96.7031,13.355a2.3054,2.3054,0,0,0,.0511-2.4486,1.0479,1.0479,0,0,0-1.796.0208,6.7575,6.7575,0,0,0-.43,1.1948,6.5,6.5,0,0,0,.4632,1.2125A1.0215,1.0215,0,0,0,96.7031,13.355Z" transform="translate(-1.1332 -1)"/><path d="M82.1746,12.8983c.0232-.2412.0039-.4865.0039-.8687a10.7559,10.7559,0,0,0-1.3288.3459.7326.7326,0,0,0-.3783.8829.614.614,0,0,0,.5076.5138A.9947.9947,0,0,0,82.1746,12.8983Z" transform="translate(-1.1332 -1)"/><path d="M121.081,11.5992c.0047-.7972-.43-1.2688-1.0906-1.2219a1.1265,1.1265,0,0,0-1.0055,1.2219Z" transform="translate(-1.1332 -1)"/></svg>