<svg id="Layer_1" data-name="Layer 1" xmlns="http://www.w3.org/2000/svg" xmlns:xlink="http://www.w3.org/1999/xlink" width="136.5892" height="40" viewBox="0 0 136.5892 40"><defs><style>.cls-1{fill:#a6a6a6;}.cls-2{fill:#fff;}.cls-3{fill:url(#linear-gradient);}.cls-4{fill:url(#linear-gradient-2);}.cls-5{fill:url(#linear-gradient-3);}.cls-6{fill:url(#linear-gradient-4);}</style><linearGradient id="linear-gradient" x1="31.8913" y1="-144.3098" x2="14.9517" y2="-127.3701" gradientTransform="matrix(1.0024, 0, 0, -0.9907, -8.9424, -110.9413)" gradientUnits="userSpaceOnUse"><stop offset="0" stop-color="#00a0ff"/><stop offset="0.0066" stop-color="#00a1ff"/><stop offset="0.2601" stop-color="#00beff"/><stop offset="0.5122" stop-color="#00d2ff"/><stop offset="0.7604" stop-color="#00dfff"/><stop offset="1" stop-color="#00e3ff"/></linearGradient><linearGradient id="linear-gradient-2" x1="44.0395" y1="-132.9127" x2="19.6164" y2="-132.9127" gradientTransform="matrix(1.0024, 0, 0, -0.9907, -8.9424, -110.9413)" gradientUnits="userSpaceOnUse"><stop offset="0" stop-color="#ffe000"/><stop offset="0.4087" stop-color="#ffbd00"/><stop offset="0.7754" stop-color="orange"/><stop offset="1" stop-color="#ff9c00"/></linearGradient><linearGradient id="linear-gradient-3" x1="26.5253" y1="-139.0178" x2="3.5538" y2="-116.0463" gradientTransform="matrix(1.0024, 0, 0, -0.9907, -8.9424, -110.9413)" gradientUnits="userSpaceOnUse"><stop offset="0" stop-color="#ff3a44"/><stop offset="1" stop-color="#c31162"/></linearGradient><linearGradient id="linear-gradient-4" x1="8.8347" y1="-144.5005" x2="19.092" y2="-134.2434" gradientTransform="matrix(1.0024, 0, 0, -0.9907, -8.9424, -110.9413)" gradientUnits="userSpaceOnUse"><stop offset="0" stop-color="#32a071"/><stop offset="0.0685" stop-color="#2da771"/><stop offset="0.4762" stop-color="#15cf74"/><stop offset="0.8009" stop-color="#06e775"/><stop offset="1" stop-color="#00f076"/></linearGradient></defs><g id="g10"><g id="g12"><path id="path14" d="M132.5,40.7353H6.029a5.0461,5.0461,0,0,1-5.0589-5v-30a5.0462,5.0462,0,0,1,5.0589-5H132.5a5.0462,5.0462,0,0,1,5.0589,5v30A5.0461,5.0461,0,0,1,132.5,40.7353Z" transform="translate(-0.9701 -0.7353)"/><path id="path16" class="cls-1" d="M132.5,1.5366a4.2287,4.2287,0,0,1,4.2482,4.1987v30A4.2288,4.2288,0,0,1,132.5,39.9341H6.029a4.2288,4.2288,0,0,1-4.2482-4.1988v-30A4.2287,4.2287,0,0,1,6.029,1.5366H132.5m0-.8013H6.029a5.0462,5.0462,0,0,0-5.0589,5v30a5.0461,5.0461,0,0,0,5.0589,5H132.5a5.0461,5.0461,0,0,0,5.0589-5v-30A5.0462,5.0462,0,0,0,132.5.7353Z" transform="translate(-0.9701 -0.7353)"/><path id="path46" class="cls-2" d="M69.9072,22.4878A4.2537,4.2537,0,1,0,74.23,26.7416,4.2179,4.2179,0,0,0,69.9072,22.4878Zm0,6.8312a2.5826,2.5826,0,1,1,2.4308-2.5774A2.4712,2.4712,0,0,1,69.9072,29.319Zm-9.4209-6.8312a4.2536,4.2536,0,1,0,4.3177,4.2538A4.2148,4.2148,0,0,0,60.4863,22.4878Zm0,6.8312a2.5829,2.5829,0,1,1,2.4257-2.5774A2.4745,2.4745,0,0,1,60.4863,29.319Zm-11.21-5.5275V25.599H53.643a3.7317,3.7317,0,0,1-.9929,2.27,4.5136,4.5136,0,0,1-3.3742,1.3188,4.8,4.8,0,0,1,0-9.6,4.6606,4.6606,0,0,1,3.2908,1.2887l1.2887-1.2737a6.41,6.41,0,0,0-4.58-1.8213,6.7392,6.7392,0,0,0-6.7827,6.6063,6.7391,6.7391,0,0,0,6.7827,6.6062A6.1468,6.1468,0,0,0,53.94,29.1391,5.92,5.92,0,0,0,55.521,24.92a5.9817,5.9817,0,0,0-.0986-1.1288Zm45.8408,1.4013a3.9871,3.9871,0,0,0-3.6854-2.705,4.0638,4.0638,0,0,0-4.0559,4.2538,4.1851,4.1851,0,0,0,4.2684,4.2524,4.2778,4.2778,0,0,0,3.5867-1.8849l-1.467-.9663a2.4662,2.4662,0,0,1-2.12,1.1762A2.19,2.19,0,0,1,89.56,28.03l5.7557-2.3537Zm-5.8683,1.4163a2.3462,2.3462,0,0,1,2.2474-2.48,1.6753,1.6753,0,0,1,1.6012.9025ZM84.57,30.7353h1.892v-12.5H84.57Zm-3.0986-7.3h-.0632a2.9978,2.9978,0,0,0-2.2626-.9475,4.2551,4.2551,0,0,0,0,8.5062,2.9537,2.9537,0,0,0,2.2626-.9662h.0632v.61a2.19,2.19,0,0,1-2.2967,2.5,2.3868,2.3868,0,0,1-2.169-1.5188l-1.6454.6788a4.1055,4.1055,0,0,0,3.8144,2.515c2.2183,0,4.09-1.29,4.09-4.4287V22.7466H81.4717ZM79.3078,29.319a2.5851,2.5851,0,0,1,0-5.1562,2.4074,2.4074,0,0,1,2.298,2.5925A2.3894,2.3894,0,0,1,79.3078,29.319Zm26.3133-11.0837H101.096v12.5h1.8869V25.999h2.6382a3.8906,3.8906,0,1,0,0-7.7637Zm.0493,6.025h-2.6875V19.974H105.67a2.1443,2.1443,0,1,1,0,4.2863Zm11.6645-1.7963a3.5464,3.5464,0,0,0-3.3642,1.9138l1.6745.6938a1.7917,1.7917,0,0,1,1.7238-.9188,1.813,1.813,0,0,1,1.9869,1.6075v.1312a4.1851,4.1851,0,0,0-1.9717-.4837c-1.8035,0-3.6411.9812-3.6411,2.8125a2.9079,2.9079,0,0,0,3.1377,2.7537,2.6781,2.6781,0,0,0,2.4106-1.225h.0645v.9663h1.8224V25.92C121.1783,23.704,119.5039,22.464,117.3349,22.464Zm-.2277,6.85c-.6171,0-1.4772-.3026-1.4772-1.0588,0-.9675,1.0725-1.3387,2.0008-1.3387a3.4176,3.4176,0,0,1,1.7251.42A2.2817,2.2817,0,0,1,117.1072,29.3141Zm10.7109-6.5763-2.169,5.4188h-.0645l-2.2423-5.4188h-2.0349l3.3692,7.5725-1.9224,4.2138h1.9717l5.1916-11.7863Zm-17.0092,7.9975h1.8921v-12.5h-1.8921Z" transform="translate(-0.9701 -0.7353)"/><g id="g48"><path id="path64" class="cls-3" d="M11.528,8.274A1.9765,1.9765,0,0,0,11.0587,9.68v22.115a1.9762,1.9762,0,0,0,.4693,1.4062l.0733.0675L24.14,20.8816v-.2925L11.6013,8.2015Z" transform="translate(-0.9701 -0.7353)"/></g><g id="g66"><path id="path78" class="cls-4" d="M28.3145,25.0128,24.14,20.8816v-.2925l4.18-4.1313.0936.0537,4.95,2.7838c1.4127.79,1.4127,2.09,0,2.885l-4.95,2.7787Z" transform="translate(-0.9701 -0.7353)"/></g><g id="g80"><path id="path88" class="cls-5" d="M28.4132,24.959,24.14,20.7353,11.528,33.2015a1.6628,1.6628,0,0,0,2.1044.0588L28.4132,24.959" transform="translate(-0.9701 -0.7353)"/></g><g id="g90"><path id="path104" class="cls-6" d="M28.4132,16.5115,13.6324,8.21a1.6686,1.6686,0,0,0-2.1044.0637L24.14,20.7353Z" transform="translate(-0.9701 -0.7353)"/></g><path class="cls-2" d="M47.1917,12.539h-2.909l-.5537,1.53h-.92l2.4492-6.4937h.9666l2.44,6.4937h-.92Zm-.244-.6662-1.21-3.3407-1.2106,3.3407Z" transform="translate(-0.9701 -0.7353)"/><path class="cls-2" d="M54.6707,14.0686h-.854L50.3821,8.8417v5.2269h-.8539V7.453h.8539l3.4346,5.2362V7.453h.854Z" transform="translate(-0.9701 -0.7353)"/><path class="cls-2" d="M61.2111,12.5062A2.7676,2.7676,0,0,1,60.0239,13.66a4.0251,4.0251,0,0,1-1.8815.4082H56.0405V7.453h2.1019a4.106,4.106,0,0,1,1.8815.3987,2.7138,2.7138,0,0,1,1.1872,1.1449,3.6475,3.6475,0,0,1,.4033,1.7595A3.6266,3.6266,0,0,1,61.2111,12.5062Zm-1.1544.1267a2.4979,2.4979,0,0,0,.6851-1.8768,2.5244,2.5244,0,0,0-.68-1.8816,2.7129,2.7129,0,0,0-1.9847-.6709H56.8943v5.0955h1.1825A2.7259,2.7259,0,0,0,60.0567,12.6329Z" transform="translate(-0.9701 -0.7353)"/><path class="cls-2" d="M66.2783,14.0686,64.5517,11.366h-.9291v2.7026h-.8538V7.453h2.177a2.3565,2.3565,0,0,1,1.6891.5395,1.8908,1.8908,0,0,1,.5632,1.4311,1.851,1.851,0,0,1-.45,1.3,2.1028,2.1028,0,0,1-1.3044.6146l1.8016,2.7307Zm-2.6557-3.3219h1.2481q1.4544,0,1.4545-1.2762T64.8707,8.1943H63.6226Z" transform="translate(-0.9701 -0.7353)"/><path class="cls-2" d="M72.9269,7.8a3.0731,3.0731,0,0,1,1.1588,1.2058,3.5957,3.5957,0,0,1,.4223,1.75,3.5945,3.5945,0,0,1-.4223,1.75,3.0717,3.0717,0,0,1-1.1588,1.2058,3.2155,3.2155,0,0,1-1.6563.4317,3.2652,3.2652,0,0,1-1.6658-.4317,3.0518,3.0518,0,0,1-1.1682-1.2058,3.5945,3.5945,0,0,1-.4223-1.75,3.5957,3.5957,0,0,1,.4223-1.75A3.0531,3.0531,0,0,1,69.6048,7.8a3.2672,3.2672,0,0,1,1.6658-.4317A3.2174,3.2174,0,0,1,72.9269,7.8Zm-2.8809.68a2.1788,2.1788,0,0,0-.8446.9008,2.9406,2.9406,0,0,0-.3049,1.3748,2.9487,2.9487,0,0,0,.3049,1.37,2.1712,2.1712,0,0,0,.8446.9054,2.3856,2.3856,0,0,0,1.2246.3145,2.3423,2.3423,0,0,0,1.2151-.3191,2.2092,2.2092,0,0,0,.8447-.9055,2.9207,2.9207,0,0,0,.3048-1.3654A2.9418,2.9418,0,0,0,73.33,9.3813a2.18,2.18,0,0,0-.8447-.9008,2.5243,2.5243,0,0,0-2.44,0Z" transform="translate(-0.9701 -0.7353)"/><path class="cls-2" d="M76.5159,7.453v6.6156h-.8538V7.453Z" transform="translate(-0.9701 -0.7353)"/><path class="cls-2" d="M83.0566,12.5062A2.7674,2.7674,0,0,1,81.87,13.66a4.0254,4.0254,0,0,1-1.8815.4082H77.886V7.453h2.102a4.1063,4.1063,0,0,1,1.8815.3987,2.7136,2.7136,0,0,1,1.1871,1.1449,3.6476,3.6476,0,0,1,.4034,1.7595A3.6266,3.6266,0,0,1,83.0566,12.5062Zm-1.1543.1267a2.4979,2.4979,0,0,0,.685-1.8768,2.5243,2.5243,0,0,0-.68-1.8816,2.713,2.713,0,0,0-1.9847-.6709H78.74v5.0955h1.1825A2.7262,2.7262,0,0,0,81.9023,12.6329Z" transform="translate(-0.9701 -0.7353)"/><path class="cls-2" d="M90.8078,12.539h-2.909l-.5537,1.53h-.92l2.4492-6.4937h.9666l2.44,6.4937h-.92Zm-.2441-.6662-1.21-3.3407-1.2106,3.3407Z" transform="translate(-0.9701 -0.7353)"/><path class="cls-2" d="M93.998,11.4035v2.6651h-.8539V7.453h2.102a2.3985,2.3985,0,0,1,1.6985.53,1.8954,1.8954,0,0,1,.563,1.45,1.8458,1.8458,0,0,1-.5818,1.45,2.4382,2.4382,0,0,1-1.68.5208Zm2.2944-1.0415a1.2268,1.2268,0,0,0,.3426-.9291,1.2366,1.2366,0,0,0-.3426-.9431,1.6021,1.6021,0,0,0-1.1214-.3236H93.998v2.5243h1.173A1.5856,1.5856,0,0,0,96.2924,10.362Z" transform="translate(-0.9701 -0.7353)"/><path class="cls-2" d="M99.3564,11.4035v2.6651h-.8539V7.453h2.1019a2.3988,2.3988,0,0,1,1.6986.53,1.8954,1.8954,0,0,1,.563,1.45,1.8458,1.8458,0,0,1-.5818,1.45,2.4385,2.4385,0,0,1-1.68.5208Zm2.2943-1.0415a1.2268,1.2268,0,0,0,.3426-.9291,1.2366,1.2366,0,0,0-.3426-.9431,1.6019,1.6019,0,0,0-1.1214-.3236H99.3564v2.5243h1.1729A1.5854,1.5854,0,0,0,101.6507,10.362Z" transform="translate(-0.9701 -0.7353)"/><path class="cls-2" d="M110.8657,7.8a3.0733,3.0733,0,0,1,1.1589,1.2058,3.5957,3.5957,0,0,1,.4223,1.75,3.5945,3.5945,0,0,1-.4223,1.75,3.072,3.072,0,0,1-1.1589,1.2058,3.215,3.215,0,0,1-1.6563.4317,3.2651,3.2651,0,0,1-1.6657-.4317,3.0511,3.0511,0,0,1-1.1682-1.2058,3.5945,3.5945,0,0,1-.4223-1.75,3.5957,3.5957,0,0,1,.4223-1.75A3.0524,3.0524,0,0,1,107.5437,7.8a3.2671,3.2671,0,0,1,1.6657-.4317A3.2169,3.2169,0,0,1,110.8657,7.8Zm-2.8809.68a2.1779,2.1779,0,0,0-.8445.9008,2.9394,2.9394,0,0,0-.305,1.3748,2.9475,2.9475,0,0,0,.305,1.37,2.17,2.17,0,0,0,.8445.9054,2.3861,2.3861,0,0,0,1.2246.3145,2.3426,2.3426,0,0,0,1.2152-.3191,2.2092,2.2092,0,0,0,.8447-.9055,2.9207,2.9207,0,0,0,.3048-1.3654,2.9418,2.9418,0,0,0-.3048-1.3748,2.18,2.18,0,0,0-.8447-.9008,2.5245,2.5245,0,0,0-2.44,0Z" transform="translate(-0.9701 -0.7353)"/><path class="cls-2" d="M118.7434,14.0686h-.854l-3.4346-5.2269v5.2269h-.8539V7.453h.8539l3.4346,5.2362V7.453h.854Z" transform="translate(-0.9701 -0.7353)"/></g></g><path class="cls-2" d="M96.7554,22.8454v.1584h-.426v1.3505h-.1947V23.0038h-.4259v-.1584Z" transform="translate(-0.9701 -0.7353)"/><path class="cls-2" d="M98.4589,22.8712v1.4831h-.1946V23.1707l-.473,1.1836h-.1735l-.4751-1.1793v1.1793H96.948V22.8712h.2333l.5265,1.2455.5179-1.2455Z" transform="translate(-0.9701 -0.7353)"/></svg>