<svg id="Layer_1" data-name="Layer 1" xmlns="http://www.w3.org/2000/svg" width="40" height="40" viewBox="0 0 40 40"><defs><style>.cls-1{fill:#fff;}</style></defs><path class="cls-1" d="M21,1A20,20,0,1,0,41,21,20,20,0,0,0,21,1Zm9.35,24.64a6.43,6.43,0,0,1-.4,2.13A3.75,3.75,0,0,1,27.77,30a6.19,6.19,0,0,1-2.13.4c-1.21,0-1.58.07-4.64.07s-3.43,0-4.64-.07a6.19,6.19,0,0,1-2.13-.4,3.72,3.72,0,0,1-2.18-2.18,6.19,6.19,0,0,1-.4-2.13c-.05-1.21-.07-1.57-.07-4.64s0-3.43.07-4.64a6.19,6.19,0,0,1,.4-2.13,3.78,3.78,0,0,1,2.18-2.18,6.19,6.19,0,0,1,2.13-.4c1.21-.05,1.57-.06,4.64-.06s3.43,0,4.64.06a6.19,6.19,0,0,1,2.13.4A3.75,3.75,0,0,1,30,14.23a6.19,6.19,0,0,1,.4,2.13c0,1.21.06,1.57.06,4.64S30.4,24.43,30.35,25.64Z" transform="translate(-1 -1)"/><path class="cls-1" d="M27.13,13.49a1.38,1.38,0,1,0,0,2.76h0a1.38,1.38,0,0,0,1.38-1.38h0A1.38,1.38,0,0,0,27.13,13.49Z" transform="translate(-1 -1)"/><path class="cls-1" d="M21,15.1A5.9,5.9,0,1,0,26.9,21,5.9,5.9,0,0,0,21,15.1Zm0,9.73A3.83,3.83,0,1,1,24.83,21,3.84,3.84,0,0,1,21,24.83Z" transform="translate(-1 -1)"/></svg>