<svg id="Objects" xmlns="http://www.w3.org/2000/svg" width="40" height="40" viewBox="0 0 40 40"><defs><style>.cls-1{fill:#fff;}</style></defs><path class="cls-1" d="M21,1A20,20,0,1,0,41,21,20,20,0,0,0,21,1ZM10.89,12.37H31.11a2.31,2.31,0,0,1,.93.22l-9.52,9.46a2.15,2.15,0,0,1-3,0L10,12.59A2.31,2.31,0,0,1,10.89,12.37ZM8.73,27.47V14.53A2.08,2.08,0,0,1,9,13.61L16.39,21,9,28.39A2.08,2.08,0,0,1,8.73,27.47Zm22.38,2.16H10.89a2.31,2.31,0,0,1-.93-.22L17.41,22l1.05,1.05a3.6,3.6,0,0,0,5.08,0L24.59,22,32,29.41A2.31,2.31,0,0,1,31.11,29.63Zm2.16-2.16a2.08,2.08,0,0,1-.22.92L25.61,21l7.44-7.39a2.08,2.08,0,0,1,.22.92Z" transform="translate(-1 -1)"/></svg>