<svg id="Layer_1" data-name="Layer 1" xmlns="http://www.w3.org/2000/svg" width="40" height="40" viewBox="0 0 40 40"><defs><style>.cls-1{fill:#fff;}</style></defs><path class="cls-1" d="M21,1A20,20,0,1,0,41,21,20,20,0,0,0,21,1Zm9.13,15.59c0,.2,0,.4,0,.6A13,13,0,0,1,17.26,30.25h-.18a13.08,13.08,0,0,1-7-2.06,10,10,0,0,0,1.09.06,9.19,9.19,0,0,0,5.7-2,4.57,4.57,0,0,1-4.28-3.18A4.68,4.68,0,0,0,14.63,23,4.6,4.6,0,0,1,11,18.52v-.06A4.56,4.56,0,0,0,13,19,4.61,4.61,0,0,1,11.6,12.9a13,13,0,0,0,9.47,4.8,4.59,4.59,0,0,1,7.82-4.19A9.18,9.18,0,0,0,31.8,12.4a4.62,4.62,0,0,1-2,2.54,9.26,9.26,0,0,0,2.63-.72A9.21,9.21,0,0,1,30.13,16.59Z" transform="translate(-1 -1)"/></svg>