<svg id="Layer_1" data-name="Layer 1" xmlns="http://www.w3.org/2000/svg" xmlns:xlink="http://www.w3.org/1999/xlink" width="148.75" height="40.65" viewBox="0 0 148.75 40.65"><defs><style>.cls-1,.cls-5{fill:#00a69a;}.cls-2{fill:#fff;}.cls-23,.cls-3{fill:#fab41c;}.cls-3{opacity:0.1;}.cls-4{fill:none;}.cls-5{opacity:0.3;}.cls-6{fill:url(#linear-gradient);}.cls-7{fill:url(#linear-gradient-2);}.cls-8{fill:url(#linear-gradient-3);}.cls-9{fill:url(#linear-gradient-4);}.cls-10{fill:url(#linear-gradient-5);}.cls-11{fill:url(#linear-gradient-6);}.cls-12{fill:url(#linear-gradient-7);}.cls-13{fill:url(#linear-gradient-8);}.cls-14{fill:url(#linear-gradient-9);}.cls-15{fill:url(#linear-gradient-10);}.cls-16{fill:url(#linear-gradient-11);}.cls-17{fill:url(#linear-gradient-12);}.cls-18{fill:url(#linear-gradient-13);}.cls-19{fill:url(#linear-gradient-14);}.cls-20{fill:url(#linear-gradient-15);}.cls-21{fill:url(#linear-gradient-16);}.cls-22{fill:url(#linear-gradient-17);}.cls-24{fill:url(#linear-gradient-18);}.cls-25{fill:url(#linear-gradient-19);}.cls-26{fill:url(#linear-gradient-20);}.cls-27{fill:url(#linear-gradient-21);}.cls-28{fill:url(#linear-gradient-22);}.cls-29{fill:url(#linear-gradient-23);}</style><linearGradient id="linear-gradient" x1="45.44" y1="14.05" x2="68.99" y2="37.91" gradientUnits="userSpaceOnUse"><stop offset="0" stop-color="#00e09a"/><stop offset="1" stop-color="#00a69a"/></linearGradient><linearGradient id="linear-gradient-2" x1="35.96" y1="23.41" x2="59.51" y2="47.27" xlink:href="#linear-gradient"/><linearGradient id="linear-gradient-3" x1="44.99" y1="14.49" x2="68.54" y2="38.35" xlink:href="#linear-gradient"/><linearGradient id="linear-gradient-4" x1="40.06" y1="19.36" x2="63.61" y2="43.22" xlink:href="#linear-gradient"/><linearGradient id="linear-gradient-5" x1="44.59" y1="14.89" x2="68.14" y2="38.75" xlink:href="#linear-gradient"/><linearGradient id="linear-gradient-6" x1="20.98" y1="24.95" x2="-3.84" y2="50.78" xlink:href="#linear-gradient"/><linearGradient id="linear-gradient-7" x1="16.31" y1="20.48" x2="-72.67" y2="113.07" xlink:href="#linear-gradient"/><linearGradient id="linear-gradient-8" x1="20.12" y1="24.15" x2="-68.86" y2="116.73" xlink:href="#linear-gradient"/><linearGradient id="linear-gradient-9" x1="18.28" y1="22.37" x2="-35.77" y2="78.61" xlink:href="#linear-gradient"/><linearGradient id="linear-gradient-10" x1="15.29" y1="19.5" x2="-73.69" y2="112.09" xlink:href="#linear-gradient"/><linearGradient id="linear-gradient-11" x1="19.86" y1="23.9" x2="-69.12" y2="116.48" xlink:href="#linear-gradient"/><linearGradient id="linear-gradient-12" x1="16.85" y1="21.01" x2="-72.12" y2="113.59" xlink:href="#linear-gradient"/><linearGradient id="linear-gradient-13" x1="15.8" y1="19.99" x2="-73.18" y2="112.58" xlink:href="#linear-gradient"/><linearGradient id="linear-gradient-14" x1="14.27" y1="18.53" x2="-74.71" y2="111.11" xlink:href="#linear-gradient"/><linearGradient id="linear-gradient-15" x1="11.13" y1="15.51" x2="-77.85" y2="108.09" xlink:href="#linear-gradient"/><linearGradient id="linear-gradient-16" x1="14.78" y1="19.02" x2="-74.19" y2="111.6" xlink:href="#linear-gradient"/><linearGradient id="linear-gradient-17" x1="17.81" y1="21.92" x2="-71.17" y2="114.51" xlink:href="#linear-gradient"/><linearGradient id="linear-gradient-18" x1="64.69" y1="248.05" x2="64.88" y2="235.37" gradientTransform="translate(-30.01 -206.34) rotate(1.72)" gradientUnits="userSpaceOnUse"><stop offset="0" stop-color="#ff7100"/><stop offset="1" stop-color="#fab41c"/></linearGradient><linearGradient id="linear-gradient-19" x1="64.85" y1="248.23" x2="64.21" y2="243.42" xlink:href="#linear-gradient-18"/><linearGradient id="linear-gradient-20" x1="64.81" y1="249.41" x2="64.25" y2="244.58" xlink:href="#linear-gradient-18"/><linearGradient id="linear-gradient-21" x1="64.84" y1="251.05" x2="64.87" y2="247.77" xlink:href="#linear-gradient-18"/><linearGradient id="linear-gradient-22" x1="49.3" y1="22.5" x2="28.12" y2="44.53" xlink:href="#linear-gradient"/><linearGradient id="linear-gradient-23" x1="56.82" y1="19.07" x2="19.63" y2="57.77" xlink:href="#linear-gradient"/></defs><rect class="cls-1" x="58.43" y="0.86" width="40.99" height="19.47" rx="9.73"/><path class="cls-2" d="M74.67,22.22v5c-.38.19-.74.36-1.07.49a8.67,8.67,0,0,1-1,.33,8.48,8.48,0,0,1-2.28.3,6.49,6.49,0,0,1-4.64-1.76,5.88,5.88,0,0,1-1.87-4.44,5.83,5.83,0,0,1,1.82-4.38A6.24,6.24,0,0,1,70.13,16a8,8,0,0,1,2.5.37c.37.12.7.23,1,.35a5.58,5.58,0,0,1,.85.42V19c-.58-.34-1-.59-1.4-.76a10.28,10.28,0,0,0-1-.39,6.52,6.52,0,0,0-1.93-.3,4.49,4.49,0,0,0-3.27,1.28,4.34,4.34,0,0,0-1.32,3.24,4.32,4.32,0,0,0,1.32,3.31,5,5,0,0,0,3.55,1.25,6.78,6.78,0,0,0,1.65-.2l.52-.16c.15-.06.29-.11.41-.17V23.76H70.62V22.22Z" transform="translate(-1.85 -11.53)"/><path class="cls-2" d="M83.37,17a2.7,2.7,0,0,1,.83,1.09,3.76,3.76,0,0,1,.27,1.46,3.51,3.51,0,0,1-.28,1.43,2.93,2.93,0,0,1-.86,1.1,4.65,4.65,0,0,1-2.94.85H78.58v5.25H76.89v-12h3.6a5.52,5.52,0,0,1,1.62.22A3.41,3.41,0,0,1,83.37,17Zm-1.24,3.89a1.5,1.5,0,0,0,.44-.56,1.87,1.87,0,0,0,.16-.8,1.82,1.82,0,0,0-.15-.77,1.48,1.48,0,0,0-.43-.56,2.2,2.2,0,0,0-.73-.38,3.28,3.28,0,0,0-1-.13H78.58v3.7h1.76A2.73,2.73,0,0,0,82.13,20.85Z" transform="translate(-1.85 -11.53)"/><path class="cls-2" d="M95.93,17.71a5.92,5.92,0,0,1,1.84,4.41,5.89,5.89,0,0,1-1.84,4.39,6.64,6.64,0,0,1-9,0,5.94,5.94,0,0,1-1.82-4.41,5.86,5.86,0,0,1,1.81-4.39,6.66,6.66,0,0,1,9,0Zm-1.27,7.62a4.49,4.49,0,0,0,0-6.42,4.62,4.62,0,0,0-6.49,0,4.56,4.56,0,0,0,0,6.42,4.65,4.65,0,0,0,6.51,0Z" transform="translate(-1.85 -11.53)"/><path class="cls-1" d="M60.26,38h3.21V49.29h6.08v2.44H60.26Z" transform="translate(-1.85 -11.53)"/><path class="cls-1" d="M72.67,38h3.21V51.73H72.67Z" transform="translate(-1.85 -11.53)"/><path class="cls-1" d="M87.9,44.72a3,3,0,0,1,2.27,1A3.43,3.43,0,0,1,91,48.06a3.17,3.17,0,0,1-1.3,2.72,5.8,5.8,0,0,1-3.49.95H79.68V38h5a16.63,16.63,0,0,1,2.36.16,6.11,6.11,0,0,1,1.78.54,2.76,2.76,0,0,1,1.12,1,3.14,3.14,0,0,1,.39,1.64,3.85,3.85,0,0,1-.63,2.16,2.51,2.51,0,0,1-1.83,1.15Zm-2.84-.91a2.39,2.39,0,0,0,1.55-.44,1.53,1.53,0,0,0,.54-1.25,1.51,1.51,0,0,0-.54-1.24,2.28,2.28,0,0,0-1.52-.44h-2.2v3.37Zm.21,5.48A3.23,3.23,0,0,0,87,48.9a1.46,1.46,0,0,0,.59-1.32,1.44,1.44,0,0,0-.6-1.32,3.31,3.31,0,0,0-1.78-.39H82.89v3.42Z" transform="translate(-1.85 -11.53)"/><path class="cls-1" d="M102.15,51.73l-2.91-5.49H97.63v5.49H94.42V38h6.21a4.59,4.59,0,0,1,3.24,1.1,3.94,3.94,0,0,1,1.17,3,4.08,4.08,0,0,1-.7,2.45,3.51,3.51,0,0,1-2.11,1.3l3.35,5.86Zm-4.52-7.92H100a2.33,2.33,0,0,0,1.5-.43,1.53,1.53,0,0,0,.53-1.26,1.51,1.51,0,0,0-.53-1.23,2.39,2.39,0,0,0-1.5-.43H97.63Z" transform="translate(-1.85 -11.53)"/><path class="cls-1" d="M118.1,51.73l-.88-2.87h-4.93l-.88,2.87H108L112.69,38h4.12l4.71,13.73Zm-1.53-5.17-1.79-5.72h-.08l-1.77,5.72Z" transform="translate(-1.85 -11.53)"/><path class="cls-1" d="M132,51.73l-2.92-5.49h-1.6v5.49h-3.21V38h6.2a4.56,4.56,0,0,1,3.24,1.1,3.91,3.91,0,0,1,1.18,3,4.08,4.08,0,0,1-.71,2.45,3.45,3.45,0,0,1-2.1,1.3l3.34,5.86Zm-4.52-7.92h2.35a2.33,2.33,0,0,0,1.5-.43,1.51,1.51,0,0,0,.54-1.26,1.49,1.49,0,0,0-.54-1.23,2.39,2.39,0,0,0-1.5-.43h-2.35Z" transform="translate(-1.85 -11.53)"/><path class="cls-1" d="M145.87,46v5.76h-3.24V46l-4.74-8h3.75l2.57,4.87h.08L146.86,38h3.74Z" transform="translate(-1.85 -11.53)"/><circle class="cls-3" cx="25.61" cy="22.22" r="8.99"/><path class="cls-4" d="M15.84,20.63l-.26-.1Z" transform="translate(-1.85 -11.53)"/><path class="cls-4" d="M15.13,20.37l-.27-.1Z" transform="translate(-1.85 -11.53)"/><path class="cls-4" d="M17.19,21.16l.68.29.05,0-.77-.32Z" transform="translate(-1.85 -11.53)"/><path class="cls-4" d="M16.53,20.9l-.22-.09Z" transform="translate(-1.85 -11.53)"/><path class="cls-4" d="M14.41,20.11l-.28-.1Z" transform="translate(-1.85 -11.53)"/><path class="cls-4" d="M12.9,19.62l-.22-.07Z" transform="translate(-1.85 -11.53)"/><path class="cls-4" d="M18.77,21.84l-.39-.17Z" transform="translate(-1.85 -11.53)"/><path class="cls-4" d="M21.31,23l0,0h0Z" transform="translate(-1.85 -11.53)"/><path class="cls-4" d="M32.54,22.34l.09,0-.09,0Z" transform="translate(-1.85 -11.53)"/><path class="cls-4" d="M47.57,18.21c-.53,0-1.1.09-1.71.16C46.47,18.3,47,18.25,47.57,18.21Z" transform="translate(-1.85 -11.53)"/><path class="cls-4" d="M13.67,19.86l-.27-.09Z" transform="translate(-1.85 -11.53)"/><path class="cls-4" d="M20.86,22.8c-.54-.26-1.25-.59-2.06-.95C19.61,22.21,20.32,22.54,20.86,22.8Z" transform="translate(-1.85 -11.53)"/><path class="cls-4" d="M21.17,23l-.24-.11Z" transform="translate(-1.85 -11.53)"/><path class="cls-5" d="M46.22,12.53v-1c-9.92.65-17.09,7.65-19.17,9.92h.18A39.84,39.84,0,0,1,46.22,12.53Z" transform="translate(-1.85 -11.53)"/><path class="cls-5" d="M47.58,14.71V13.33C38.35,14,30.49,19.49,28,21.46h.13C36.35,15.92,47.58,14.71,47.58,14.71Z" transform="translate(-1.85 -11.53)"/><path class="cls-5" d="M32.63,22.3c.88-.41,2-.88,3.14-1.35l.37-.15a42.34,42.34,0,0,1,4.33-1.46,36.8,36.8,0,0,1,4.11-.81c.44-.06.87-.12,1.28-.16.61-.07,1.18-.12,1.71-.16l.56,0,.91-.06.73,0h.16v-1.9c-8.6-1.06-17.54,3.48-20.8,5.36a13.46,13.46,0,0,1,3.41.8Z" transform="translate(-1.85 -11.53)"/><path class="cls-5" d="M6.12,12.53v-1c9.92.65,17.09,7.65,19.17,9.92h-.18A39.84,39.84,0,0,0,6.12,12.53Z" transform="translate(-1.85 -11.53)"/><path class="cls-5" d="M4.76,14.71V13.33C14,14,21.85,19.49,24.39,21.46h-.13C16,15.92,4.76,14.71,4.76,14.71Z" transform="translate(-1.85 -11.53)"/><path class="cls-5" d="M19.71,22.3c-.88-.41-2-.88-3.14-1.35l-.37-.15a42.34,42.34,0,0,0-4.33-1.46,36.8,36.8,0,0,0-4.11-.81c-.44-.06-.87-.12-1.29-.16-.6-.07-1.17-.12-1.7-.16l-.56,0-.91-.06-.73,0H2.41v-1.9C11,15.12,20.69,19.86,24,21.73a18,18,0,0,0-2.63,1.32Z" transform="translate(-1.85 -11.53)"/><path class="cls-5" d="M49.77,18.08l-.73,0,.73,0h0Z" transform="translate(-1.85 -11.53)"/><path class="cls-6" d="M49.77,18.08l-.73,0,.73,0h0Z" transform="translate(-1.85 -11.53)"/><path class="cls-5" d="M35.77,21c-1.18.47-2.26.94-3.14,1.35C33.51,21.89,34.59,21.42,35.77,21Z" transform="translate(-1.85 -11.53)"/><path class="cls-7" d="M35.77,21c-1.18.47-2.26.94-3.14,1.35C33.51,21.89,34.59,21.42,35.77,21Z" transform="translate(-1.85 -11.53)"/><path class="cls-5" d="M49,18.11l-.91.06Z" transform="translate(-1.85 -11.53)"/><path class="cls-8" d="M49,18.11l-.91.06Z" transform="translate(-1.85 -11.53)"/><path class="cls-5" d="M36.14,20.8a42.34,42.34,0,0,1,4.33-1.46,36.8,36.8,0,0,1,4.11-.81,36.8,36.8,0,0,0-4.11.81A42.34,42.34,0,0,0,36.14,20.8Z" transform="translate(-1.85 -11.53)"/><path class="cls-9" d="M36.14,20.8a42.34,42.34,0,0,1,4.33-1.46,36.8,36.8,0,0,1,4.11-.81,36.8,36.8,0,0,0-4.11.81A42.34,42.34,0,0,0,36.14,20.8Z" transform="translate(-1.85 -11.53)"/><path class="cls-5" d="M48.13,18.17l-.56,0Z" transform="translate(-1.85 -11.53)"/><path class="cls-10" d="M48.13,18.17l-.56,0Z" transform="translate(-1.85 -11.53)"/><path class="cls-11" d="M18.41,46.15a4.72,4.72,0,0,0-2.06-.86l-.76-.18-.43-.1a8,8,0,0,1-1.72-.53A2.43,2.43,0,0,1,12.05,43a3.37,3.37,0,0,1,.38-2l.12-.29a1.14,1.14,0,0,0-.11-1l-.15-.19a.91.91,0,0,1-.15-.21.58.58,0,0,1,0-.53.72.72,0,0,1,.48-.33.17.17,0,0,0,.15-.18.18.18,0,0,0-.16-.17.51.51,0,0,1-.38-.26c-.07-.12-.1-.3,0-.37A2.21,2.21,0,0,0,13,36.37a1,1,0,0,0,0-.58A.22.22,0,0,0,13,35.7a3.84,3.84,0,0,1-.92-.77,1.13,1.13,0,0,1-.22-1,1.72,1.72,0,0,1,.7-.72l.73-.48a7.35,7.35,0,0,0,1.9-1.53A6.13,6.13,0,0,0,16,29.4c.09-.25.18-.5.29-.74a13.86,13.86,0,0,1,2.14-3.25A12.4,12.4,0,0,1,21.35,23l0,0L21.17,23l-.24-.11-.07,0c-.54-.26-1.25-.59-2.06-.95h0l-.39-.17-.46-.2-.05,0-.68-.29h0l-.62-.25-.22-.09-.47-.18-.26-.1-.45-.16-.27-.1-.45-.16-.28-.1-.46-.15-.27-.09-.5-.15-.22-.07L12,19.34A41.56,41.56,0,0,0,4.7,18.19c-.57,0-1.08-.07-1.5-.08l-.55,0a.87.87,0,0,0-.79,1V41.57c0,1.09,0,2.18,0,3.27,0,1.77.22,2.24,1.89,2.92s3.37,1.34,5.09,1.91a27.79,27.79,0,0,0,12,1.66,9,9,0,0,0-.44-2.46A5,5,0,0,0,18.41,46.15Z" transform="translate(-1.85 -11.53)"/><path class="cls-5" d="M16.31,20.81l-.47-.18Z" transform="translate(-1.85 -11.53)"/><path class="cls-12" d="M16.31,20.81l-.47-.18Z" transform="translate(-1.85 -11.53)"/><path class="cls-5" d="M21.31,23,21.17,23Z" transform="translate(-1.85 -11.53)"/><path class="cls-13" d="M21.31,23,21.17,23Z" transform="translate(-1.85 -11.53)"/><path class="cls-5" d="M18.77,21.84h0Z" transform="translate(-1.85 -11.53)"/><path class="cls-14" d="M18.77,21.84h0Z" transform="translate(-1.85 -11.53)"/><path class="cls-5" d="M14.86,20.27l-.45-.16Z" transform="translate(-1.85 -11.53)"/><path class="cls-15" d="M14.86,20.27l-.45-.16Z" transform="translate(-1.85 -11.53)"/><path class="cls-5" d="M20.93,22.84l-.07,0Z" transform="translate(-1.85 -11.53)"/><path class="cls-16" d="M20.93,22.84l-.07,0Z" transform="translate(-1.85 -11.53)"/><path class="cls-5" d="M17.15,21.15l-.62-.25Z" transform="translate(-1.85 -11.53)"/><path class="cls-17" d="M17.15,21.15l-.62-.25Z" transform="translate(-1.85 -11.53)"/><path class="cls-5" d="M15.58,20.53l-.45-.16Z" transform="translate(-1.85 -11.53)"/><path class="cls-18" d="M15.58,20.53l-.45-.16Z" transform="translate(-1.85 -11.53)"/><path class="cls-5" d="M13.4,19.77l-.5-.15Z" transform="translate(-1.85 -11.53)"/><path class="cls-19" d="M13.4,19.77l-.5-.15Z" transform="translate(-1.85 -11.53)"/><path class="cls-5" d="M12,19.34l.73.21L12,19.34A43,43,0,0,0,3.2,18.11h0A43,43,0,0,1,12,19.34Z" transform="translate(-1.85 -11.53)"/><path class="cls-20" d="M12,19.34l.73.21L12,19.34A43,43,0,0,0,3.2,18.11h0A43,43,0,0,1,12,19.34Z" transform="translate(-1.85 -11.53)"/><path class="cls-5" d="M14.13,20l-.46-.15Z" transform="translate(-1.85 -11.53)"/><path class="cls-21" d="M14.13,20l-.46-.15Z" transform="translate(-1.85 -11.53)"/><path class="cls-5" d="M18.38,21.67l-.46-.2Z" transform="translate(-1.85 -11.53)"/><path class="cls-22" d="M18.38,21.67l-.46-.2Z" transform="translate(-1.85 -11.53)"/><path class="cls-23" d="M31.65,41.86a.07.07,0,0,1-.09,0,.08.08,0,0,1,0-.11c.19-.09.37-.2.55-.3a.08.08,0,1,1,.09.13l-.57.32Zm1.1-.65s-.07,0-.08,0a.07.07,0,0,1,0-.11l.5-.38a.08.08,0,0,1,.11,0,.08.08,0,0,1,0,.12c-.16.13-.34.26-.51.38Zm1-.81a.07.07,0,0,1-.07,0,.09.09,0,0,1,0-.12l.45-.44a.07.07,0,0,1,.11,0,.08.08,0,0,1,0,.12c-.14.15-.29.31-.45.45Zm.87-.93a.1.1,0,0,1-.07,0,.08.08,0,0,1,0-.11l.38-.51a.11.11,0,0,1,.12,0,.09.09,0,0,1,0,.11l-.39.52ZM23.63,42h-.05A6.1,6.1,0,0,1,23,41.7a.08.08,0,0,1,0-.11.09.09,0,0,1,.11,0l.57.29a.08.08,0,0,1,0,.11A.07.07,0,0,1,23.63,42Zm11.72-3.58a.06.06,0,0,1-.06,0,.08.08,0,0,1,0-.11c.11-.18.21-.37.31-.55a.07.07,0,0,1,.1,0,.08.08,0,0,1,0,.11c-.1.19-.2.38-.31.56A.07.07,0,0,1,35.35,38.42Zm-12.83,3a.09.09,0,0,1-.07,0L21.93,41a.07.07,0,0,1,0-.11.08.08,0,0,1,.11,0l.52.37a.07.07,0,0,1,0,.11S22.54,41.38,22.52,41.38Zm13.41-4.1h0a.1.1,0,0,1-.05-.11,6,6,0,0,0,.23-.59.09.09,0,0,1,.1,0,.08.08,0,0,1,.05.11c-.07.2-.14.4-.23.6A.07.07,0,0,1,35.93,37.28ZM21.49,40.61a.09.09,0,0,1-.07,0L21,40.16a.08.08,0,1,1,.12-.12,4.68,4.68,0,0,0,.46.43.09.09,0,0,1,0,.12Zm14.85-4.53h0a.08.08,0,0,1,0-.1c0-.2.1-.41.14-.62a.08.08,0,0,1,.1-.06.08.08,0,0,1,.06.09q-.06.31-.15.63S36.37,36.07,36.34,36.08ZM20.59,39.71a.08.08,0,0,1-.08,0c-.14-.17-.28-.34-.4-.51a.08.08,0,0,1,0-.11.07.07,0,0,1,.11,0c.13.16.26.33.4.49a.08.08,0,0,1,0,.11Zm16-4.88h0a.1.1,0,0,1-.07-.09q0-.32.06-.63a.08.08,0,0,1,.08-.08.08.08,0,0,1,.08.09c0,.21,0,.42-.06.64A.09.09,0,0,1,36.59,34.83ZM19.82,38.69a.1.1,0,0,1-.09,0l-.33-.56a.09.09,0,0,1,0-.11.08.08,0,0,1,.11,0l.33.54a.09.09,0,0,1,0,.11Zm16.84-5.14h0a.07.07,0,0,1-.08-.08c0-.21,0-.42,0-.63a.09.09,0,0,1,.08-.09.08.08,0,0,1,.08.08c0,.21,0,.43,0,.64A.09.09,0,0,1,36.66,33.55Zm-17.46,4a.09.09,0,0,1-.09,0c-.09-.19-.17-.39-.25-.59a.08.08,0,0,1,.05-.11.09.09,0,0,1,.1.05c.08.19.16.39.25.58a.08.08,0,0,1,0,.11Zm17.34-5.29h0a.07.07,0,0,1-.09-.07l-.12-.62a.08.08,0,0,1,.06-.1h0a.08.08,0,0,1,.09.06c.05.21.09.43.13.64A.09.09,0,0,1,36.54,32.28Zm-17.79,4.1a.08.08,0,0,1-.1-.05c-.06-.21-.12-.42-.17-.63v0a.07.07,0,0,1,.06-.09.08.08,0,0,1,.1.06v0c.05.2.1.41.16.61a.07.07,0,0,1-.05.1ZM36.26,31a.09.09,0,0,1-.1-.05c-.06-.2-.13-.4-.2-.6a.07.07,0,0,1,0-.1.08.08,0,0,1,.11,0l.21.61a.08.08,0,0,1-.06.1ZM18.45,35.12h0s-.09,0-.09-.07c0-.21-.06-.43-.08-.64a.1.1,0,0,1,.07-.09.08.08,0,0,1,.09.08,6.17,6.17,0,0,0,.08.62A.09.09,0,0,1,18.45,35.12ZM35.8,29.84a.09.09,0,0,1-.09,0c-.09-.19-.18-.38-.28-.57a.07.07,0,0,1,0-.11.09.09,0,0,1,.11,0c.1.19.2.38.29.58a.08.08,0,0,1,0,.11Zm-17.46,4h0a.08.08,0,0,1-.08-.08c0-.22,0-.43,0-.65a.07.07,0,0,1,.08-.07.08.08,0,0,1,.08.08c0,.21,0,.42,0,.63A.08.08,0,0,1,18.34,33.84Zm16.85-5.12a.08.08,0,0,1-.09,0c-.11-.18-.24-.35-.36-.52a.08.08,0,0,1,0-.11.09.09,0,0,1,.12,0l.37.53a.08.08,0,0,1,0,.11ZM18.41,32.57h0a.08.08,0,0,1-.07-.09c0-.21.06-.43.1-.64a.08.08,0,0,1,.09-.06.09.09,0,0,1,.07.1,4.22,4.22,0,0,0-.1.62A.1.1,0,0,1,18.41,32.57Zm16-4.87a.08.08,0,0,1-.08,0c-.14-.16-.28-.32-.43-.47a.07.07,0,0,1,0-.11.08.08,0,0,1,.11,0c.15.15.3.31.44.47a.07.07,0,0,1,0,.11ZM18.66,31.32h0a.1.1,0,0,1-.06-.1c.06-.21.12-.42.19-.62a.09.09,0,0,1,.16.06,6,6,0,0,0-.19.6A.09.09,0,0,1,18.66,31.32ZM33.51,26.8a.1.1,0,0,1-.07,0l-.49-.4a.09.09,0,0,1,0-.11.09.09,0,0,1,.12,0l.5.41a.08.08,0,0,1,0,.11S33.53,26.8,33.51,26.8ZM19.08,30.11s0,0,0,0A.08.08,0,0,1,19,30c.08-.19.17-.39.27-.58a.08.08,0,0,1,.11,0,.08.08,0,0,1,0,.11l-.27.57S19.1,30.11,19.08,30.11ZM32.49,26h-.06a6,6,0,0,0-.54-.33.08.08,0,0,1,.08-.14l.55.33a.07.07,0,0,1,0,.11A.1.1,0,0,1,32.49,26ZM19.66,29H19.6a.09.09,0,0,1,0-.11,5.07,5.07,0,0,1,.36-.54.07.07,0,0,1,.11,0,.09.09,0,0,1,0,.11c-.12.17-.24.35-.35.53A.1.1,0,0,1,19.66,29Zm11.72-3.57h-.05l-.59-.25a.07.07,0,0,1,0-.1.08.08,0,0,1,.1-.05l.59.26a.07.07,0,0,1,0,.1A.08.08,0,0,1,31.38,25.41Zm-11,2.52s0,0-.06,0,0-.07,0-.11.28-.33.43-.49a.08.08,0,0,1,.11.11l-.41.48A.05.05,0,0,1,20.39,27.93Zm9.8-3h0l-.62-.17a.08.08,0,0,1-.06-.09.08.08,0,0,1,.1-.06,6.25,6.25,0,0,1,.62.16.08.08,0,0,1,.06.1A.12.12,0,0,1,30.19,25ZM21.27,27a.11.11,0,0,1-.08,0,.08.08,0,0,1,0-.11,6.4,6.4,0,0,1,.49-.42.08.08,0,1,1,.1.12q-.24.2-.48.42ZM29,24.66h0l-.62-.08a.08.08,0,0,1-.08-.08.09.09,0,0,1,.09-.08l.64.08a.1.1,0,0,1,.07.09A.09.09,0,0,1,29,24.66Zm-6.69,1.53a.07.07,0,0,1-.08,0,.07.07,0,0,1,0-.11c.17-.12.35-.24.54-.35a.07.07,0,0,1,.11,0,.09.09,0,0,1,0,.11,6,6,0,0,0-.53.34Zm5.41-1.64H27a.08.08,0,0,1-.08-.08A.07.07,0,0,1,27,24.4c.22,0,.43,0,.65,0a.09.09,0,0,1,.08.08A.1.1,0,0,1,27.67,24.55Zm-4.31,1s-.08,0-.09-.05a.07.07,0,0,1,0-.1,6.28,6.28,0,0,1,.59-.27.08.08,0,1,1,.06.14l-.58.27Zm3-.93h0l-.63.1a.08.08,0,0,1-.09-.06.07.07,0,0,1,.06-.09c.21,0,.43-.08.64-.11a.09.09,0,0,1,.09.08S26.44,24.6,26.4,24.61ZM24.53,25a.07.07,0,0,1-.09-.05.07.07,0,0,1,0-.1,6.36,6.36,0,0,1,.62-.19.07.07,0,0,1,.09.06s0,.08-.05.1a6.13,6.13,0,0,0-.61.18Z" transform="translate(-1.85 -11.53)"/><path class="cls-24" d="M32.45,29.29a6.42,6.42,0,0,0-1.69-1.43,6.07,6.07,0,0,0-2.48-.75l-.51,0a6.38,6.38,0,0,0-6.44,6.45A7.87,7.87,0,0,0,23,37.58l0,0,.41.58a9.33,9.33,0,0,1,1.25,2.07l0,.1a2.57,2.57,0,0,1,.27.94.51.51,0,0,1-.16.3.54.54,0,0,0-.17.57c.1.41.6.42,1.19.44l3.07.09c.49,0,1,0,1.11-.37a.64.64,0,0,0-.15-.62.42.42,0,0,1-.13-.23,4.5,4.5,0,0,1,.87-2,13.89,13.89,0,0,1,.89-1.15l.38-.47.2-.25A6.94,6.94,0,0,0,34,33.94,6,6,0,0,0,32.45,29.29Zm-3.54,7h0l-.7.63-.09.07c-.08.07-.19.15-.2.21a3.25,3.25,0,0,0,0,.85c0,.14,0,.27,0,.38a1,1,0,0,0,0,.17c0,.4,0,.74-.17.91a.33.33,0,0,1-.23.09h0c-.39,0-.35-.58-.32-1,0-.08,0-.15,0-.21l0-1.24-.37-.4-.24-.26-.09-.08c-.22-.2-.58-.52-.49-.84a.44.44,0,0,1,.41-.28h0c.22,0,.52.33.86.71l.12.14.08.1.11.13,0,0,.17-.19.17-.16c.27-.28.61-.63.91-.62h0a.31.31,0,0,1,.25.13.4.4,0,0,1,.11.31A.82.82,0,0,1,28.91,36.31Z" transform="translate(-1.85 -11.53)"/><path class="cls-25" d="M29.21,43.23a4.28,4.28,0,0,0-.92-.09H26.87l-.31,0h-.34c-.4,0-1.24,0-1.29.49a.38.38,0,0,0,.13.36,1.73,1.73,0,0,0,1.1.27h1.57l1,0c.51,0,1,0,1.06-.45S29.47,43.29,29.21,43.23Z" transform="translate(-1.85 -11.53)"/><path class="cls-26" d="M29.17,44.72a5.17,5.17,0,0,0-.92-.09H26.51l-.34,0c-.4,0-1.23,0-1.29.49a.43.43,0,0,0,.13.36,1.8,1.8,0,0,0,1.1.28h1.16l.41,0,1,0c.52,0,1,0,1.06-.45S29.43,44.78,29.17,44.72Z" transform="translate(-1.85 -11.53)"/><path class="cls-27" d="M28.44,46.08h0a3.81,3.81,0,0,0-.77-.08h-.85c-.5,0-1.14,0-1.19.44a.43.43,0,0,0,.12.38,1.48,1.48,0,0,0,1,.23h.82l.31,0c.33,0,1,0,1.06-.46S28.66,46.15,28.44,46.08Z" transform="translate(-1.85 -11.53)"/><circle class="cls-23" cx="18.6" cy="32.43" r="1.44" transform="translate(-8.67 -6.51) rotate(-13.01)"/><path class="cls-2" d="M19.51,32.39a.07.07,0,0,1-.06.1l-.55.13.13.55a.08.08,0,0,1-.07.1l-.32.08a.09.09,0,0,1-.1-.07l-.13-.55-.55.13a.08.08,0,0,1-.1-.07l-.08-.31a.09.09,0,0,1,.07-.11l.55-.13-.13-.54a.09.09,0,0,1,.07-.11l.31-.07a.08.08,0,0,1,.11.06l.13.55.54-.13a.09.09,0,0,1,.11.07Z" transform="translate(-1.85 -11.53)"/><circle class="cls-23" cx="34.64" cy="39.32" r="1.04" transform="translate(-9.81 -2.72) rotate(-13.01)"/><path class="cls-2" d="M35.3,39.29a.07.07,0,0,1,0,.08l-.39.09.09.39a.06.06,0,0,1-.05.08l-.23,0a.05.05,0,0,1-.07,0l-.1-.39-.39.09a.06.06,0,0,1-.08-.05L34,39.35a.05.05,0,0,1,.05-.07l.39-.1-.09-.39a.06.06,0,0,1,.05-.08l.23-.05a.07.07,0,0,1,.08.05l.09.39.39-.09a.06.06,0,0,1,.08.05Z" transform="translate(-1.85 -11.53)"/><circle class="cls-23" cx="29.77" cy="13.64" r="1.43"/><path class="cls-2" d="M31.52,24.75a.44.44,0,0,0-.33.52.45.45,0,0,0,.52.33.44.44,0,0,0,.33-.52A.43.43,0,0,0,31.52,24.75Zm.17.75a.33.33,0,0,1-.15-.65.33.33,0,1,1,.15.65Z" transform="translate(-1.85 -11.53)"/><path class="cls-2" d="M32.54,25.11l-.07-.28-.19,0a.94.94,0,0,0-.16-.23l.1-.16L32,24.33l-.11.16a.81.81,0,0,0-.27,0l-.05-.19-.28.07.05.19a.79.79,0,0,0-.23.16l-.17-.1-.15.24.16.11a.61.61,0,0,0,0,.27l-.19,0,.06.28.19-.05a.66.66,0,0,0,.17.23l-.11.17.25.15.1-.16a.86.86,0,0,0,.28,0l0,.19L32,26l0-.19a.76.76,0,0,0,.23-.17l.16.11.15-.25-.16-.1a.87.87,0,0,0,.05-.28Zm-.4-.06a.54.54,0,0,1-.4.64.52.52,0,0,1-.64-.4.53.53,0,0,1,.4-.64A.55.55,0,0,1,32.14,25.05Z" transform="translate(-1.85 -11.53)"/><path class="cls-28" d="M39.88,32.07s0,0,0,0l0,.37v.21A1,1,0,0,0,39.88,32.07Z" transform="translate(-1.85 -11.53)"/><path class="cls-29" d="M49.82,18.09h0l-.73,0-.91.06-.56,0c-.53,0-1.1.09-1.71.16-.41,0-.84.1-1.28.16a36.8,36.8,0,0,0-4.11.81l-1.19.35c-1.07.33-2.13.71-3.14,1.11l-.37.15c-.93.36-1.78.73-2.54,1.07l-.6.28-.09,0a13.25,13.25,0,0,1,1.27.57,10.67,10.67,0,0,1,1.43.87A11.42,11.42,0,0,1,39.86,32s0,0,0,0a1,1,0,0,1,0,.53A11.37,11.37,0,0,1,39,37.31a2,2,0,0,1-.1.21A11.35,11.35,0,0,1,36,41.37a25.78,25.78,0,0,0-2.77,2.76c-.1.11-.18.23-.27.34l-.07.09-.18.26c-.12.17-.23.33-.35.48-2.14,2.84-3.59,2.83-3.59,2.83h0c-.38,0-.76,0-1.14,0s-1.28-.31-1.35.13a.66.66,0,0,0,.08.36,11.29,11.29,0,0,0,1.41,2.16c.11.13.21.26.32.38a2.85,2.85,0,0,0,.23.26c1,1.05,3.11.64,4.39.57a53.75,53.75,0,0,0,5.8-.59,56.87,56.87,0,0,0,7-1.55c1.6-.46,4.92-.84,5.09-2.93V19A.88.88,0,0,0,49.82,18.09Z" transform="translate(-1.85 -11.53)"/></svg>