<svg xmlns="http://www.w3.org/2000/svg" xmlns:xlink="http://www.w3.org/1999/xlink" width="341.769" height="173.327" viewBox="0 0 341.769 173.327">
  <defs>
    <style>
      .cls-1, .cls-5 {
        fill: #00a69a;
      }

      .cls-2 {
        fill: #fff;
      }

      .cls-23, .cls-3 {
        fill: #fab41c;
      }

      .cls-3 {
        opacity: 0.1;
      }

      .cls-36, .cls-4 {
        fill: none;
      }

      .cls-5 {
        opacity: 0.3;
      }

      .cls-6 {
        fill: url(#linear-gradient);
      }

      .cls-7 {
        fill: url(#linear-gradient-2);
      }

      .cls-8 {
        fill: url(#linear-gradient-3);
      }

      .cls-9 {
        fill: url(#linear-gradient-4);
      }

      .cls-10 {
        fill: url(#linear-gradient-5);
      }

      .cls-11 {
        fill: url(#linear-gradient-6);
      }

      .cls-12 {
        fill: url(#linear-gradient-7);
      }

      .cls-13 {
        fill: url(#linear-gradient-8);
      }

      .cls-14 {
        fill: url(#linear-gradient-9);
      }

      .cls-15 {
        fill: url(#linear-gradient-10);
      }

      .cls-16 {
        fill: url(#linear-gradient-11);
      }

      .cls-17 {
        fill: url(#linear-gradient-12);
      }

      .cls-18 {
        fill: url(#linear-gradient-13);
      }

      .cls-19 {
        fill: url(#linear-gradient-14);
      }

      .cls-20 {
        fill: url(#linear-gradient-15);
      }

      .cls-21 {
        fill: url(#linear-gradient-16);
      }

      .cls-22 {
        fill: url(#linear-gradient-17);
      }

      .cls-24 {
        fill: url(#linear-gradient-18);
      }

      .cls-25 {
        fill: url(#linear-gradient-19);
      }

      .cls-26 {
        fill: url(#linear-gradient-20);
      }

      .cls-27 {
        fill: url(#linear-gradient-21);
      }

      .cls-28 {
        fill: url(#linear-gradient-22);
      }

      .cls-29 {
        fill: url(#linear-gradient-23);
      }

      .cls-30 {
        fill: #d0eeec;
      }

      .cls-31 {
        fill: url(#linear-gradient-24);
      }

      .cls-32 {
        fill: url(#linear-gradient-25);
      }

      .cls-33 {
        opacity: 0.18;
      }

      .cls-34 {
        fill: url(#linear-gradient-26);
      }

      .cls-35 {
        fill: url(#linear-gradient-27);
      }

      .cls-36 {
        stroke: #707070;
        stroke-miterlimit: 10;
      }
    </style>
    <linearGradient id="linear-gradient" x1="-4.677" y1="-138.011" x2="25.852" y2="679.219" gradientUnits="objectBoundingBox">
      <stop offset="0" stop-color="#00e09a"/>
      <stop offset="1" stop-color="#00a69a"/>
    </linearGradient>
    <linearGradient id="linear-gradient-2" x1="1.062" y1="1.821" x2="8.566" y2="19.477" xlink:href="#linear-gradient"/>
    <linearGradient id="linear-gradient-3" x1="-3.435" y1="-68.987" x2="22.327" y2="385.956" xlink:href="#linear-gradient"/>
    <linearGradient id="linear-gradient-4" x1="0.465" y1="0.367" x2="3.256" y2="10.879" xlink:href="#linear-gradient"/>
    <linearGradient id="linear-gradient-5" x1="-5.283" y1="-80.67" x2="36.546" y2="506.46" xlink:href="#linear-gradient"/>
    <linearGradient id="linear-gradient-6" x1="0.981" y1="0.206" x2="-0.292" y2="0.979" xlink:href="#linear-gradient"/>
    <linearGradient id="linear-gradient-7" x1="0.988" y1="-0.806" x2="-187.105" y2="503.11" xlink:href="#linear-gradient"/>
    <linearGradient id="linear-gradient-8" x1="-7.626" y1="17.757" x2="-654.542" y2="1391.814" xlink:href="#linear-gradient"/>
    <linearGradient id="linear-gradient-9" x1="-19.031" y1="45.334" x2="-2093.555" y2="4807.783" xlink:href="#linear-gradient"/>
    <linearGradient id="linear-gradient-10" x1="1.971" y1="-3.848" x2="-197.546" y2="585.888" xlink:href="#linear-gradient"/>
    <linearGradient id="linear-gradient-11" x1="-14.266" y1="32.505" x2="-1282.47" y2="2780.62" xlink:href="#linear-gradient"/>
    <linearGradient id="linear-gradient-12" x1="0.523" y1="0.441" x2="-141.721" y2="367.615" xlink:href="#linear-gradient"/>
    <linearGradient id="linear-gradient-13" x1="1.474" y1="-2.236" x2="-195.892" y2="551.955" xlink:href="#linear-gradient"/>
    <linearGradient id="linear-gradient-14" x1="2.705" y1="-6.941" x2="-172.044" y2="582.815" xlink:href="#linear-gradient"/>
    <linearGradient id="linear-gradient-15" x1="0.837" y1="-1.799" x2="-8.555" y2="62.31" xlink:href="#linear-gradient"/>
    <linearGradient id="linear-gradient-16" x1="2.414" y1="-5.498" x2="-190.494" y2="598.971" xlink:href="#linear-gradient"/>
    <linearGradient id="linear-gradient-17" x1="-0.234" y1="2.273" x2="-191.129" y2="463.46" xlink:href="#linear-gradient"/>
    <linearGradient id="linear-gradient-18" x1="5.174" y1="4.223" x2="5.189" y2="3.413" gradientUnits="objectBoundingBox">
      <stop offset="0" stop-color="#ff7100"/>
      <stop offset="1" stop-color="#fab41c"/>
    </linearGradient>
    <linearGradient id="linear-gradient-19" x1="12.793" y1="42.549" x2="12.662" y2="38.469" xlink:href="#linear-gradient-18"/>
    <linearGradient id="linear-gradient-20" x1="12.794" y1="42.278" x2="12.68" y2="38.19" xlink:href="#linear-gradient-18"/>
    <linearGradient id="linear-gradient-21" x1="18.71" y1="45.583" x2="18.721" y2="42.599" xlink:href="#linear-gradient-18"/>
    <linearGradient id="linear-gradient-22" x1="149.457" y1="-16.3" x2="-185.739" y2="21.439" xlink:href="#linear-gradient"/>
    <linearGradient id="linear-gradient-23" x1="1.258" y1="0.029" x2="-0.274" y2="1.164" xlink:href="#linear-gradient"/>
    <linearGradient id="linear-gradient-24" x1="0" y1="0.5" x2="1" y2="0.5" xlink:href="#linear-gradient-18"/>
    <linearGradient id="linear-gradient-25" x1="0.5" y1="1.361" x2="0.5" y2="1.317" xlink:href="#linear-gradient"/>
    <linearGradient id="linear-gradient-26" x1="0.5" y1="1.361" x2="0.5" y2="1.317" xlink:href="#linear-gradient"/>
    <linearGradient id="linear-gradient-27" x1="0.926" y1="0.507" x2="0.163" y2="0.479" xlink:href="#linear-gradient-18"/>
  </defs>
  <g id="Group_11770" data-name="Group 11770" transform="translate(-264.218 85.395)">
    <g id="logo" transform="translate(213.478 -144.721)">
      <g id="Group_11759" data-name="Group 11759" transform="translate(106.604 179.607)">
        <g id="Group_11757" data-name="Group 11757" transform="translate(0)">
          <rect id="Rectangle_826" data-name="Rectangle 826" class="cls-1" width="39.193" height="18.614" rx="9.307"/>
        </g>
        <g id="Group_11758" data-name="Group 11758" transform="translate(3.351 3.412)">
          <path id="Path_13753" data-name="Path 13753" class="cls-2" d="M239.468,197.518v4.732q-.55.283-1.022.472a7.569,7.569,0,0,1-.975.314,8.273,8.273,0,0,1-2.185.283,6.2,6.2,0,0,1-4.433-1.682,5.9,5.9,0,0,1-.047-8.426,5.953,5.953,0,0,1,4.323-1.682,7.846,7.846,0,0,1,2.389.346q.534.173.943.338a6.6,6.6,0,0,1,.817.4v1.855q-.833-.487-1.344-.723a7.909,7.909,0,0,0-.967-.377,6.267,6.267,0,0,0-1.839-.283A4.27,4.27,0,0,0,232,194.311a4.519,4.519,0,0,0,0,6.256,4.8,4.8,0,0,0,3.4,1.195,6.345,6.345,0,0,0,1.572-.189q.283-.079.5-.157t.393-.157V199H235.6v-1.478Z" transform="translate(-229.062 -191.529)"/>
          <path id="Path_13754" data-name="Path 13754" class="cls-2" d="M272.984,192.773a2.591,2.591,0,0,1,.794,1.045,3.576,3.576,0,0,1,.259,1.391,3.392,3.392,0,0,1-.267,1.368,2.742,2.742,0,0,1-.818,1.053,4.47,4.47,0,0,1-2.814.818h-1.729v5.015H266.79V191.955h3.443a5.526,5.526,0,0,1,1.548.2A3.4,3.4,0,0,1,272.984,192.773ZM271.8,196.5a1.545,1.545,0,0,0,.417-.535,2.027,2.027,0,0,0,.008-1.509,1.465,1.465,0,0,0-.408-.535,2.163,2.163,0,0,0-.7-.361,3.189,3.189,0,0,0-.951-.126h-1.761v3.537h1.682A2.632,2.632,0,0,0,271.8,196.5Z" transform="translate(-254.262 -191.814)"/>
          <path id="Path_13755" data-name="Path 13755" class="cls-2" d="M300.74,193.211a5.9,5.9,0,0,1,0,8.41,6.354,6.354,0,0,1-8.63.016,5.959,5.959,0,0,1-.016-8.41,6.374,6.374,0,0,1,8.646-.016Zm-1.21,7.278a4.339,4.339,0,0,0-3.1-7.4,4.235,4.235,0,0,0-3.112,1.273,4.346,4.346,0,0,0-.016,6.131,4.44,4.44,0,0,0,6.225,0Z" transform="translate(-270.008 -191.529)"/>
        </g>
      </g>
      <g id="Group_11760" data-name="Group 11760" transform="translate(106.587 204.101)">
        <path id="Path_13756" data-name="Path 13756" class="cls-1" d="M218.921,255.013h3.069v10.793H227.8v2.327h-8.875Z" transform="translate(-218.921 -255.013)"/>
        <path id="Path_13757" data-name="Path 13757" class="cls-1" d="M254.657,255.013h3.069v13.12h-3.069Z" transform="translate(-242.79 -255.013)"/>
        <path id="Path_13758" data-name="Path 13758" class="cls-1" d="M282.689,261.433a2.908,2.908,0,0,1,2.174.946,3.272,3.272,0,0,1,.793,2.251,3.023,3.023,0,0,1-1.24,2.6,5.536,5.536,0,0,1-3.338.908h-6.241v-13.12h4.808a14.866,14.866,0,0,1,2.251.153,5.633,5.633,0,0,1,1.7.511,2.594,2.594,0,0,1,1.074.972,2.984,2.984,0,0,1,.371,1.56,3.71,3.71,0,0,1-.6,2.072,2.437,2.437,0,0,1-1.752,1.1Zm-2.711-.87a2.277,2.277,0,0,0,1.483-.422,1.638,1.638,0,0,0,0-2.379A2.234,2.234,0,0,0,280,257.34h-2.1v3.223Zm.2,5.243a3.094,3.094,0,0,0,1.688-.371,1.693,1.693,0,0,0-.013-2.532,3.169,3.169,0,0,0-1.7-.371h-2.251v3.274Z" transform="translate(-256.269 -255.013)"/>
        <path id="Path_13759" data-name="Path 13759" class="cls-1" d="M324.667,268.133l-2.787-5.243h-1.535v5.243h-3.069v-13.12h5.934a4.362,4.362,0,0,1,3.095,1.048,3.758,3.758,0,0,1,1.125,2.89,3.881,3.881,0,0,1-.678,2.34,3.282,3.282,0,0,1-2.008,1.24l3.2,5.6Zm-4.322-7.57H322.6a2.239,2.239,0,0,0,1.432-.409,1.447,1.447,0,0,0,.511-1.2,1.418,1.418,0,0,0-.511-1.177,2.239,2.239,0,0,0-1.432-.409h-2.251Z" transform="translate(-284.615 -255.013)"/>
        <path id="Path_13760" data-name="Path 13760" class="cls-1" d="M365.992,268.133l-.844-2.737h-4.706l-.844,2.737h-3.274l4.5-13.12h3.939l4.5,13.12Zm-1.457-4.936-1.714-5.473h-.077l-1.688,5.473Z" transform="translate(-310.697 -255.013)"/>
        <path id="Path_13761" data-name="Path 13761" class="cls-1" d="M410.622,268.133l-2.787-5.243H406.3v5.243H403.23v-13.12h5.934a4.362,4.362,0,0,1,3.095,1.048,3.758,3.758,0,0,1,1.125,2.89,3.88,3.88,0,0,1-.678,2.34,3.282,3.282,0,0,1-2.008,1.24l3.2,5.6Zm-4.322-7.57h2.251a2.239,2.239,0,0,0,1.432-.409,1.447,1.447,0,0,0,.511-1.2,1.418,1.418,0,0,0-.511-1.177,2.24,2.24,0,0,0-1.432-.409H406.3Z" transform="translate(-342.027 -255.013)"/>
        <path id="Path_13762" data-name="Path 13762" class="cls-1" d="M450.057,262.635v5.5h-3.095v-5.5l-4.527-7.622h3.581l2.455,4.655h.077L451,255.013h3.581Z" transform="translate(-368.213 -255.013)"/>
      </g>
      <g id="Group_11768" data-name="Group 11768" transform="translate(50.739 178.789)">
        <circle id="Ellipse_151" data-name="Ellipse 151" class="cls-3" cx="8.591" cy="8.591" r="8.591" transform="translate(15.897 12.653)"/>
        <path id="Path_13763" data-name="Path 13763" class="cls-4" d="M90.527,204.8l-.244-.092Z" transform="translate(-77.152 -196.104)"/>
        <path id="Path_13764" data-name="Path 13764" class="cls-4" d="M88.456,204.04l-.263-.095Z" transform="translate(-75.756 -195.591)"/>
        <path id="Path_13765" data-name="Path 13765" class="cls-4" d="M94.839,206.5q.332.136.649.271l.045.019q-.356-.151-.73-.3Z" transform="translate(-80.171 -197.289)"/>
        <path id="Path_13766" data-name="Path 13766" class="cls-4" d="M92.586,205.6l-.207-.081Z" transform="translate(-78.552 -196.641)"/>
        <path id="Path_13767" data-name="Path 13767" class="cls-4" d="M86.369,203.307l-.268-.092Z" transform="translate(-74.359 -195.104)"/>
        <path id="Path_13768" data-name="Path 13768" class="cls-4" d="M82.122,201.946l-.21-.064Z" transform="translate(-71.561 -194.214)"/>
        <path id="Path_13769" data-name="Path 13769" class="cls-4" d="M98.716,208.146l-.372-.163Z" transform="translate(-82.536 -198.289)"/>
        <path id="Path_13770" data-name="Path 13770" class="cls-4" d="M106.764,211.869l.04.02h0Z" transform="translate(-88.16 -200.884)"/>
        <path id="Path_13771" data-name="Path 13771" class="cls-4" d="M139.09,209.836l.088-.041-.088.041Z" transform="translate(-109.752 -199.499)"/>
        <path id="Path_13772" data-name="Path 13772" class="cls-4" d="M179.094,198.014c-.5.039-1.048.089-1.627.154C178.046,198.1,178.593,198.053,179.094,198.014Z" transform="translate(-135.385 -191.63)"/>
        <path id="Path_13773" data-name="Path 13773" class="cls-4" d="M84.263,202.608l-.253-.082Z" transform="translate(-72.962 -194.644)"/>
        <path id="Path_13774" data-name="Path 13774" class="cls-4" d="M101.511,209.416c-.52-.25-1.193-.565-1.973-.909C100.315,208.85,100.99,209.166,101.511,209.416Z" transform="translate(-83.334 -198.639)"/>
        <path id="Path_13775" data-name="Path 13775" class="cls-4" d="M105.909,211.453l-.228-.111Z" transform="translate(-87.437 -200.532)"/>
        <path id="Path_13776" data-name="Path 13776" class="cls-5" d="M141.628,179.745v-.956c-9.487.62-16.338,7.313-18.326,9.486h.174A38.139,38.139,0,0,1,141.628,179.745Z" transform="translate(-99.206 -178.789)"/>
        <path id="Path_13777" data-name="Path 13777" class="cls-5" d="M144.655,185.287v-1.321c-8.818.631-16.336,5.9-18.765,7.779l.123,0C133.919,186.444,144.655,185.287,144.655,185.287Z" transform="translate(-100.935 -182.247)"/>
        <path id="Path_13778" data-name="Path 13778" class="cls-5" d="M132.633,197.721c.841-.387,1.874-.842,3-1.292l.358-.141a40.217,40.217,0,0,1,4.14-1.391,33.1,33.1,0,0,1,3.927-.779c.422-.059.834-.111,1.231-.155.579-.065,1.126-.115,1.627-.154.186-.014.366-.028.538-.039.318-.021.611-.038.874-.05s.5-.022.7-.028c.014,0,.028,0,.042,0h0l.111-.009v-1.818c-8.226-1.014-16.773,3.331-19.886,5.124a12.769,12.769,0,0,1,3.254.768Z" transform="translate(-103.207 -187.425)"/>
        <path id="Path_13779" data-name="Path 13779" class="cls-5" d="M63.037,179.745v-.956c9.487.62,16.338,7.313,18.325,9.486h-.174A38.139,38.139,0,0,0,63.037,179.745Z" transform="translate(-58.953 -178.789)"/>
        <path id="Path_13780" data-name="Path 13780" class="cls-5" d="M59.127,185.287v-1.321c8.818.631,16.335,5.9,18.764,7.779l-.123,0C69.862,186.444,59.127,185.287,59.127,185.287Z" transform="translate(-56.342 -182.247)"/>
        <path id="Path_13781" data-name="Path 13781" class="cls-5" d="M68.892,197.731c-.841-.387-1.873-.842-3-1.292l-.357-.141a40.222,40.222,0,0,0-4.14-1.391,33.084,33.084,0,0,0-3.927-.779c-.422-.059-.834-.111-1.231-.155-.579-.065-1.126-.115-1.627-.154-.186-.014-.366-.028-.538-.039-.318-.021-.611-.038-.874-.05s-.5-.022-.7-.028c-.014,0-.028,0-.042,0h0l-.111-.009V191.88c8.226-1.014,17.483,3.516,20.6,5.309a17.073,17.073,0,0,0-2.513,1.257Z" transform="translate(-51.815 -187.435)"/>
        <path id="Path_13782" data-name="Path 13782" class="cls-5" d="M187.315,197.662c-.2.006-.432.015-.7.028.263-.013.5-.022.7-.028.014,0,.028,0,.042,0h0C187.343,197.665,187.33,197.662,187.315,197.662Z" transform="translate(-141.498 -191.395)"/>
        <path id="Path_13783" data-name="Path 13783" class="cls-6" d="M187.315,197.662c-.2.006-.432.015-.7.028.263-.013.5-.022.7-.028.014,0,.028,0,.042,0h0C187.343,197.665,187.33,197.662,187.315,197.662Z" transform="translate(-141.498 -191.395)"/>
        <path id="Path_13784" data-name="Path 13784" class="cls-5" d="M142.356,205.9c-1.127.45-2.159.9-3,1.292C140.2,206.809,141.23,206.354,142.356,205.9Z" transform="translate(-109.929 -196.9)"/>
        <path id="Path_13785" data-name="Path 13785" class="cls-7" d="M142.356,205.9c-1.127.45-2.159.9-3,1.292C140.2,206.809,141.23,206.354,142.356,205.9Z" transform="translate(-109.929 -196.9)"/>
        <path id="Path_13786" data-name="Path 13786" class="cls-5" d="M184.862,197.746c-.263.013-.556.029-.874.05C184.306,197.775,184.6,197.759,184.862,197.746Z" transform="translate(-139.74 -191.451)"/>
        <path id="Path_13787" data-name="Path 13787" class="cls-8" d="M184.862,197.746c-.263.013-.556.029-.874.05C184.306,197.775,184.6,197.759,184.862,197.746Z" transform="translate(-139.74 -191.451)"/>
        <path id="Path_13788" data-name="Path 13788" class="cls-5" d="M149.468,201.114a40.221,40.221,0,0,1,4.14-1.391,33.155,33.155,0,0,1,3.927-.779,33.091,33.091,0,0,0-3.927.779A40.221,40.221,0,0,0,149.468,201.114Z" transform="translate(-116.683 -192.251)"/>
        <path id="Path_13789" data-name="Path 13789" class="cls-9" d="M149.468,201.114a40.221,40.221,0,0,1,4.14-1.391,33.155,33.155,0,0,1,3.927-.779,33.091,33.091,0,0,0-3.927.779A40.221,40.221,0,0,0,149.468,201.114Z" transform="translate(-116.683 -192.251)"/>
        <path id="Path_13790" data-name="Path 13790" class="cls-5" d="M182.905,197.9c-.172.011-.352.025-.538.039C182.553,197.922,182.733,197.908,182.905,197.9Z" transform="translate(-138.658 -191.552)"/>
        <path id="Path_13791" data-name="Path 13791" class="cls-10" d="M182.905,197.9c-.172.011-.352.025-.538.039C182.553,197.922,182.733,197.908,182.905,197.9Z" transform="translate(-138.658 -191.552)"/>
        <path id="Path_13792" data-name="Path 13792" class="cls-11" d="M66.571,224.492a4.636,4.636,0,0,0-1.963-.823c-.2-.045-.437-.095-.736-.167-.136-.034-.273-.065-.41-.1a7.911,7.911,0,0,1-1.641-.507,2.32,2.32,0,0,1-1.33-1.446,3.213,3.213,0,0,1,.365-1.877c.038-.1.076-.189.112-.282a1.1,1.1,0,0,0-.1-.982,2.038,2.038,0,0,0-.145-.188,1.268,1.268,0,0,1-.146-.2.554.554,0,0,1-.008-.5.687.687,0,0,1,.46-.32.167.167,0,0,0,0-.331.483.483,0,0,1-.366-.247c-.065-.123-.1-.287-.016-.355a2.135,2.135,0,0,0,.794-1.027.963.963,0,0,0-.017-.55.168.168,0,0,0-.067-.092,3.459,3.459,0,0,1-.878-.738,1.065,1.065,0,0,1-.2-.976,1.668,1.668,0,0,1,.666-.682c.227-.159.467-.311.7-.459a7.026,7.026,0,0,0,1.816-1.466,5.833,5.833,0,0,0,.835-1.7c.085-.235.172-.478.27-.709a13.694,13.694,0,0,1,2.051-3.105,12.084,12.084,0,0,1,2.782-2.264l-.04-.02-.131-.064-.228-.111-.067-.032c-.521-.25-1.2-.566-1.973-.909l-.025-.011-.372-.163L66.1,200.9l-.045-.019q-.317-.135-.649-.271l-.036-.015c-.2-.08-.4-.161-.6-.241l-.207-.081-.453-.176L63.871,200c-.143-.054-.286-.107-.431-.16l-.263-.095q-.212-.076-.426-.15l-.268-.092q-.22-.075-.441-.146l-.253-.082q-.244-.077-.487-.15l-.21-.064c-.232-.068-.464-.135-.694-.2a38.72,38.72,0,0,0-6.933-1.1c-.542-.04-1.028-.068-1.43-.086-.194-.008-.375-.016-.529-.021a.831.831,0,0,0-.759.909v15.286q0,3.13,0,6.259,0,1.565-.008,3.129c-.008,1.687.212,2.143,1.808,2.792s3.22,1.28,4.865,1.825a26.565,26.565,0,0,0,11.507,1.583,8.793,8.793,0,0,0-.428-2.347A4.768,4.768,0,0,0,66.571,224.492Z" transform="translate(-50.739 -191.394)"/>
        <path id="Path_13793" data-name="Path 13793" class="cls-5" d="M91.469,205.164l-.452-.176Z" transform="translate(-77.642 -196.288)"/>
        <path id="Path_13794" data-name="Path 13794" class="cls-12" d="M91.469,205.164l-.452-.176Z" transform="translate(-77.642 -196.288)"/>
        <path id="Path_13795" data-name="Path 13795" class="cls-5" d="M106.5,211.739l-.132-.064Z" transform="translate(-87.896 -200.755)"/>
        <path id="Path_13796" data-name="Path 13796" class="cls-13" d="M106.5,211.739l-.132-.064Z" transform="translate(-87.896 -200.755)"/>
        <path id="Path_13797" data-name="Path 13797" class="cls-5" d="M99.463,208.473l.025.011-.013-.006Z" transform="translate(-83.283 -198.616)"/>
        <path id="Path_13798" data-name="Path 13798" class="cls-14" d="M99.463,208.473l.025.011-.013-.006Z" transform="translate(-83.283 -198.616)"/>
        <path id="Path_13799" data-name="Path 13799" class="cls-5" d="M87.335,203.643q-.212-.076-.426-.15Q87.123,203.567,87.335,203.643Z" transform="translate(-74.898 -195.29)"/>
        <path id="Path_13800" data-name="Path 13800" class="cls-15" d="M87.335,203.643q-.212-.076-.426-.15Q87.123,203.567,87.335,203.643Z" transform="translate(-74.898 -195.29)"/>
        <path id="Path_13801" data-name="Path 13801" class="cls-5" d="M105.546,211.277l-.067-.032Z" transform="translate(-87.302 -200.467)"/>
        <path id="Path_13802" data-name="Path 13802" class="cls-16" d="M105.546,211.277l-.067-.032Z" transform="translate(-87.302 -200.467)"/>
        <path id="Path_13803" data-name="Path 13803" class="cls-5" d="M93.6,206c-.2-.08-.4-.161-.6-.241C93.2,205.841,93.4,205.922,93.6,206Z" transform="translate(-78.968 -196.804)"/>
        <path id="Path_13804" data-name="Path 13804" class="cls-17" d="M93.6,206c-.2-.08-.4-.161-.6-.241C93.2,205.841,93.4,205.922,93.6,206Z" transform="translate(-78.968 -196.804)"/>
        <path id="Path_13805" data-name="Path 13805" class="cls-5" d="M89.416,204.391l-.431-.16C89.13,204.283,89.273,204.337,89.416,204.391Z" transform="translate(-76.285 -195.783)"/>
        <path id="Path_13806" data-name="Path 13806" class="cls-18" d="M89.416,204.391l-.431-.16C89.13,204.283,89.273,204.337,89.416,204.391Z" transform="translate(-76.285 -195.783)"/>
        <path id="Path_13807" data-name="Path 13807" class="cls-5" d="M83.031,202.224q-.244-.077-.487-.15Q82.787,202.147,83.031,202.224Z" transform="translate(-71.983 -194.342)"/>
        <path id="Path_13808" data-name="Path 13808" class="cls-19" d="M83.031,202.224q-.244-.077-.487-.15Q82.787,202.147,83.031,202.224Z" transform="translate(-71.983 -194.342)"/>
        <path id="Path_13809" data-name="Path 13809" class="cls-5" d="M63,198.908c.23.062.462.128.694.2-.232-.068-.464-.134-.694-.2a41.2,41.2,0,0,0-8.363-1.184h0A41.2,41.2,0,0,1,63,198.908Z" transform="translate(-53.342 -191.436)"/>
        <path id="Path_13810" data-name="Path 13810" class="cls-20" d="M63,198.908c.23.062.462.128.694.2-.232-.068-.464-.134-.694-.2a41.2,41.2,0,0,0-8.363-1.184h0A41.2,41.2,0,0,1,63,198.908Z" transform="translate(-53.342 -191.436)"/>
        <path id="Path_13811" data-name="Path 13811" class="cls-5" d="M85.214,202.92q-.22-.075-.441-.146Q84.994,202.846,85.214,202.92Z" transform="translate(-73.472 -194.809)"/>
        <path id="Path_13812" data-name="Path 13812" class="cls-21" d="M85.214,202.92q-.22-.075-.441-.146Q84.994,202.846,85.214,202.92Z" transform="translate(-73.472 -194.809)"/>
        <path id="Path_13813" data-name="Path 13813" class="cls-5" d="M97.448,207.6,97,207.4Z" transform="translate(-81.64 -197.903)"/>
        <path id="Path_13814" data-name="Path 13814" class="cls-22" d="M97.448,207.6,97,207.4Z" transform="translate(-81.64 -197.903)"/>
        <g id="Group_11761" data-name="Group 11761" transform="translate(15.675 12.293)">
          <path id="Path_13815" data-name="Path 13815" class="cls-23" d="M110.765,232.518a.077.077,0,0,1-.052-.144c.179-.091.357-.189.53-.293a.077.077,0,0,1,.079.132c-.176.105-.357.206-.539.3Zm1.048-.628a.078.078,0,0,1-.081-.031.077.077,0,0,1,.019-.107c.165-.116.328-.238.484-.365a.077.077,0,0,1,.1.12c-.159.129-.325.254-.493.372A.083.083,0,0,1,111.812,231.89Zm.949-.769a.077.077,0,0,1-.07-.131c.147-.137.291-.282.428-.429a.077.077,0,0,1,.113.1c-.139.15-.286.3-.436.436A.081.081,0,0,1,112.762,231.12Zm.832-.894a.076.076,0,0,1-.066-.015.077.077,0,0,1-.011-.108c.127-.156.249-.319.364-.484a.077.077,0,1,1,.126.088c-.117.168-.242.333-.371.492A.076.076,0,0,1,113.594,230.226Zm-10.5,2.423a.077.077,0,0,1-.05-.005c-.185-.087-.37-.181-.549-.28a.077.077,0,0,1,.075-.135c.176.1.357.19.539.275a.077.077,0,0,1-.015.145Zm11.2-3.423a.077.077,0,0,1-.083-.115c.1-.172.2-.35.294-.529a.077.077,0,1,1,.137.07c-.093.182-.194.363-.3.539A.076.076,0,0,1,114.295,229.226Zm-12.267,2.831a.077.077,0,0,1-.059-.011c-.172-.111-.342-.23-.505-.353a.077.077,0,1,1,.093-.123c.161.121.327.238.5.347a.077.077,0,0,1,.023.107A.076.076,0,0,1,102.028,232.057Zm12.822-3.918a.079.079,0,0,1-.047,0,.077.077,0,0,1-.041-.1c.079-.185.152-.375.218-.565a.077.077,0,0,1,.146.05c-.067.193-.141.387-.221.574A.079.079,0,0,1,114.85,228.139Zm-13.8,3.183a.077.077,0,0,1-.068-.017c-.155-.134-.307-.276-.451-.42a.077.077,0,0,1,.109-.109c.142.142.291.281.443.412a.077.077,0,0,1,.008.109A.073.073,0,0,1,101.052,231.322Zm14.2-4.336a.078.078,0,0,1-.037,0,.077.077,0,0,1-.054-.094c.052-.194.1-.392.137-.589a.077.077,0,0,1,.151.03c-.039.2-.086.4-.139.6A.077.077,0,0,1,115.248,226.986Zm-15.061,3.474a.077.077,0,0,1-.076-.025c-.134-.154-.265-.315-.389-.479a.077.077,0,0,1,.123-.093c.121.161.249.319.382.471a.077.077,0,0,1-.041.126Zm15.3-4.671a.073.073,0,0,1-.027,0,.077.077,0,0,1-.067-.086c.025-.2.043-.4.053-.6a.077.077,0,1,1,.154.008c-.011.2-.029.411-.054.614A.077.077,0,0,1,115.483,225.789Zm-16.032,3.695a.078.078,0,0,1-.082-.033c-.111-.171-.218-.349-.317-.528a.077.077,0,1,1,.134-.075c.1.176.2.35.312.519a.077.077,0,0,1-.023.107A.08.08,0,0,1,99.451,229.484Zm16.1-4.914-.016,0a.077.077,0,0,1-.078-.076c0-.2-.014-.4-.032-.6a.077.077,0,1,1,.153-.014c.018.2.029.411.033.615A.077.077,0,0,1,115.547,224.57ZM98.86,228.416a.077.077,0,0,1-.087-.043c-.086-.185-.167-.376-.24-.568a.077.077,0,0,1,.144-.055c.072.188.151.376.236.558a.077.077,0,0,1-.038.1Zm16.581-5.062h-.005a.077.077,0,0,1-.088-.064c-.032-.2-.07-.4-.116-.595a.078.078,0,0,1,.058-.092h0a.077.077,0,0,1,.092.058c.046.2.086.4.118.605A.077.077,0,0,1,115.44,223.354Zm-17.017,3.922a.077.077,0,0,1-.091-.052c-.059-.2-.113-.4-.159-.6l0-.02a.077.077,0,0,1,.15-.034l0,.02c.046.2.1.393.157.585a.077.077,0,0,1-.051.1Zm16.743-5.112a.077.077,0,0,1-.091-.052c-.058-.193-.124-.386-.2-.573a.077.077,0,0,1,.144-.055c.073.191.14.387.2.583a.077.077,0,0,1-.051.1Zm-17.021,3.9H98.14a.077.077,0,0,1-.088-.064c-.032-.2-.057-.408-.074-.612a.077.077,0,1,1,.153-.013c.017.2.042.4.073.6A.077.077,0,0,1,98.146,226.066Zm16.586-5.042a.077.077,0,0,1-.087-.043c-.085-.182-.177-.364-.274-.54a.077.077,0,0,1,.135-.074c.1.179.193.364.279.55a.077.077,0,0,1-.038.1ZM98.04,224.85l-.016,0a.077.077,0,0,1-.078-.076c0-.2,0-.412.012-.616a.077.077,0,0,1,.154.008c-.011.2-.015.4-.011.605A.077.077,0,0,1,98.04,224.85Zm16.1-4.9a.078.078,0,0,1-.082-.033c-.109-.169-.226-.336-.347-.5a.077.077,0,1,1,.123-.093c.123.164.242.334.354.505a.078.078,0,0,1-.047.117Zm-16.036,3.676a.089.089,0,0,1-.027,0,.077.077,0,0,1-.067-.086c.025-.2.058-.407.1-.608a.077.077,0,1,1,.151.03c-.039.2-.071.4-.1.6A.077.077,0,0,1,98.106,223.632Zm15.3-4.653a.076.076,0,0,1-.075-.025c-.132-.152-.271-.3-.413-.443a.077.077,0,1,1,.109-.109c.145.145.286.3.42.451a.077.077,0,0,1-.041.126Zm-15.065,3.456a.073.073,0,0,1-.038,0,.077.077,0,0,1-.054-.094c.053-.2.114-.4.181-.588a.077.077,0,0,1,.146.05c-.066.19-.126.385-.179.578A.077.077,0,0,1,98.342,222.435Zm14.2-4.32a.075.075,0,0,1-.068-.017c-.152-.132-.31-.26-.471-.381a.077.077,0,1,1,.093-.123c.163.123.324.254.479.388a.077.077,0,0,1-.033.133Zm-13.8,3.168a.074.074,0,0,1-.047,0,.077.077,0,0,1-.041-.1c.08-.188.168-.376.262-.558a.077.077,0,0,1,.137.07c-.092.179-.178.363-.257.548A.077.077,0,0,1,98.742,221.282Zm12.826-3.9a.078.078,0,0,1-.059-.011c-.168-.11-.343-.215-.518-.312a.077.077,0,0,1,.075-.134c.179.1.356.207.528.318a.077.077,0,0,1-.025.14ZM99.3,220.2a.077.077,0,0,1-.083-.115c.106-.175.219-.349.336-.516a.077.077,0,1,1,.126.088c-.116.165-.227.335-.33.507A.076.076,0,0,1,99.3,220.2Zm11.2-3.41a.075.075,0,0,1-.05-.005c-.182-.085-.369-.165-.557-.237a.077.077,0,1,1,.055-.144c.191.074.381.155.566.242a.077.077,0,0,1-.015.145ZM100,219.2a.077.077,0,0,1-.077-.124c.129-.159.265-.316.4-.465a.077.077,0,0,1,.113.105c-.137.147-.271.3-.4.457A.079.079,0,0,1,100,219.2Zm9.363-2.85a.079.079,0,0,1-.04,0c-.192-.059-.388-.112-.584-.158a.077.077,0,0,1,.035-.15c.2.047.4.1.594.161a.077.077,0,0,1-.005.149Zm-8.53,1.957a.077.077,0,0,1-.07-.132c.15-.139.307-.276.466-.4a.077.077,0,0,1,.1.12c-.156.126-.31.26-.458.4A.08.08,0,0,1,100.833,218.3Zm7.342-2.234a.074.074,0,0,1-.03,0c-.2-.032-.4-.057-.6-.074a.077.077,0,1,1,.014-.153c.2.018.409.044.611.076a.077.077,0,0,1,.005.151Zm-6.391,1.466a.078.078,0,0,1-.081-.031.077.077,0,0,1,.019-.107c.168-.118.342-.23.518-.335a.077.077,0,1,1,.079.132c-.173.1-.344.214-.509.329A.083.083,0,0,1,101.784,217.536Zm5.175-1.573-.019,0c-.2,0-.4,0-.605.01a.077.077,0,1,1-.008-.154c.2-.011.411-.014.616-.01a.077.077,0,0,1,.016.152Zm-4.127.946a.077.077,0,0,1-.052-.144c.182-.092.37-.179.559-.259a.077.077,0,1,1,.06.142c-.185.078-.37.164-.549.254Zm2.908-.883h-.008c-.2.024-.4.056-.6.094a.077.077,0,1,1-.029-.151c.2-.039.406-.071.608-.1a.077.077,0,0,1,.027.151Zm-1.783.409a.077.077,0,0,1-.042-.148c.193-.066.392-.126.59-.179a.077.077,0,0,1,.04.149c-.195.051-.39.111-.579.175Z" transform="translate(-97.945 -215.809)"/>
        </g>
        <g id="Group_11762" data-name="Group 11762" transform="translate(18.624 14.861)">
          <path id="Path_13816" data-name="Path 13816" class="cls-24" d="M117.461,225.661a6.3,6.3,0,0,0-1.624-1.371,5.843,5.843,0,0,0-2.37-.713c-.161-.018-.323-.029-.482-.034a6.093,6.093,0,0,0-6.155,6.161,7.494,7.494,0,0,0,1.633,3.879l.03.044c.125.182.254.361.392.55a9.145,9.145,0,0,1,1.192,1.984l.036.089a2.532,2.532,0,0,1,.259.9.469.469,0,0,1-.156.287.517.517,0,0,0-.159.543c.091.389.577.4,1.14.42l2.935.088c.464.014.944.028,1.058-.355a.59.59,0,0,0-.147-.589.463.463,0,0,1-.119-.222,4.261,4.261,0,0,1,.834-1.9,13.492,13.492,0,0,1,.844-1.094c.13-.156.252-.3.369-.452l.186-.235a6.646,6.646,0,0,0,1.751-3.538A5.768,5.768,0,0,0,117.461,225.661Zm-3.388,6.708-.01.01c-.252.237-.427.4-.666.6l-.086.071c-.076.062-.18.146-.195.2a2.98,2.98,0,0,0-.038.814c0,.134.01.26.007.363,0,.043,0,.1,0,.164a1.274,1.274,0,0,1-.162.87.293.293,0,0,1-.219.086h-.016c-.373-.028-.333-.553-.3-.936.006-.075.011-.145.013-.2l.036-1.186c-.156-.172-.249-.269-.356-.38-.066-.068-.137-.143-.233-.244-.017-.018-.049-.047-.086-.08-.206-.186-.55-.5-.462-.8a.394.394,0,0,1,.385-.263h0c.21.006.494.31.816.676.049.055.091.1.122.136s.043.05.075.089.068.084.1.125l.021-.025a2.207,2.207,0,0,1,.163-.178c.045-.042.1-.1.158-.16.259-.268.581-.6.873-.594h.012a.353.353,0,0,1,.239.123.417.417,0,0,1,.1.3A.778.778,0,0,1,114.073,232.369Z" transform="translate(-106.824 -223.541)"/>
          <path id="Path_13817" data-name="Path 13817" class="cls-25" d="M121.277,269.779a4.581,4.581,0,0,0-.882-.084c-.219-.007-.457-.009-.686-.011s-.463,0-.676-.011c-.094,0-.192-.007-.3-.012s-.216-.01-.323-.013c-.384-.012-1.182-.036-1.235.466a.4.4,0,0,0,.123.348,1.7,1.7,0,0,0,1.056.26c.187.006.384,0,.574,0s.365,0,.53,0l.4.013c.309.01.652.022.943.028.5.01.966.02,1.016-.429C121.862,269.922,121.524,269.84,121.277,269.779Z" transform="translate(-113.738 -254.334)"/>
          <path id="Path_13818" data-name="Path 13818" class="cls-26" d="M121.148,274.078a4.576,4.576,0,0,0-.882-.084c-.219-.007-.457-.009-.686-.011s-.463,0-.676-.011c-.094,0-.192-.007-.3-.012s-.216-.01-.323-.013c-.384-.012-1.182-.036-1.235.466a.4.4,0,0,0,.123.348,1.7,1.7,0,0,0,1.056.261c.187.006.384,0,.574,0s.365,0,.53,0l.4.013c.309.01.652.021.943.028.5.01.966.02,1.016-.43C121.733,274.221,121.395,274.138,121.148,274.078Z" transform="translate(-113.652 -257.205)"/>
          <path id="Path_13819" data-name="Path 13819" class="cls-27" d="M121.886,278.075h0a3.342,3.342,0,0,0-.737-.07c-.146,0-.3-.007-.453-.01l-.352-.007c-.485-.012-1.089-.028-1.141.425a.411.411,0,0,0,.116.359,1.4,1.4,0,0,0,.923.223l.239.005.252.006c.1,0,.2.008.3.013s.2.01.3.013c.313.009.961.028,1.008-.439C122.368,278.221,122.1,278.14,121.886,278.075Z" transform="translate(-115.087 -259.904)"/>
        </g>
        <g id="Group_11763" data-name="Group 11763" transform="translate(14.361 18.333)">
          <circle id="Ellipse_152" data-name="Ellipse 152" class="cls-23" cx="1.377" cy="1.377" r="1.377" transform="translate(0 0.62) rotate(-13.012)"/>
          <path id="Path_13820" data-name="Path 13820" class="cls-2" d="M98.072,237.162a.086.086,0,0,1-.064.1l-.523.121.121.523a.086.086,0,0,1-.064.1l-.3.07a.085.085,0,0,1-.1-.064l-.121-.523-.523.121a.086.086,0,0,1-.1-.064l-.07-.3a.086.086,0,0,1,.064-.1l.523-.121-.121-.523a.086.086,0,0,1,.064-.1l.3-.07a.086.086,0,0,1,.1.064l.121.523.523-.121a.086.086,0,0,1,.1.064Z" transform="translate(-95.544 -235.553)"/>
        </g>
        <g id="Group_11764" data-name="Group 11764" transform="translate(30.157 25.378)">
          <circle id="Ellipse_153" data-name="Ellipse 153" class="cls-23" cx="0.995" cy="0.995" r="0.995" transform="translate(0 0.448) rotate(-13.012)"/>
          <path id="Path_13821" data-name="Path 13821" class="cls-2" d="M144.507,257.5a.062.062,0,0,1-.046.074l-.378.087.087.378a.062.062,0,0,1-.046.074l-.219.05a.061.061,0,0,1-.074-.046l-.087-.378-.378.087a.062.062,0,0,1-.074-.046l-.051-.219a.062.062,0,0,1,.046-.074l.378-.087-.087-.378a.062.062,0,0,1,.046-.074l.219-.05a.062.062,0,0,1,.074.046l.087.378.378-.087a.062.062,0,0,1,.074.047Z" transform="translate(-142.68 -256.337)"/>
        </g>
        <g id="Group_11767" data-name="Group 11767" transform="translate(27.095 11.681)">
          <g id="Group_11765" data-name="Group 11765">
            <circle id="Ellipse_154" data-name="Ellipse 154" class="cls-23" cx="1.365" cy="1.365" r="1.365"/>
          </g>
          <g id="Group_11766" data-name="Group 11766" transform="translate(0.486 0.486)">
            <path id="Path_13822" data-name="Path 13822" class="cls-2" d="M135.516,216.835a.415.415,0,1,0,.5.31A.415.415,0,0,0,135.516,216.835Zm.166.716a.321.321,0,1,1,.24-.385A.321.321,0,0,1,135.682,217.552Z" transform="translate(-134.731 -216.361)"/>
            <path id="Path_13823" data-name="Path 13823" class="cls-2" d="M135.556,216.244l-.062-.267-.182.042a.7.7,0,0,0-.157-.219l.1-.159-.232-.145-.1.159a.7.7,0,0,0-.266-.045l-.042-.182-.267.062.042.182a.7.7,0,0,0-.219.157l-.159-.1-.145.232.159.1a.689.689,0,0,0-.045.266l-.182.042.061.267.182-.042a.69.69,0,0,0,.157.219l-.1.159.232.145.1-.159a.693.693,0,0,0,.266.045l.042.182.267-.062-.042-.182a.7.7,0,0,0,.219-.157l.159.1.145-.232-.159-.1a.7.7,0,0,0,.045-.266Zm-.383-.052a.509.509,0,1,1-.611-.381A.51.51,0,0,1,135.173,216.191Z" transform="translate(-133.798 -215.427)"/>
          </g>
        </g>
        <path id="Path_13824" data-name="Path 13824" class="cls-28" d="M160.2,237.829c-.006-.019-.018-.036-.025-.054.009.118.021.236.026.353,0,.068,0,.137,0,.2A.964.964,0,0,0,160.2,237.829Z" transform="translate(-123.834 -218.188)"/>
        <path id="Path_13825" data-name="Path 13825" class="cls-29" d="M143.585,197.666c-.014,0-.027,0-.042,0-.2.006-.432.015-.7.028s-.556.029-.874.05c-.172.011-.352.025-.538.039-.5.039-1.048.089-1.627.153-.4.044-.809.1-1.231.155a33.15,33.15,0,0,0-3.927.779c-.377.1-.757.213-1.138.331-1.019.316-2.04.683-3,1.059l-.358.141c-.881.352-1.7.706-2.421,1.029l-.579.263-.088.041a12.154,12.154,0,0,1,1.22.546,10.593,10.593,0,0,1,1.37.831,10.9,10.9,0,0,1,4.411,7.873c.007.019.019.035.025.054a.965.965,0,0,1,0,.5,10.823,10.823,0,0,1-.879,4.5c-.029.066-.061.131-.091.2a10.781,10.781,0,0,1-2.718,3.684,24.366,24.366,0,0,0-2.65,2.639c-.092.1-.172.217-.262.323l-.062.091c-.059.082-.116.165-.171.248-.114.162-.225.314-.335.46-2.048,2.714-3.439,2.7-3.439,2.7h-.015c-.365.028-.729.047-1.092.047-.277,0-1.216-.3-1.29.119a.6.6,0,0,0,.081.351,10.585,10.585,0,0,0,1.35,2.06c.1.123.2.248.3.368.073.086.146.169.221.247.959,1,2.971.61,4.2.549a53.21,53.21,0,0,0,12.2-2.051c1.525-.443,4.706-.806,4.86-2.8V198.571A.84.84,0,0,0,143.585,197.666Z" transform="translate(-97.727 -191.395)"/>
      </g>
    </g>
    <rect id="line" class="cls-30" width="2" height="44" transform="translate(424 29)"/>
    <g id="logo-2" data-name="logo" transform="translate(408.065 -151.782)">
      <path id="Path_13722" data-name="Path 13722" class="cls-1" d="M212.524,189.051v23.855h-5.488V197.235H206.9l-6.325,15.671h-2.7l-6.324-15.671h-.094v15.671h-5.441V189.051h7.115l6.092,15.485h.093l6.045-15.485Z" transform="translate(-94.238 -2.049)"/>
      <path id="Path_13723" data-name="Path 13723" class="cls-1" d="M281.611,205.856a9.359,9.359,0,0,1,5.906,1.674,5.385,5.385,0,0,1,2.139,4.464v11.672H284.4v-2.79h-.093a4.608,4.608,0,0,1-1,1.325,5.543,5.543,0,0,1-1.418.953,8.5,8.5,0,0,1-1.675.581,7.616,7.616,0,0,1-1.766.209,7.034,7.034,0,0,1-2.325-.372,5.764,5.764,0,0,1-1.884-1.069,5.084,5.084,0,0,1-1.279-1.651,4.865,4.865,0,0,1-.465-2.162,4.588,4.588,0,0,1,1.86-3.929,10.083,10.083,0,0,1,5.348-1.6l4.464-.279v-.6a2.487,2.487,0,0,0-.744-1.907,2.942,2.942,0,0,0-2.093-.7,3.9,3.9,0,0,0-2,.465,2.155,2.155,0,0,0-1.023,1.4h-4.929a5.77,5.77,0,0,1,2.464-4.138A9.7,9.7,0,0,1,281.611,205.856Zm2.557,10-3.58.232q-2.7.233-2.7,2.185a1.77,1.77,0,0,0,.721,1.512,2.919,2.919,0,0,0,1.79.535,3.677,3.677,0,0,0,1.419-.279,4.13,4.13,0,0,0,1.209-.767,3.662,3.662,0,0,0,.837-1.116,3.021,3.021,0,0,0,.3-1.325Z" transform="translate(-149.608 -12.809)"/>
      <path id="Path_13724" data-name="Path 13724" class="cls-1" d="M341.865,208.87v3.72a15.406,15.406,0,0,1-3.116.326,6.189,6.189,0,0,1-4.162-1.465q-1.465-1.371-1.465-4.72v-17.81h5.488v17.9a2.187,2.187,0,0,0,.418,1.488,2.356,2.356,0,0,0,1.581.558A8.337,8.337,0,0,0,341.865,208.87Z" transform="translate(-188.424 -1.966)"/>
      <path id="Path_13725" data-name="Path 13725" class="cls-1" d="M375.653,215.993a4.128,4.128,0,0,0,1.162,2.86,3.872,3.872,0,0,0,4.65.489,2.9,2.9,0,0,0,1.163-1.674H387.7a6.426,6.426,0,0,1-2.558,4.7,9.706,9.706,0,0,1-5.813,1.581,9.081,9.081,0,0,1-6.6-2.3q-2.371-2.3-2.372-6.766a8.255,8.255,0,0,1,8.928-9.021q4.185,0,6.347,2.395a9.32,9.32,0,0,1,2.162,6.487v1.255Zm3.628-6.138a3.388,3.388,0,0,0-2.4.883,3.909,3.909,0,0,0-1.186,2.325h7.022a3.819,3.819,0,0,0-1.093-2.325A3.225,3.225,0,0,0,379.28,209.855Z" transform="translate(-212.262 -12.809)"/>
      <path id="Path_13726" data-name="Path 13726" class="cls-1" d="M437.012,195.1a7.408,7.408,0,0,1,3.464.721,6.141,6.141,0,0,1,2.3,2.162h.047v-8.928h5.487v23.855h-5.254v-2.558h-.094a5.748,5.748,0,0,1-2.371,2.046,8.121,8.121,0,0,1-3.674.79,6.24,6.24,0,0,1-2.65-.581,6.322,6.322,0,0,1-2.209-1.721,8.813,8.813,0,0,1-1.535-2.836,11.951,11.951,0,0,1-.581-3.883,12.914,12.914,0,0,1,.535-3.883,8.2,8.2,0,0,1,1.488-2.836,6.468,6.468,0,0,1,2.256-1.744A6.547,6.547,0,0,1,437.012,195.1Zm2.139,13.9a3.406,3.406,0,0,0,2.79-1.255,6.739,6.739,0,0,0,0-7.138,3.382,3.382,0,0,0-2.79-1.279,3.424,3.424,0,0,0-2.767,1.255,5.45,5.45,0,0,0-1.046,3.581,5.535,5.535,0,0,0,1.023,3.581A3.4,3.4,0,0,0,439.151,209Z" transform="translate(-250.416 -2.049)"/>
      <g id="Group_11750" data-name="Group 11750" transform="translate(60.242 188.46)">
        <path id="Path_13727" data-name="Path 13727" class="cls-31" d="M110.651,194.391l-.113.646c-.8,4.6-4.283,7.421-8.477,6.854l-.732-.1-.007-.739c-.017-1.586.762-4.7,3.849-5.124,0,0-2.752,1.87-2.068,4.328h.051c3.015,0,4.9-2.273,5.558-4.854a6.19,6.19,0,0,0-5.76.219c-1.843,1.18-2.9,3.517-2.9,6.416v5.534H98.345v-5.534a11.083,11.083,0,0,1,.855-4.426,7.553,7.553,0,0,1,2.834-3.429c2.2-1.412,5.048-1.436,8.019-.068Z" transform="translate(-98.345 -193.105)"/>
      </g>
      <path id="Path_13728" data-name="Path 13728" class="cls-1" d="M71.838,196.41v6.543H69.817V196.41c0-3.427-1.249-6.191-3.427-7.585-1.863-1.192-4.2-1.277-6.814-.259.784,3.051,3.011,5.739,6.575,5.739h.056c.813-2.906-2.441-5.116-2.441-5.116,3.649.5,4.571,4.183,4.551,6.058l-.012.873-.865.117c-4.955.671-9.073-2.659-10.018-8.1l-.133-.764.7-.327c3.512-1.617,6.882-1.588,9.485.081a8.93,8.93,0,0,1,3.35,4.053A13.1,13.1,0,0,1,71.838,196.41Z" transform="translate(-11.816 0)"/>
      <g id="Group_11751" data-name="Group 11751" transform="translate(40.465 201.854)">
        <rect id="Rectangle_825" data-name="Rectangle 825" class="cls-32" width="39.228" height="18.631" rx="9.315" transform="translate(0)"/>
      </g>
      <g id="Group_11752" data-name="Group 11752" class="cls-33" transform="translate(38.834 216.917)">
        <path id="Path_13729" data-name="Path 13729" class="cls-34" d="M70.635,272.213h-21.9c-5.469,0-9.9,1.685-9.9,3.765h0c0,2.079,4.434,3.764,9.9,3.764h21.9c5.469,0,9.9-1.685,9.9-3.764h0C80.539,273.9,76.1,272.213,70.635,272.213Z" transform="translate(-38.834 -272.213)"/>
      </g>
      <g id="Group_11753" data-name="Group 11753" transform="translate(43.235 204.156)">
        <path id="Path_13730" data-name="Path 13730" class="cls-2" d="M65.833,236.739H58.082a7.013,7.013,0,0,0-7.013,7.013h0a7.013,7.013,0,0,0,7.013,7.013h7.751Z" transform="translate(-51.069 -236.739)"/>
      </g>
      <g id="Group_11754" data-name="Group 11754" transform="translate(46.166 207.566)">
        <path id="Path_13731" data-name="Path 13731" class="cls-35" d="M70.881,246.217H64.6a5.382,5.382,0,0,0-5.382,5.382h0a5.382,5.382,0,0,0,5.382,5.382h6.282Z" transform="translate(-59.216 -246.217)"/>
      </g>
      <g id="Group_11755" data-name="Group 11755" transform="translate(91.34 216.693)">
        <path id="Path_13732" data-name="Path 13732" class="cls-1" d="M184.793,285.482V279.99H186.3v3.129a1.189,1.189,0,0,0,1.234,1.22,1.015,1.015,0,0,0,.759-.26,1.178,1.178,0,0,0,.253-.844V279.99h1.519v3.635a1.922,1.922,0,0,1-.513,1.422,1.784,1.784,0,0,1-1.318.513,2.526,2.526,0,0,1-1.266-.286,1.407,1.407,0,0,1-.669-.805h-.039v1.013Z" transform="translate(-184.793 -276.968)"/>
        <path id="Path_13733" data-name="Path 13733" class="cls-1" d="M205.247,285.412v-3.57a.629.629,0,0,0-.234-.538,1.214,1.214,0,0,0-.662-.2,2.36,2.36,0,0,0-.7.052q-.338.078-.74.195v-1.13a4.626,4.626,0,0,1,1.8-.337,3.351,3.351,0,0,1,.8.091,2.084,2.084,0,0,1,.655.279,1.335,1.335,0,0,1,.448.494,1.542,1.542,0,0,1,.163.733v3.934Z" transform="translate(-196.393 -276.898)"/>
        <path id="Path_13734" data-name="Path 13734" class="cls-1" d="M220.778,285.4a4.479,4.479,0,0,1-.883.091,1.831,1.831,0,0,1-1.214-.422,1.71,1.71,0,0,1-.435-1.318V279.99h1.519V283.6a.827.827,0,0,0,.149.578.634.634,0,0,0,.4.175.687.687,0,0,0,.214.019c.073,0,.158-.01.253-.019Z" transform="translate(-206.213 -276.968)"/>
        <path id="Path_13735" data-name="Path 13735" class="cls-1" d="M231.188,282.206q.26.078.591.182a2.128,2.128,0,0,1,.61.305,1.478,1.478,0,0,1,.448.526,1.535,1.535,0,0,1,.117.857,1.183,1.183,0,0,1-.273.675,1.739,1.739,0,0,1-.565.435,2.716,2.716,0,0,1-.733.233,4.434,4.434,0,0,1-.779.072,3.557,3.557,0,0,1-.825-.1,2.363,2.363,0,0,1-.74-.311,1.747,1.747,0,0,1-.539-.545,1.552,1.552,0,0,1-.221-.8h1.35a.73.73,0,0,0,.377.422,1.3,1.3,0,0,0,.61.149,1.676,1.676,0,0,0,.63-.117.41.41,0,0,0,.292-.4q0-.247-.363-.377a8.693,8.693,0,0,0-1.026-.273,6.326,6.326,0,0,1-.675-.188,2.314,2.314,0,0,1-.578-.286,1.31,1.31,0,0,1-.4-.441,1.326,1.326,0,0,1-.149-.656,1.356,1.356,0,0,1,.208-.759,1.733,1.733,0,0,1,.539-.526,2.448,2.448,0,0,1,.74-.305,3.559,3.559,0,0,1,.824-.1,3.687,3.687,0,0,1,.8.091,2.333,2.333,0,0,1,.74.3,1.729,1.729,0,0,1,.545.545,1.5,1.5,0,0,1,.214.818H231.6a.578.578,0,0,0-.338-.435,1.5,1.5,0,0,0-1.175-.007.378.378,0,0,0-.279.35.282.282,0,0,0,.117.234,1.049,1.049,0,0,0,.312.156q.195.065.442.13T231.188,282.206Z" transform="translate(-212.637 -276.898)"/>
        <path id="Path_13736" data-name="Path 13736" class="cls-1" d="M234.22,273.6v1.6h-4.894v-.96h3.544V273.6Z" transform="translate(-213.306 -272.878)"/>
        <path id="Path_13737" data-name="Path 13737" class="cls-1" d="M251.927,279.895v3.453q0,2.116-2.584,2.116A3.421,3.421,0,0,1,247.37,285a1.468,1.468,0,0,1-.649-1.266,1.337,1.337,0,0,1,.227-.837,1.591,1.591,0,0,1,.668-.474,1.193,1.193,0,0,1-.857-1.129,1.459,1.459,0,0,1,.156-.818,1.138,1.138,0,0,1,.519-.467,2.059,2.059,0,0,1,.811-.169,5.338,5.338,0,0,1,1.019.078V281a1.686,1.686,0,0,0-.792.039.428.428,0,0,0-.247.441.379.379,0,0,0,.091.26.6.6,0,0,0,.234.162,1.364,1.364,0,0,0,.324.085,2.562,2.562,0,0,0,.363.026h.3v.9h-.221a3.735,3.735,0,0,0-.383.019,1.217,1.217,0,0,0-.344.084.625.625,0,0,0-.247.176.424.424,0,0,0-.091.279.7.7,0,0,0,.253.571,1.327,1.327,0,0,0,.837.208,1,1,0,0,0,.824-.3,1.409,1.409,0,0,0,.24-.9v-3.155Z" transform="translate(-224.444 -276.873)"/>
        <path id="Path_13738" data-name="Path 13738" class="cls-1" d="M270.361,285.482h-1.48v-1.013h-.039a1.436,1.436,0,0,1-.636.805,2.345,2.345,0,0,1-1.233.286,2.092,2.092,0,0,1-.746-.13,1.753,1.753,0,0,1-.6-.37,1.654,1.654,0,0,1-.4-.6,2.166,2.166,0,0,1-.143-.812V279.99H266.6v3.246a1.078,1.078,0,0,0,.292.844,1.159,1.159,0,0,0,.8.26,1.068,1.068,0,0,0,.85-.351,1.277,1.277,0,0,0,.305-.869V279.99h1.519Z" transform="translate(-236.205 -276.968)"/>
        <path id="Path_13739" data-name="Path 13739" class="cls-1" d="M293.383,285.482V279.99h1.506v3.129a1.189,1.189,0,0,0,1.233,1.22,1.015,1.015,0,0,0,.759-.26,1.178,1.178,0,0,0,.253-.844V279.99h1.519v3.635a1.922,1.922,0,0,1-.513,1.422,1.784,1.784,0,0,1-1.318.513,2.526,2.526,0,0,1-1.266-.286,1.406,1.406,0,0,1-.669-.805h-.039v1.013Z" transform="translate(-254.32 -276.968)"/>
        <path id="Path_13740" data-name="Path 13740" class="cls-1" d="M313.837,285.412v-3.57a.629.629,0,0,0-.234-.538,1.214,1.214,0,0,0-.662-.2,2.36,2.36,0,0,0-.7.052q-.338.078-.74.195v-1.13a4.626,4.626,0,0,1,1.8-.337,3.346,3.346,0,0,1,.8.091,2.086,2.086,0,0,1,.656.279,1.335,1.335,0,0,1,.448.494,1.542,1.542,0,0,1,.162.733v3.934Z" transform="translate(-265.92 -276.898)"/>
        <path id="Path_13741" data-name="Path 13741" class="cls-1" d="M328.843,282.206q.26.078.591.182a2.132,2.132,0,0,1,.61.305,1.478,1.478,0,0,1,.448.526,1.538,1.538,0,0,1,.117.857,1.185,1.185,0,0,1-.273.675,1.744,1.744,0,0,1-.565.435,2.721,2.721,0,0,1-.733.233,4.437,4.437,0,0,1-.779.072,3.557,3.557,0,0,1-.824-.1,2.364,2.364,0,0,1-.74-.311,1.752,1.752,0,0,1-.539-.545,1.553,1.553,0,0,1-.221-.8h1.35a.73.73,0,0,0,.376.422,1.3,1.3,0,0,0,.61.149,1.676,1.676,0,0,0,.63-.117.41.41,0,0,0,.292-.4q0-.247-.364-.377a8.674,8.674,0,0,0-1.026-.273,6.343,6.343,0,0,1-.675-.188,2.308,2.308,0,0,1-.578-.286,1.246,1.246,0,0,1-.552-1.1,1.359,1.359,0,0,1,.208-.759,1.74,1.74,0,0,1,.539-.526,2.454,2.454,0,0,1,.74-.305,3.557,3.557,0,0,1,.824-.1,3.683,3.683,0,0,1,.8.091,2.326,2.326,0,0,1,.74.3,1.727,1.727,0,0,1,.545.545,1.5,1.5,0,0,1,.214.818h-1.35a.577.577,0,0,0-.337-.435,1.5,1.5,0,0,0-1.175-.007.378.378,0,0,0-.279.35.283.283,0,0,0,.117.234,1.044,1.044,0,0,0,.312.156q.195.065.441.13T328.843,282.206Z" transform="translate(-275.162 -276.898)"/>
        <path id="Path_13742" data-name="Path 13742" class="cls-1" d="M333.788,297.1v.844a1.042,1.042,0,0,1-.162.617,1.153,1.153,0,0,1-.409.357,1.591,1.591,0,0,1-.532.169,3.962,3.962,0,0,1-.532.039,3.55,3.55,0,0,1-.513-.039,1.5,1.5,0,0,1-.487-.156,1.137,1.137,0,0,1-.383-.337,1.105,1.105,0,0,1-.188-.584h-.532V297.1h1.7v.649a.7.7,0,0,0,.085.371.345.345,0,0,0,.318.136.336.336,0,0,0,.324-.143.919.919,0,0,0,.078-.428V297.1Z" transform="translate(-277.796 -287.921)"/>
        <path id="Path_13743" data-name="Path 13743" class="cls-1" d="M337.064,272.949v.96h-3.479v-.545a2.168,2.168,0,0,0,.428-.162.9.9,0,0,0,.234-.169.375.375,0,0,0,.1-.175.811.811,0,0,0,.019-.169q0-.168-.214-.234a1.178,1.178,0,0,0-.552,0v-.74a2.374,2.374,0,0,1,.649-.123,2.182,2.182,0,0,1,.642.052,1.1,1.1,0,0,1,.487.247.575.575,0,0,1,.195.448.942.942,0,0,1-.312.727,4.634,4.634,0,0,1,.487-.084,4.061,4.061,0,0,1,.487-.032Z" transform="translate(-280.06 -271.588)"/>
        <path id="Path_13744" data-name="Path 13744" class="cls-1" d="M356.032,285.482V279.99h1.506v3.129a1.189,1.189,0,0,0,1.233,1.22,1.015,1.015,0,0,0,.76-.26,1.178,1.178,0,0,0,.253-.844V279.99H361.3v3.635a1.923,1.923,0,0,1-.513,1.422,1.784,1.784,0,0,1-1.318.513,2.526,2.526,0,0,1-1.266-.286,1.406,1.406,0,0,1-.669-.805H357.5v1.013Z" transform="translate(-294.433 -276.968)"/>
        <path id="Path_13745" data-name="Path 13745" class="cls-1" d="M376.485,285.412v-3.57a.629.629,0,0,0-.234-.538,1.214,1.214,0,0,0-.662-.2,2.359,2.359,0,0,0-.7.052q-.338.078-.74.195v-1.13a4.629,4.629,0,0,1,1.8-.337,3.346,3.346,0,0,1,.8.091,2.086,2.086,0,0,1,.656.279,1.335,1.335,0,0,1,.448.494,1.547,1.547,0,0,1,.162.733v3.934Z" transform="translate(-306.032 -276.898)"/>
        <path id="Path_13746" data-name="Path 13746" class="cls-1" d="M391.4,279.882a3.819,3.819,0,0,1,.967.123,2.513,2.513,0,0,1,.844.39,1.924,1.924,0,0,1,.591.694,2.246,2.246,0,0,1,.221,1.039v3.285h-1.506v-3.272a.983.983,0,0,0-.1-.467.957.957,0,0,0-.266-.318,1.1,1.1,0,0,0-.364-.182,1.364,1.364,0,0,0-.383-.058,1.109,1.109,0,0,0-.948.435,1.9,1.9,0,0,0-.324,1.162,2.126,2.126,0,0,0,.273,1.214.979.979,0,0,0,.857.383c.043,0,.1,0,.182-.006a1.313,1.313,0,0,0,.182-.019V285.4c-.1.017-.19.03-.286.039s-.19.013-.286.013a3.148,3.148,0,0,1-1.026-.156,1.911,1.911,0,0,1-.772-.487,2.242,2.242,0,0,1-.493-.85,3.913,3.913,0,0,1-.176-1.246,2.573,2.573,0,0,1,2.817-2.83Z" transform="translate(-315.274 -276.898)"/>
        <path id="Path_13747" data-name="Path 13747" class="cls-1" d="M398.71,297.1v.844a1.042,1.042,0,0,1-.162.617,1.159,1.159,0,0,1-.409.357,1.591,1.591,0,0,1-.532.169,3.962,3.962,0,0,1-.532.039,3.553,3.553,0,0,1-.513-.039,1.5,1.5,0,0,1-.487-.156,1.135,1.135,0,0,1-.383-.337,1.1,1.1,0,0,1-.188-.584h-.532V297.1h1.7v.649a.7.7,0,0,0,.084.371.345.345,0,0,0,.318.136.337.337,0,0,0,.325-.143.923.923,0,0,0,.078-.428V297.1Z" transform="translate(-319.364 -287.921)"/>
        <path id="Path_13748" data-name="Path 13748" class="cls-1" d="M419.15,285.482V279.99h1.506v3.129a1.189,1.189,0,0,0,1.234,1.22,1.015,1.015,0,0,0,.759-.26,1.178,1.178,0,0,0,.253-.844V279.99h1.519v3.635a1.922,1.922,0,0,1-.513,1.422,1.784,1.784,0,0,1-1.318.513,2.526,2.526,0,0,1-1.266-.286,1.407,1.407,0,0,1-.669-.805h-.039v1.013Z" transform="translate(-334.845 -276.968)"/>
        <path id="Path_13749" data-name="Path 13749" class="cls-1" d="M439.6,285.412v-3.57a.629.629,0,0,0-.233-.538,1.216,1.216,0,0,0-.662-.2,2.361,2.361,0,0,0-.7.052q-.338.078-.74.195v-1.13a4.629,4.629,0,0,1,1.8-.337,3.348,3.348,0,0,1,.8.091,2.089,2.089,0,0,1,.656.279,1.335,1.335,0,0,1,.448.494,1.547,1.547,0,0,1,.162.733v3.934Z" transform="translate(-346.444 -276.898)"/>
        <path id="Path_13750" data-name="Path 13750" class="cls-1" d="M455.4,279.882a2.248,2.248,0,0,1,.753.123,1.8,1.8,0,0,1,.617.363,1.666,1.666,0,0,1,.415.591,2.009,2.009,0,0,1,.149.792v3.661H455.82V282.18a1.023,1.023,0,0,0-.3-.831,1.248,1.248,0,0,0-.818-.247,1.092,1.092,0,0,0-.9.377,1.6,1.6,0,0,0-.305,1.039v2.9H451.99v-5.492h1.467v.974h.026a1.252,1.252,0,0,1,.688-.766A2.857,2.857,0,0,1,455.4,279.882Z" transform="translate(-355.872 -276.898)"/>
        <path id="Path_13751" data-name="Path 13751" class="cls-1" d="M463.374,273.494a1.414,1.414,0,0,1,.889.24.846.846,0,0,1,.305.708.831.831,0,0,1-.305.695,1.414,1.414,0,0,1-.889.24,1.47,1.47,0,0,1-.9-.234.82.82,0,0,1-.312-.7.839.839,0,0,1,.312-.708A1.443,1.443,0,0,1,463.374,273.494Zm0,1.285a.379.379,0,0,0,.26-.091.31.31,0,0,0,.1-.246.323.323,0,0,0-.1-.266.4.4,0,0,0-.26-.085.419.419,0,0,0-.273.085.324.324,0,0,0-.1.266.311.311,0,0,0,.1.246A.4.4,0,0,0,463.374,274.779Zm4.063,6.543v-3.57a.628.628,0,0,0-.234-.538,1.214,1.214,0,0,0-.662-.2,2.36,2.36,0,0,0-.7.052q-.338.078-.74.195v-1.13a4.626,4.626,0,0,1,1.8-.337,3.351,3.351,0,0,1,.8.091,2.085,2.085,0,0,1,.655.279,1.335,1.335,0,0,1,.448.494,1.543,1.543,0,0,1,.163.733v3.934Z" transform="translate(-362.388 -272.808)"/>
      </g>
      <path id="Path_13752" data-name="Path 13752" class="cls-36" d="M169.822,335.583" transform="translate(-83.868 -95.87)"/>
    </g>
    <g id="GPO" transform="translate(335.327 -85.395)">
      <g id="Group_11757-2" data-name="Group 11757" transform="translate(0)">
        <rect id="Rectangle_826-2" data-name="Rectangle 826" class="cls-1" width="179.346" height="85.178" rx="42.589"/>
      </g>
      <g id="Group_11758-2" data-name="Group 11758" transform="translate(15.332 15.615)">
        <path id="Path_13753-2" data-name="Path 13753" class="cls-2" d="M276.681,218.935v21.652q-2.519,1.295-4.676,2.158a34.636,34.636,0,0,1-4.46,1.439,37.855,37.855,0,0,1-10,1.295q-12.158,0-20.286-7.7a27.01,27.01,0,0,1-.214-38.556q7.911-7.695,19.781-7.7a35.9,35.9,0,0,1,10.933,1.582q2.445.793,4.317,1.547a30.194,30.194,0,0,1,3.74,1.834v8.488q-3.813-2.227-6.151-3.308a36.181,36.181,0,0,0-4.423-1.726,28.68,28.68,0,0,0-8.415-1.3,19.54,19.54,0,0,0-14.315,5.612,18.954,18.954,0,0,0-5.755,14.171q0,9.062,5.755,14.458,5.9,5.468,15.537,5.467a29.034,29.034,0,0,0,7.193-.863q1.295-.36,2.3-.72t1.8-.719V225.7h-10.36v-6.762Z" transform="translate(-229.062 -191.529)"/>
        <path id="Path_13754-2" data-name="Path 13754" class="cls-2" d="M295.132,195.7a11.856,11.856,0,0,1,3.632,4.784,16.366,16.366,0,0,1,1.187,6.365,15.521,15.521,0,0,1-1.222,6.259,12.547,12.547,0,0,1-3.741,4.818q-4.821,3.74-12.877,3.741H274.2v22.946H266.79V191.955h15.753a25.29,25.29,0,0,1,7.086.934A15.542,15.542,0,0,1,295.132,195.7Zm-5.4,17.048a7.07,7.07,0,0,0,1.907-2.446,9.275,9.275,0,0,0,.035-6.9,6.7,6.7,0,0,0-1.869-2.446,9.9,9.9,0,0,0-3.2-1.653,14.591,14.591,0,0,0-4.352-.576H274.2V214.9h7.7Q287.145,214.9,289.736,212.744Z" transform="translate(-209.461 -191.308)"/>
        <path id="Path_13755-2" data-name="Path 13755" class="cls-2" d="M337.84,199.225a27.007,27.007,0,0,1,0,38.485,27.168,27.168,0,0,1-19.71,7.768q-11.868,0-19.781-7.7a27.268,27.268,0,0,1-.071-38.485,29.169,29.169,0,0,1,39.562-.071Zm-5.539,33.3a19.855,19.855,0,0,0-14.171-33.881,19.379,19.379,0,0,0-14.243,5.827,19.885,19.885,0,0,0-.071,28.053,20.318,20.318,0,0,0,28.485,0Z" transform="translate(-197.214 -191.529)"/>
      </g>
    </g>
  </g>
</svg>
