<svg id="Layer_1" data-name="Layer 1" xmlns="http://www.w3.org/2000/svg" xmlns:xlink="http://www.w3.org/1999/xlink" width="164.49" height="43.47" viewBox="0 0 164.49 43.47"><defs><style>.cls-1{fill:#00a69a;}.cls-2{fill:url(#linear-gradient);}.cls-3{fill:url(#linear-gradient-2);}.cls-4{opacity:0.18;}.cls-5{fill:url(#linear-gradient-3);}.cls-6{fill:#fff;}.cls-7{fill:url(#linear-gradient-4);}.cls-8,.cls-9{fill:none;stroke-miterlimit:10;}.cls-8{stroke:url(#linear-gradient-5);}.cls-9{stroke:url(#linear-gradient-6);}</style><linearGradient id="linear-gradient" x1="23.34" y1="21.21" x2="36.06" y2="21.21" gradientUnits="userSpaceOnUse"><stop offset="0" stop-color="#ff7100"/><stop offset="1" stop-color="#fab41c"/></linearGradient><linearGradient id="linear-gradient-2" x1="21.97" y1="42.77" x2="21.97" y2="41.91" gradientUnits="userSpaceOnUse"><stop offset="0" stop-color="#00e09a"/><stop offset="1" stop-color="#00a69a"/></linearGradient><linearGradient id="linear-gradient-3" x1="22.76" y1="53.76" x2="22.76" y2="53.41" xlink:href="#linear-gradient-2"/><linearGradient id="linear-gradient-4" x1="19.95" y1="39.14" x2="10.75" y2="38.82" xlink:href="#linear-gradient"/><linearGradient id="linear-gradient-5" x1="49.92" y1="66.73" x2="49.92" y2="66.73" xlink:href="#linear-gradient"/><linearGradient id="linear-gradient-6" x1="49.92" y1="5.73" x2="49.92" y2="5.73" xlink:href="#linear-gradient"/></defs><path class="cls-1" d="M83.35,12.23V36.89H77.68V20.69h-.15L71,36.89H68.21l-6.54-16.2h-.1v16.2H56V12.23H63.3l6.3,16h.1l6.25-16Z" transform="translate(-1.2 -11.04)"/><path class="cls-1" d="M97.54,18.48a9.62,9.62,0,0,1,6.1,1.73,5.54,5.54,0,0,1,2.21,4.61V36.89h-5.43V34h-.1a4.7,4.7,0,0,1-1,1.37,5.47,5.47,0,0,1-1.47,1,8.22,8.22,0,0,1-1.73.6,7.55,7.55,0,0,1-1.82.22,7.47,7.47,0,0,1-2.41-.38,6.15,6.15,0,0,1-2-1.11A5.24,5.24,0,0,1,88.59,34a5,5,0,0,1-.48-2.23A4.76,4.76,0,0,1,90,27.68,10.51,10.51,0,0,1,95.56,26l4.62-.29v-.63a2.58,2.58,0,0,0-.77-2,3,3,0,0,0-2.16-.72,4,4,0,0,0-2.07.48,2.21,2.21,0,0,0-1.06,1.44H89a6,6,0,0,1,2.54-4.28A10.13,10.13,0,0,1,97.54,18.48Zm2.64,10.33-3.7.24c-1.86.17-2.79.92-2.79,2.26a1.85,1.85,0,0,0,.74,1.57,3,3,0,0,0,1.86.55,3.8,3.8,0,0,0,1.46-.29A4.28,4.28,0,0,0,99,32.35a3.76,3.76,0,0,0,.87-1.16,3.09,3.09,0,0,0,.31-1.37Z" transform="translate(-1.2 -11.04)"/><path class="cls-1" d="M119.7,32.81v3.84a15.53,15.53,0,0,1-3.22.34,6.4,6.4,0,0,1-4.3-1.52q-1.52-1.41-1.52-4.88V12.18h5.68V30.69a2.25,2.25,0,0,0,.43,1.54,2.46,2.46,0,0,0,1.63.58A9.32,9.32,0,0,0,119.7,32.81Z" transform="translate(-1.2 -11.04)"/><path class="cls-1" d="M130,29a4.26,4.26,0,0,0,1.2,3,4,4,0,0,0,4.81.5,2.94,2.94,0,0,0,1.2-1.73h5.24a6.61,6.61,0,0,1-2.64,4.86,10,10,0,0,1-6,1.63A9.39,9.39,0,0,1,127,34.8q-2.44-2.38-2.45-7a9.17,9.17,0,0,1,2.5-6.9,9.28,9.28,0,0,1,6.73-2.42c2.89,0,5.07.82,6.56,2.47a9.65,9.65,0,0,1,2.24,6.71V29Zm3.75-6.35a3.52,3.52,0,0,0-2.48.92,4,4,0,0,0-1.22,2.4h7.26a4,4,0,0,0-1.13-2.4A3.35,3.35,0,0,0,133.74,22.61Z" transform="translate(-1.2 -11.04)"/><path class="cls-1" d="M154,18.48a7.7,7.7,0,0,1,3.58.74,6.28,6.28,0,0,1,2.38,2.24H160V12.23h5.68V36.89h-5.44V34.25h-.09a6,6,0,0,1-2.46,2.11,8.29,8.29,0,0,1-3.79.82,6.41,6.41,0,0,1-2.74-.6,6.5,6.5,0,0,1-2.29-1.78,9.18,9.18,0,0,1-1.59-2.93,12.4,12.4,0,0,1-.6-4,13.3,13.3,0,0,1,.56-4,8.54,8.54,0,0,1,1.54-2.94,6.68,6.68,0,0,1,2.33-1.8A6.84,6.84,0,0,1,154,18.48Zm2.21,14.37a3.52,3.52,0,0,0,2.89-1.3,5.72,5.72,0,0,0,1.06-3.7,5.8,5.8,0,0,0-1.06-3.68,3.51,3.51,0,0,0-2.89-1.32,3.56,3.56,0,0,0-2.86,1.3,5.65,5.65,0,0,0-1.08,3.7,5.67,5.67,0,0,0,1.06,3.7A3.51,3.51,0,0,0,156.19,32.85Z" transform="translate(-1.2 -11.04)"/><path class="cls-2" d="M36.06,15.06l-.12.67c-.82,4.76-4.43,7.67-8.76,7.09l-.76-.11V22c0-1.64.79-4.86,4-5.3,0,0-2.84,1.94-2.13,4.48h0c3.12,0,5.06-2.35,5.75-5a6.41,6.41,0,0,0-6,.23c-1.91,1.21-3,3.63-3,6.63v5.72H23.34V23a11.48,11.48,0,0,1,.88-4.58,7.77,7.77,0,0,1,2.93-3.54c2.28-1.46,5.22-1.49,8.29-.07Z" transform="translate(-1.2 -11.04)"/><path class="cls-1" d="M23.11,22v6.77H21V22c0-3.54-1.29-6.4-3.54-7.84-1.93-1.23-4.35-1.32-7-.27.81,3.16,3.11,5.94,6.8,5.94h.06c.84-3-2.53-5.29-2.53-5.29,3.78.52,4.73,4.32,4.71,6.26v.9l-.9.12C13.44,22.47,9.18,19,8.2,13.4l-.14-.79.73-.34c3.63-1.67,7.12-1.64,9.81.08a9.3,9.3,0,0,1,3.46,4.19A13.49,13.49,0,0,1,23.11,22Z" transform="translate(-1.2 -11.04)"/><rect class="cls-3" x="1.69" y="16.55" width="40.56" height="19.26" rx="9.63"/><g class="cls-4"><path class="cls-5" d="M34.08,43.16H11.44C5.78,43.16,1.2,44.9,1.2,47.05h0c0,2.15,4.58,3.89,10.24,3.89H34.08c5.66,0,10.24-1.74,10.24-3.89h0C44.32,44.9,39.74,43.16,34.08,43.16Z" transform="translate(-1.2 -11.04)"/></g><path class="cls-6" d="M21,30H13a7.26,7.26,0,0,0-7.25,7.25h0A7.26,7.26,0,0,0,13,44.47h8Z" transform="translate(-1.2 -11.04)"/><path class="cls-7" d="M20.84,33.49H14.35a5.56,5.56,0,0,0-5.57,5.56h0a5.57,5.57,0,0,0,5.57,5.57h6.49Z" transform="translate(-1.2 -11.04)"/><path class="cls-1" d="M55.49,51.73V46.05h1.56v3.24a1.29,1.29,0,0,0,.35.9,1.25,1.25,0,0,0,.92.36,1.07,1.07,0,0,0,.79-.27,1.24,1.24,0,0,0,.26-.87V46.05h1.57v3.76a2,2,0,0,1-.53,1.47,1.85,1.85,0,0,1-1.36.53,2.57,2.57,0,0,1-1.31-.3,1.38,1.38,0,0,1-.69-.83h0v1Z" transform="translate(-1.2 -11.04)"/><path class="cls-1" d="M64.64,51.73V48a.66.66,0,0,0-.24-.56,1.27,1.27,0,0,0-.68-.21,2.24,2.24,0,0,0-.73.06c-.23.05-.48.12-.76.2V46.36A4.78,4.78,0,0,1,64.09,46a3.15,3.15,0,0,1,.83.1,2.17,2.17,0,0,1,.68.28,1.41,1.41,0,0,1,.46.51,1.64,1.64,0,0,1,.17.76v4.07Z" transform="translate(-1.2 -11.04)"/><path class="cls-1" d="M70.55,51.65a4.84,4.84,0,0,1-.91.09,1.93,1.93,0,0,1-1.26-.43,1.79,1.79,0,0,1-.45-1.37V46.05H69.5v3.73a.81.81,0,0,0,.16.6.68.68,0,0,0,.41.18.53.53,0,0,0,.22,0l.26,0Z" transform="translate(-1.2 -11.04)"/><path class="cls-1" d="M74.67,48.41l.61.19a2.08,2.08,0,0,1,.63.32,1.53,1.53,0,0,1,.47.54,1.7,1.7,0,0,1,.12.89,1.23,1.23,0,0,1-.28.69,1.85,1.85,0,0,1-.59.45,2.61,2.61,0,0,1-.76.25,4.4,4.4,0,0,1-.8.07,3.47,3.47,0,0,1-.85-.1,2.41,2.41,0,0,1-.77-.32,1.9,1.9,0,0,1-.56-.57,1.61,1.61,0,0,1-.23-.82h1.4a.71.71,0,0,0,.39.43,1.28,1.28,0,0,0,.63.16,1.75,1.75,0,0,0,.65-.12.43.43,0,0,0,.3-.42c0-.17-.12-.3-.37-.39a9.51,9.51,0,0,0-1.06-.28,7.15,7.15,0,0,1-.7-.19,2.8,2.8,0,0,1-.6-.3,1.3,1.3,0,0,1-.41-.46,1.28,1.28,0,0,1-.16-.67A1.36,1.36,0,0,1,72,47a1.77,1.77,0,0,1,.55-.54,2.51,2.51,0,0,1,.77-.32,3.47,3.47,0,0,1,.85-.1,3.42,3.42,0,0,1,.83.1,2.42,2.42,0,0,1,.76.3,1.94,1.94,0,0,1,.57.57,1.59,1.59,0,0,1,.22.84H75.1a.6.6,0,0,0-.35-.45,1.61,1.61,0,0,0-.63-.12,1.47,1.47,0,0,0-.58.12.38.38,0,0,0-.29.36.29.29,0,0,0,.12.24,1.06,1.06,0,0,0,.32.16l.46.14Z" transform="translate(-1.2 -11.04)"/><path class="cls-1" d="M77.11,43.68v1.65H72.05v-1h3.67v-.65Z" transform="translate(-1.2 -11.04)"/><path class="cls-1" d="M83.91,46.05v3.57q0,2.19-2.67,2.19a3.54,3.54,0,0,1-2-.48A1.52,1.52,0,0,1,78.52,50a1.35,1.35,0,0,1,.24-.86,1.65,1.65,0,0,1,.69-.49,1.24,1.24,0,0,1-.89-1.17,1.5,1.5,0,0,1,.17-.84,1.15,1.15,0,0,1,.53-.49A2.09,2.09,0,0,1,80.1,46a5.54,5.54,0,0,1,1.05.08v1.11a1.8,1.8,0,0,0-.81,0,.45.45,0,0,0-.26.46.4.4,0,0,0,.09.27.72.72,0,0,0,.25.16,1.06,1.06,0,0,0,.33.09,2.43,2.43,0,0,0,.38,0h.31v.93h-.23a2.61,2.61,0,0,0-.4,0,1.2,1.2,0,0,0-.35.08.75.75,0,0,0-.26.18.48.48,0,0,0-.09.29.7.7,0,0,0,.26.59,1.32,1.32,0,0,0,.87.22,1,1,0,0,0,.85-.31,1.52,1.52,0,0,0,.25-.93V46.05Z" transform="translate(-1.2 -11.04)"/><path class="cls-1" d="M90.81,51.73H89.28v-1h0a1.48,1.48,0,0,1-.66.83,2.4,2.4,0,0,1-1.28.3,2.19,2.19,0,0,1-.77-.13,1.81,1.81,0,0,1-.62-.39,1.77,1.77,0,0,1-.41-.61,2.47,2.47,0,0,1-.14-.84V46.05h1.55v3.36a1.12,1.12,0,0,0,.3.87,1.22,1.22,0,0,0,.83.27,1.1,1.1,0,0,0,.88-.36,1.36,1.36,0,0,0,.32-.9V46.05h1.57Z" transform="translate(-1.2 -11.04)"/><path class="cls-1" d="M95.88,51.73V46.05h1.56v3.24a1.22,1.22,0,0,0,1.27,1.26,1.07,1.07,0,0,0,.79-.27,1.24,1.24,0,0,0,.26-.87V46.05h1.57v3.76a2,2,0,0,1-.53,1.47,1.85,1.85,0,0,1-1.36.53,2.57,2.57,0,0,1-1.31-.3,1.38,1.38,0,0,1-.69-.83h0v1Z" transform="translate(-1.2 -11.04)"/><path class="cls-1" d="M105,51.73V48a.66.66,0,0,0-.24-.56,1.27,1.27,0,0,0-.68-.21,2.24,2.24,0,0,0-.73.06c-.23.05-.48.12-.76.2V46.36a4.78,4.78,0,0,1,1.86-.35,3.15,3.15,0,0,1,.83.1,2.17,2.17,0,0,1,.68.28,1.41,1.41,0,0,1,.46.51,1.64,1.64,0,0,1,.17.76v4.07Z" transform="translate(-1.2 -11.04)"/><path class="cls-1" d="M111,48.41l.61.19a2.26,2.26,0,0,1,.64.32,1.43,1.43,0,0,1,.58,1.43,1.23,1.23,0,0,1-.28.69,1.75,1.75,0,0,1-.59.45,2.55,2.55,0,0,1-.75.25,4.59,4.59,0,0,1-.81.07,3.47,3.47,0,0,1-.85-.1,2.51,2.51,0,0,1-.77-.32,1.9,1.9,0,0,1-.56-.57A1.61,1.61,0,0,1,108,50h1.39a.78.78,0,0,0,.39.43,1.28,1.28,0,0,0,.63.16,1.71,1.71,0,0,0,.65-.12.42.42,0,0,0,.31-.42c0-.17-.13-.3-.38-.39a8.94,8.94,0,0,0-1.06-.28c-.24-.05-.47-.12-.7-.19a2.8,2.8,0,0,1-.6-.3,1.3,1.3,0,0,1-.41-.46,1.38,1.38,0,0,1-.16-.67,1.44,1.44,0,0,1,.22-.79,1.7,1.7,0,0,1,.56-.54,2.35,2.35,0,0,1,.76-.32,3.53,3.53,0,0,1,.85-.1,3.42,3.42,0,0,1,.83.1,2.32,2.32,0,0,1,.76.3,1.94,1.94,0,0,1,.57.57,1.5,1.5,0,0,1,.22.84h-1.4a.6.6,0,0,0-.35-.45,1.54,1.54,0,0,0-.63-.12,1.51,1.51,0,0,0-.58.12.39.39,0,0,0-.29.36.29.29,0,0,0,.12.24,1.06,1.06,0,0,0,.32.16l.46.14Z" transform="translate(-1.2 -11.04)"/><path class="cls-1" d="M113.38,52.41v.88a1.07,1.07,0,0,1-.16.63,1.27,1.27,0,0,1-.43.37,1.69,1.69,0,0,1-.55.18,3.56,3.56,0,0,1-.55,0,3.23,3.23,0,0,1-.53,0,1.63,1.63,0,0,1-.5-.16,1.21,1.21,0,0,1-.4-.35,1.19,1.19,0,0,1-.19-.61h-.55v-.94h1.76v.67a.73.73,0,0,0,.08.39.37.37,0,0,0,.33.14.36.36,0,0,0,.34-.15,1,1,0,0,0,.08-.44v-.61Z" transform="translate(-1.2 -11.04)"/><path class="cls-1" d="M114.43,44.33v1h-3.6v-.57a2,2,0,0,0,.45-.17.92.92,0,0,0,.24-.17.41.41,0,0,0,.1-.18,1.1,1.1,0,0,0,0-.18c0-.11-.07-.19-.22-.24a1.35,1.35,0,0,0-.57,0v-.76a2.34,2.34,0,0,1,.67-.13,2.77,2.77,0,0,1,.66,0,1.23,1.23,0,0,1,.51.26.6.6,0,0,1,.2.46,1,1,0,0,1-.32.75c.15,0,.31-.06.5-.08a3,3,0,0,1,.5,0Z" transform="translate(-1.2 -11.04)"/><path class="cls-1" d="M119.18,51.73V46.05h1.56v3.24a1.29,1.29,0,0,0,.35.9,1.25,1.25,0,0,0,.92.36,1.07,1.07,0,0,0,.79-.27,1.24,1.24,0,0,0,.26-.87V46.05h1.57v3.76a2,2,0,0,1-.53,1.47,1.85,1.85,0,0,1-1.36.53,2.59,2.59,0,0,1-1.31-.3,1.45,1.45,0,0,1-.69-.83h0v1Z" transform="translate(-1.2 -11.04)"/><path class="cls-1" d="M128.34,51.73V48a.64.64,0,0,0-.25-.56,1.25,1.25,0,0,0-.68-.21,2.15,2.15,0,0,0-.72.06c-.24.05-.49.12-.77.2V46.36a4.87,4.87,0,0,1,1.87-.35,3.07,3.07,0,0,1,.82.1,2.07,2.07,0,0,1,.68.28,1.33,1.33,0,0,1,.46.51,1.64,1.64,0,0,1,.17.76v4.07Z" transform="translate(-1.2 -11.04)"/><path class="cls-1" d="M134.2,46a3.71,3.71,0,0,1,1,.13,2.62,2.62,0,0,1,.88.4,2.06,2.06,0,0,1,.61.72,2.32,2.32,0,0,1,.22,1.07v3.4h-1.55V48.35a1.07,1.07,0,0,0-.11-.49.87.87,0,0,0-.28-.32,1,1,0,0,0-.37-.19,1.44,1.44,0,0,0-.4-.06,1.15,1.15,0,0,0-1,.45,2,2,0,0,0-.33,1.2,2.16,2.16,0,0,0,.28,1.25,1,1,0,0,0,.88.4h.19l.19,0v1.16l-.29,0h-.3a3.19,3.19,0,0,1-1.06-.16,2.13,2.13,0,0,1-.8-.5,2.37,2.37,0,0,1-.51-.88,4.1,4.1,0,0,1-.18-1.29A2.66,2.66,0,0,1,134.2,46Z" transform="translate(-1.2 -11.04)"/><path class="cls-1" d="M137.53,52.41v.88a1,1,0,0,1-.17.63,1.15,1.15,0,0,1-.42.37,1.69,1.69,0,0,1-.55.18,3.65,3.65,0,0,1-.55,0,3.23,3.23,0,0,1-.53,0,1.63,1.63,0,0,1-.5-.16,1.12,1.12,0,0,1-.4-.35,1.1,1.1,0,0,1-.19-.61h-.55v-.94h1.75v.67a.73.73,0,0,0,.09.39.37.37,0,0,0,.33.14.36.36,0,0,0,.34-.15,1,1,0,0,0,.08-.44v-.61Z" transform="translate(-1.2 -11.04)"/><path class="cls-1" d="M142.66,51.73V46.05h1.56v3.24a1.22,1.22,0,0,0,1.27,1.26,1.07,1.07,0,0,0,.79-.27,1.24,1.24,0,0,0,.26-.87V46.05h1.57v3.76a2,2,0,0,1-.53,1.47,1.87,1.87,0,0,1-1.36.53,2.57,2.57,0,0,1-1.31-.3,1.38,1.38,0,0,1-.69-.83h0v1Z" transform="translate(-1.2 -11.04)"/><path class="cls-1" d="M151.81,51.73V48a.66.66,0,0,0-.24-.56,1.27,1.27,0,0,0-.68-.21,2.21,2.21,0,0,0-.73.06c-.23.05-.49.12-.76.2V46.36a4.78,4.78,0,0,1,1.86-.35,3.15,3.15,0,0,1,.83.1,2.17,2.17,0,0,1,.68.28,1.41,1.41,0,0,1,.46.51,1.64,1.64,0,0,1,.17.76v4.07Z" transform="translate(-1.2 -11.04)"/><path class="cls-1" d="M158.4,46a2.2,2.2,0,0,1,.78.13,1.85,1.85,0,0,1,.64.37,1.78,1.78,0,0,1,.43.61,2.18,2.18,0,0,1,.15.82v3.79h-1.57V48.39a1,1,0,0,0-.31-.86,1.26,1.26,0,0,0-.84-.26,1.12,1.12,0,0,0-.93.39,1.67,1.67,0,0,0-.32,1.08v3h-1.56V46.05h1.52v1h0a1.26,1.26,0,0,1,.71-.79A2.94,2.94,0,0,1,158.4,46Z" transform="translate(-1.2 -11.04)"/><path class="cls-1" d="M159.91,43.63a1.5,1.5,0,0,1,.92.25.88.88,0,0,1,.31.74.84.84,0,0,1-.31.71,1.44,1.44,0,0,1-.92.25,1.54,1.54,0,0,1-.93-.24.85.85,0,0,1-.32-.72.89.89,0,0,1,.32-.74A1.54,1.54,0,0,1,159.91,43.63Zm0,1.33a.44.44,0,0,0,.27-.09.32.32,0,0,0,.1-.25.34.34,0,0,0-.1-.28.44.44,0,0,0-.27-.09.41.41,0,0,0-.28.09.32.32,0,0,0-.11.28.3.3,0,0,0,.11.25A.41.41,0,0,0,159.91,45Zm4.2,6.77V48a.66.66,0,0,0-.24-.56,1.28,1.28,0,0,0-.69-.21,2.15,2.15,0,0,0-.72.06l-.77.2V46.36a4.87,4.87,0,0,1,1.87-.35,3.07,3.07,0,0,1,.82.1,2,2,0,0,1,.68.28,1.44,1.44,0,0,1,.47.51,1.64,1.64,0,0,1,.16.76v4.07Z" transform="translate(-1.2 -11.04)"/><path class="cls-8" d="M49.92,66.73" transform="translate(-1.2 -11.04)"/><path class="cls-9" d="M49.92,5.73" transform="translate(-1.2 -11.04)"/></svg>